<?xml version="1.0" encoding="UTF-8" standalone="no"?>
<!-- 2017-01-24 15:55:04 Generated by QCAD SVG Exporter -->

<svg
   xmlns:dc="http://purl.org/dc/elements/1.1/"
   xmlns:cc="http://creativecommons.org/ns#"
   xmlns:rdf="http://www.w3.org/1999/02/22-rdf-syntax-ns#"
   xmlns:svg="http://www.w3.org/2000/svg"
   xmlns="http://www.w3.org/2000/svg"
   xmlns:sodipodi="http://sodipodi.sourceforge.net/DTD/sodipodi-0.dtd"
   xmlns:inkscape="http://www.inkscape.org/namespaces/inkscape"
   width="58.434mm"
   height="15mm"
   viewBox="0 -15 58.434 15"
   version="1.1"
   style="stroke-linecap:round;stroke-linejoin:round;fill:none"
   id="svg2"
   inkscape:version="0.91 r13725"
   sodipodi:docname="Input Digits.svg"
   inkscape:export-filename="/Users/mwu/Documents/Curta/Release Files/Input Digits.png"
   inkscape:export-xdpi="846"
   inkscape:export-ydpi="846">
  <metadata
     id="metadata54">
    <rdf:RDF>
      <cc:Work
         rdf:about="">
        <dc:format>image/svg+xml</dc:format>
        <dc:type
           rdf:resource="http://purl.org/dc/dcmitype/StillImage" />
      </cc:Work>
    </rdf:RDF>
  </metadata>
  <defs
     id="defs52" />
  <sodipodi:namedview
     pagecolor="#ffffff"
     bordercolor="#666666"
     borderopacity="1"
     objecttolerance="10"
     gridtolerance="10"
     guidetolerance="10"
     inkscape:pageopacity="0"
     inkscape:pageshadow="2"
     inkscape:window-width="1013"
     inkscape:window-height="608"
     id="namedview50"
     showgrid="false"
     inkscape:zoom="1.5648424"
     inkscape:cx="96.814857"
     inkscape:cy="26.574802"
     inkscape:window-x="0"
     inkscape:window-y="0"
     inkscape:window-maximized="0"
     inkscape:current-layer="svg2" />
  <path
     style="fill:#000000;fill-opacity:1;stroke:#000000;stroke-width:0"
     d="M 134.58203 20.597656 C 134.05495 20.597656 133.54889 20.684909 133.07812 20.847656 C 132.82481 20.932249 132.58147 21.03615 132.34961 21.158203 C 132.12142 21.275256 131.9017 21.407286 131.69336 21.552734 C 131.46102 21.711932 131.24033 21.885123 131.03125 22.072266 C 130.7744 22.29779 130.533 22.541058 130.30859 22.798828 C 130.0803 23.056093 129.86648 23.325836 129.66797 23.607422 C 128.57918 25.134852 127.93945 27.00498 127.93945 29.023438 L 127.93945 38.746094 C 127.93945 40.764632 128.57936 42.633062 129.66797 44.160156 C 129.86671 44.442069 130.08039 44.711579 130.30859 44.96875 C 130.53303 45.226565 130.77445 45.469825 131.03125 45.695312 C 131.24041 45.88252 131.46129 46.055842 131.69336 46.214844 C 131.90206 46.360534 132.12224 46.492761 132.34961 46.609375 C 132.5824 46.731892 132.82461 46.83597 133.07617 46.919922 C 133.54845 47.083081 134.05528 47.171875 134.58203 47.171875 C 135.10911 47.171875 135.61517 47.08267 136.08594 46.919922 C 136.33925 46.835325 136.5826 46.731428 136.81445 46.609375 C 137.04264 46.492322 137.26236 46.360293 137.4707 46.214844 C 137.70304 46.055647 137.92374 45.882455 138.13281 45.695312 C 138.38967 45.469788 138.63106 45.22652 138.85547 44.96875 C 139.08376 44.711485 139.29758 44.441743 139.49609 44.160156 C 140.58489 42.632727 141.22656 40.76455 141.22656 38.746094 C 141.22656 36.190807 140.19999 33.875623 138.53711 32.189453 C 137.52998 31.168214 136.12966 30.535156 134.58203 30.535156 C 133.03441 30.535156 131.63408 31.168214 130.62695 32.189453 C 130.61632 32.200225 130.60598 32.209896 130.5957 32.220703 L 130.5957 29.023438 C 130.59574 27.579325 131.05504 26.241078 131.83398 25.148438 L 133.15625 23.773438 L 134.58203 23.253906 L 136.00977 23.773438 L 137.33203 25.148438 C 137.86324 25.893659 138.24436 26.752617 138.43359 27.681641 L 138.43359 27.683594 C 138.55729 28.289861 139.09199 28.746094 139.73438 28.746094 C 140.46822 28.746094 141.06445 28.151812 141.06445 27.417969 C 141.06445 27.326512 141.05483 27.236248 141.03711 27.150391 L 141.03711 27.148438 C 140.77182 25.848085 140.23801 24.64817 139.49609 23.607422 C 139.29735 23.325509 139.08368 23.055999 138.85547 22.798828 C 138.63104 22.541014 138.38961 22.297753 138.13281 22.072266 C 137.92365 21.885059 137.70277 21.711735 137.4707 21.552734 C 137.262 21.407044 137.04378 21.274817 136.81641 21.158203 L 136.81445 21.158203 C 136.58166 21.035686 136.33945 20.931604 136.08789 20.847656 C 135.61562 20.684498 135.10878 20.597656 134.58203 20.597656 z M 134.58203 33.191406 C 135.38912 33.191406 136.11931 33.522106 136.64453 34.054688 C 137.8342 35.261027 138.56836 36.91796 138.56836 38.746094 C 138.56836 40.574227 137.8342 42.23116 136.64453 43.4375 C 136.11931 43.97008 135.38912 44.298828 134.58203 44.298828 C 133.77494 44.298828 133.04476 43.970081 132.51953 43.4375 C 131.32986 42.23116 130.5957 40.574227 130.5957 38.746094 C 130.5957 36.91796 131.32986 35.261027 132.51953 34.054688 C 133.04476 33.522108 133.77494 33.191406 134.58203 33.191406 z "
     transform="matrix(0.2822222,0,0,0.28222222,0,-15)"
     id="path6" />
  <path
     inkscape:connector-curvature="0"
     id="path8"
     style="stroke:#000000;stroke-width:0"
     d="m 36.282688,-3.1192141 -5.33e-4,5.93e-4 C 36.169081,-3.412382 36.107101,-3.7315064 36.107101,-4.0651072" />
  <path
     inkscape:connector-curvature="0"
     id="path12"
     style="stroke:#000000;stroke-width:0;fill:#000000;fill-opacity:1"
     d="m 30.2637,-4.4996297 c 0,0.5326065 0.103146,1.0411221 0.290312,1.5060658 l 2.71e-4,-3.012e-4 c 0.06417,0.1563208 0.14237,0.3049393 0.233082,0.4445449 l 2e-5,-1.65e-5 c 0.05996,0.094797 0.126724,0.1847382 0.199648,0.2692003 l -3e-6,2.2e-6 c 0.05603,0.066133 0.116405,0.1284528 0.180685,0.1865243 l 5e-6,-3.4e-6 c 0.05438,0.049919 0.112019,0.096344 0.17252,0.1388976 l 2.5e-5,-1.42e-5 c 0.05595,0.03998 0.114694,0.076229 0.175801,0.1083504 l 5.6e-5,-2.4e-5 c 0.06391,0.034355 0.130824,0.063649 0.200043,0.087318 l 4.4e-5,-9.6e-6 c 0.132341,0.046639 0.274458,0.071965 0.422491,0.071965 0.14812,0 0.290319,-0.025357 0.422255,-0.071883 l 2e-5,1.56e-5 c 0.06968,-0.023842 0.136536,-0.053123 0.200208,-0.087356 l 3.6e-5,3.35e-5 c 0.06131,-0.032232 0.120026,-0.068469 0.175887,-0.1083897 l 1.7e-5,1.88e-5 c 0.06056,-0.042598 0.118187,-0.089016 0.172555,-0.1389215 l 3e-6,4.5e-6 c 0.06429,-0.058079 0.124665,-0.1204011 0.180681,-0.1865186 l -1e-6,-3e-6 c 0.07296,-0.084501 0.139739,-0.1744671 0.199601,-0.2691235 l 1.5e-5,2.1e-5 c 0.09088,-0.1398722 0.169107,-0.2885895 0.232983,-0.4442512 l 1.88e-4,5.136e-4 c 0.187494,-0.4659723 0.290552,-0.9742814 0.290552,-1.506661 0,-0.5326066 -0.103146,-1.0411222 -0.290312,-1.5060659 l -2.71e-4,3.013e-4 c -0.06417,-0.1563209 -0.14237,-0.3049393 -0.233082,-0.444545 l -2e-5,1.65e-5 c -0.05996,-0.094797 -0.126724,-0.1847381 -0.199648,-0.2692002 l 3e-6,-2.3e-6 c -0.05603,-0.066133 -0.116405,-0.1284527 -0.180685,-0.1865243 l -5e-6,3.5e-6 c -0.05438,-0.049919 -0.112019,-0.096344 -0.17252,-0.1388977 l -2.5e-5,1.42e-5 c -0.05595,-0.03998 -0.114694,-0.076229 -0.175801,-0.1083504 l -5.6e-5,2.41e-5 c -0.06391,-0.034355 -0.130824,-0.063649 -0.200043,-0.087318 l -4.4e-5,9.7e-6 C 32.42885,-7.286804 32.286733,-7.31213 32.1387,-7.31213 c -0.14812,0 -0.290319,0.025356 -0.422255,0.071883 l -2e-5,-1.57e-5 c -0.06968,0.023842 -0.136536,0.053123 -0.200208,0.087356 l -3.5e-5,-3.23e-5 c -0.04394,0.02317 -0.08649,0.048366 -0.127599,0.075486 l 1.17e-4,-1.3596766 1.875,0 c 0.207107,0 0.375,-0.1678932 0.375,-0.375 0,-0.2071068 -0.167893,-0.375 -0.375,-0.375 l -2.25,0 c -0.207107,0 -0.375,0.1678932 -0.375,0.375 l 0,2.6249997 c 0,0.2143117 0.173734,0.3880456 0.388046,0.3880456 0.144016,0 0.269708,-0.078454 0.336657,-0.1949332 l -1.96e-4,-3.812e-4 c 0.02124,-0.037127 0.04384,-0.073383 0.06771,-0.1087015 l 1.6e-5,2.45e-5 c 0.03679,-0.055726 0.07772,-0.108479 0.122353,-0.1578231 l -1e-6,-2.4e-6 c 0.03169,-0.035941 0.06577,-0.069729 0.101989,-0.1011165 l 4e-6,4.9e-6 c 0.02904,-0.025686 0.05975,-0.049523 0.09195,-0.071325 l 1.3e-5,1.38e-5 c 0.0286,-0.019755 0.0586,-0.037637 0.08982,-0.05347 l 2.3e-5,2.13e-5 c 0.03158,-0.016461 0.06464,-0.030476 0.09893,-0.041795 l 1.1e-5,9e-6 c 0.06357,-0.021761 0.131746,-0.033571 0.202686,-0.033571 0.07099,0 0.139208,0.011825 0.202806,0.033612 l 2.7e-5,-5.5e-6 c 0.03426,0.011317 0.06729,0.025327 0.09884,0.041777 l 3.6e-5,-1.52e-5 c 0.0312,0.015828 0.06118,0.033703 0.08977,0.05345 l 1.9e-5,-1.03e-5 c 0.03219,0.021798 0.0629,0.04563 0.09193,0.071311 l 6e-6,-3.8e-6 c 0.03621,0.031388 0.07029,0.065175 0.101988,0.1011162 l -2e-6,1.7e-6 c 0.04464,0.049355 0.08558,0.1021217 0.122378,0.1578611 l 1.2e-5,-1.02e-5 c 0.06334,0.092299 0.117879,0.1911059 0.162419,0.2952117 l 3.59e-4,-3.995e-4 c 0.16405,0.403976 0.254414,0.845737 0.254414,1.3086037 0,0.4630592 -0.09044,0.9049951 -0.254619,1.3091076 l -2.5e-4,-6.805e-4 c -0.04454,0.10404 -0.09906,0.2027859 -0.162365,0.2950313 l -1e-5,-1.26e-5 c -0.03679,0.055725 -0.07772,0.1084789 -0.122353,0.1578231 l 10e-7,2.4e-6 c -0.03169,0.035941 -0.06577,0.069729 -0.101989,0.1011164 l -4e-6,-4.8e-6 c -0.02904,0.025686 -0.05975,0.049523 -0.09195,0.071325 l -1.3e-5,-1.38e-5 c -0.0286,0.019755 -0.0586,0.037638 -0.08982,0.05347 l -2.3e-5,-2.13e-5 c -0.03158,0.016461 -0.06464,0.030476 -0.09893,0.041795 l -1.1e-5,-9.1e-6 c -0.06356,0.021761 -0.131746,0.033571 -0.202686,0.033571 -0.07099,0 -0.139208,-0.011825 -0.202806,-0.033612 l -2.7e-5,5.5e-6 c -0.03425,-0.011317 -0.06729,-0.025327 -0.09884,-0.041777 l -3.6e-5,1.52e-5 c -0.0312,-0.015828 -0.06118,-0.033703 -0.08977,-0.05345 l -1.9e-5,1.04e-5 c -0.03219,-0.021798 -0.0629,-0.04563 -0.09193,-0.071311 l -6e-6,3.7e-6 c -0.03621,-0.031388 -0.07029,-0.065176 -0.101988,-0.1011161 l 2e-6,-1.8e-6 c -0.04464,-0.049355 -0.08558,-0.1021216 -0.122378,-0.157861 l -1.2e-5,1.01e-5 c -0.06334,-0.092299 -0.117879,-0.1911059 -0.162419,-0.2952117 l -3.59e-4,3.995e-4 C 31.104064,-3.5950021 31.0137,-4.036763 31.0137,-4.4996297 c 0,-0.2071068 -0.167893,-0.375 -0.375,-0.375 -0.207107,0 -0.375,0.1678932 -0.375,0.375" />
  <path
     inkscape:connector-curvature="0"
     id="path14"
     style="stroke:#000000;stroke-width:0;fill:#000000;fill-opacity:1"
     d="m 20.4519,-5.4371296 z m 0,0 c -0.207107,0 -0.375,-0.1678932 -0.375,-0.375 0,-0.2071068 0.167893,-0.375 0.375,-0.375 0,0 0,0 0,0 l 0,0 c 0.09528,0 0.186613,-0.016898 0.271028,-0.04781 l 8e-6,5.9e-6 c 0.04227,-0.015207 0.08278,-0.033735 0.121301,-0.055281 l 1.2e-5,1.07e-5 c 0.035,-0.019327 0.06848,-0.040952 0.100267,-0.064687 l 4e-6,4.7e-6 c 0.03216,-0.023808 0.06272,-0.049633 0.0915,-0.077297 l 1e-6,5e-7 c 0.03126,-0.029808 0.06058,-0.061639 0.08773,-0.095275 l 0,-4e-7 c 0.03177,-0.038993 0.06082,-0.080273 0.08684,-0.1235104 l 4e-6,5.9e-6 c 0.03425,-0.056225 0.06378,-0.1155683 0.08801,-0.1773594 l 2.5e-5,7.09e-5 c 0.05863,-0.1501116 0.09076,-0.3132425 0.09076,-0.4838788 0,-0.1707151 -0.03216,-0.3339178 -0.09068,-0.4836714 l -3.7e-5,4.12e-5 c -0.02436,-0.062101 -0.05388,-0.1214016 -0.08805,-0.1774864 l -5e-6,4.5e-6 c -0.02608,-0.043321 -0.05512,-0.084587 -0.08687,-0.1235524 l 0,-3e-7 c -0.02717,-0.033648 -0.05648,-0.065477 -0.08774,-0.095282 l -10e-7,3e-7 c -0.02878,-0.027668 -0.05934,-0.053497 -0.09148,-0.077286 l -7e-6,3.6e-6 c -0.03183,-0.023763 -0.06532,-0.045395 -0.100223,-0.064665 l -1.7e-5,7.7e-6 c -0.03865,-0.021616 -0.0792,-0.040152 -0.121206,-0.055257 l -1.6e-5,3.7e-6 c -0.08465,-0.030981 -0.175938,-0.04786 -0.271166,-0.04786 -0.09528,0 -0.186613,0.016898 -0.271028,0.04781 l -8e-6,-5.9e-6 c -0.04227,0.015207 -0.08278,0.033735 -0.121301,0.055281 l -1.2e-5,-1.07e-5 c -0.035,0.019327 -0.06848,0.040952 -0.100267,0.064687 l -4e-6,-4.7e-6 c -0.03216,0.023808 -0.06272,0.049633 -0.0915,0.077296 l -10e-7,-5e-7 c -0.03126,0.029808 -0.06058,0.061639 -0.08773,0.095275 l 0,4e-7 c -0.03177,0.038993 -0.06082,0.080273 -0.08685,0.1235104 l -4e-6,-6e-6 c -0.03376,0.055437 -0.06294,0.1139039 -0.08697,0.1747547 l 2.13e-4,5.68e-4 c -0.05526,0.1382076 -0.190395,0.2358448 -0.348333,0.2358448 -0.207106,0 -0.375,-0.1678932 -0.375,-0.375 0,-0.059986 0.01408,-0.1166818 0.03913,-0.1669617 l -2.17e-4,-5.686e-4 c 0.03469,-0.082951 0.07507,-0.162935 0.120642,-0.2394653 l 5e-6,7e-6 c 0.04343,-0.07337 0.09184,-0.143447 0.144762,-0.209765 l -10e-7,-3e-7 c 0.04705,-0.059277 0.09785,-0.1154472 0.15204,-0.1681517 l 0,3e-7 c 0.05162,-0.050452 0.106455,-0.097626 0.164174,-0.1411827 l 5e-6,5e-6 c 0.05887,-0.044664 0.120881,-0.085411 0.185635,-0.1218541 l 1.3e-5,1.24e-5 c 0.07351,-0.041703 0.150746,-0.077606 0.23108,-0.1070865 l 9e-6,7.3e-6 c 0.165535,-0.061431 0.344608,-0.094996 0.53152,-0.094996 0.187011,0 0.366174,0.0336 0.531781,0.095093 l 2e-5,-4.5e-6 c 0.08027,0.029474 0.157443,0.06536 0.2309,0.1070389 l 1.9e-5,-9.1e-6 c 0.06473,0.036433 0.126709,0.077167 0.185559,0.121815 l 6e-6,-3.8e-6 c 0.05771,0.043552 0.11254,0.09072 0.164151,0.1411658 l 10e-7,-3e-7 c 0.05419,0.052709 0.104994,0.1088841 0.152051,0.1681671 l 0,2e-7 c 0.05294,0.066341 0.10136,0.1364428 0.144803,0.2098407 l 6e-6,-4.8e-6 c 0.05454,0.091528 0.101643,0.1879998 0.140485,0.2885817 l 3.1e-5,-3.55e-5 c 0.08894,0.2306808 0.137693,0.4813248 0.137693,0.743356 0,0.2621564 -0.0488,0.5129147 -0.137814,0.7436862 l -2.2e-5,-6.14e-5 c -0.03883,0.1005061 -0.08592,0.1969065 -0.140423,0.2883701 l -4e-6,-6.3e-6 c -0.04343,0.07337 -0.09184,0.1434471 -0.144762,0.209765 l 0,4e-7 c -0.04705,0.059277 -0.09785,0.1154471 -0.152039,0.1681516 l 0,-3e-7 c -0.02848,0.027808 -0.05794,0.054618 -0.08832,0.080374 l 5.1e-5,-7.49e-5 c 0.05015,0.039176 0.09824,0.080873 0.144072,0.1249025 l 10e-7,-7e-7 c 0.06253,0.059616 0.121158,0.1232774 0.17548,0.1905644 l 0,7e-7 c 0.06352,0.077971 0.121625,0.1605306 0.173738,0.2471049 l 10e-6,-9.1e-6 c 0.06844,0.1123485 0.127495,0.2310349 0.176095,0.3549727 l 7.3e-5,-8.23e-5 c 0.117095,0.2998077 0.181364,0.6260696 0.181364,0.9673422 0,0.3414301 -0.06433,0.6678355 -0.181526,0.9677576 l -5.1e-5,-1.416e-4 c -0.04859,0.1238465 -0.107621,0.2424476 -0.176017,0.3547187 l -8e-6,-1.18e-5 c -0.0521,0.086544 -0.110189,0.169075 -0.17369,0.2470208 l 0,9e-7 c -0.05432,0.067282 -0.112948,0.1309384 -0.175469,0.1905501 l -1e-6,-1e-6 c -0.05756,0.055336 -0.118688,0.1069933 -0.182998,0.1545931 l -8e-6,-9.5e-6 c -0.06363,0.047506 -0.130617,0.090771 -0.200535,0.1293735 l -2.2e-5,-2.14e-5 c -0.07721,0.043175 -0.158295,0.080247 -0.242604,0.1105623 l -1.4e-5,-1.18e-5 c -0.169029,0.061861 -0.351601,0.09562 -0.542057,0.09562 -0.19056,0 -0.373226,-0.033796 -0.542332,-0.095721 l -3.2e-5,7.3e-6 c -0.08424,-0.030309 -0.165261,-0.067364 -0.242411,-0.1105132 l -3.5e-5,1.55e-5 c -0.06989,-0.038592 -0.136842,-0.081842 -0.200447,-0.1293305 l -1.2e-5,7.3e-6 c -0.0643,-0.047594 -0.125416,-0.099244 -0.18297,-0.1545723 l -10e-7,7e-7 c -0.06253,-0.059616 -0.121158,-0.1232774 -0.17548,-0.1905644 l 0,-6e-7 c -0.06352,-0.077971 -0.121625,-0.1605307 -0.173738,-0.2471049 l -1.3e-5,1.2e-5 c -0.03007,-0.049557 -0.05832,-0.1003431 -0.08466,-0.1522645 l 3.03e-4,-3.145e-4 c -0.02589,-0.050946 -0.04048,-0.1085971 -0.04048,-0.1696572 0,-0.2071067 0.167893,-0.3749999 0.375,-0.3749999 0.129896,0 0.244366,0.066045 0.311663,0.1663856 l -2.96e-4,3.12e-4 c 0.02661,0.057533 0.05666,0.1129494 0.0899,0.1660796 l 1.1e-5,-1.01e-5 c 0.03395,0.055087 0.07176,0.1074578 0.113077,0.1567773 l -1e-6,8e-7 c 0.03355,0.040609 0.06974,0.078949 0.108298,0.1147624 l 2e-6,-1.1e-6 c 0.03401,0.031975 0.0701,0.061765 0.108017,0.089135 l 1.1e-5,-6.6e-6 c 0.03622,0.026475 0.07431,0.050525 0.113958,0.07189 l 2.9e-5,-1.25e-5 c 0.04258,0.023358 0.0872,0.043327 0.133405,0.059525 l 2.4e-5,-5.5e-6 c 0.09044,0.032494 0.187762,0.050169 0.289214,0.050169 0.10151,0 0.198887,-0.017695 0.289061,-0.050114 l 10e-6,8.7e-6 c 0.0465,-0.016312 0.09109,-0.036272 0.133513,-0.059551 l 1.9e-5,1.73e-5 c 0.03977,-0.021432 0.07784,-0.045474 0.114011,-0.071915 l 8e-6,8.7e-6 c 0.03795,-0.027394 0.07403,-0.05718 0.108035,-0.089148 l 2e-6,1.5e-6 c 0.03857,-0.035817 0.07475,-0.074159 0.108293,-0.1147563 l -1e-6,-1.1e-6 c 0.04134,-0.049348 0.07916,-0.1017355 0.113048,-0.1567281 l 7e-6,1.03e-5 c 0.04763,-0.075837 0.08866,-0.1561551 0.12224,-0.239991 l 6.3e-5,1.702e-4 c 0.08825,-0.2223843 0.136691,-0.4645413 0.136691,-0.7180126 0,-0.2535834 -0.04848,-0.4958425 -0.136574,-0.7177178 l -9e-5,9.94e-5 c -0.03375,-0.084224 -0.07476,-0.1644862 -0.122293,-0.2401567 l -9e-6,8e-6 c -0.03395,-0.055087 -0.07176,-0.1074578 -0.113077,-0.1567773 l 10e-7,-8e-7 c -0.03355,-0.040609 -0.06974,-0.078949 -0.108298,-0.1147624 l -2e-6,1.1e-6 c -0.03401,-0.031975 -0.0701,-0.061765 -0.108017,-0.089135 l -1.1e-5,6.6e-6 c -0.03622,-0.026475 -0.07431,-0.050525 -0.113958,-0.07189 l -2.9e-5,1.25e-5 c -0.04258,-0.023358 -0.0872,-0.043327 -0.133405,-0.059525 l -2.4e-5,5.4e-6 c -0.09044,-0.032494 -0.187762,-0.050169 -0.289214,-0.050169" />
  <path
     inkscape:connector-curvature="0"
     id="path16"
     style="stroke:#000000;stroke-width:0;fill:#000000;fill-opacity:1"
     d="m 12.7335,-2.1161205 c 0,0.2071067 0.167893,0.3749999 0.375,0.3749999 l 3,0 c 0.207107,0 0.375,-0.1678932 0.375,-0.3749999 0,-0.2071068 -0.167893,-0.375 -0.375,-0.375 l -2.625,0 0,-0.699301 c 0,-0.2071067 0.08395,-0.3946067 0.21967,-0.53033 l 2.212849,-2.2128493 0,0 C 16.266638,-6.2842193 16.4835,-6.7685942 16.4835,-7.30362 c 0,-1.0700516 -0.867448,-1.9374998 -1.9375,-1.9374998 -0.80039,0 -1.487425,0.48533 -1.782762,1.1775023 l 2.11e-4,5.288e-4 c -0.01929,0.045201 -0.02995,0.094904 -0.02995,0.1470963 0,0.2071068 0.167893,0.375 0.375,0.375 0.154914,0 0.287889,-0.093935 0.345051,-0.2279037 l -2.12e-4,-5.288e-4 c 0.181116,-0.4243072 0.602159,-0.721695 1.092661,-0.721695 0.655838,0 1.1875,0.5316618 1.1875,1.1874999 0,0.327919 -0.132916,0.624794 -0.347811,0.8396892 l -2.212849,2.2128493 0,0 c -0.271447,0.2714465 -0.43934,0.6464465 -0.43934,1.06066 z" />
  <path
     style="fill:#000000;fill-opacity:1;stroke:#000000;stroke-width:0"
     d="M 94.40625 20.597656 C 93.87919 20.597656 93.418096 20.883091 93.171875 21.308594 L 85.490234 34.613281 C 85.305345 34.932803 85.199219 35.303654 85.199219 35.699219 C 85.199219 36.898299 86.17201 37.871094 87.371094 37.871094 L 93.171875 37.871094 L 93.171875 45.84375 C 93.171875 46.577593 93.768109 47.171875 94.501953 47.171875 C 95.235797 47.171875 95.830078 46.577593 95.830078 45.84375 L 95.830078 37.871094 L 97.158203 37.871094 C 97.892047 37.871094 98.486328 37.274859 98.486328 36.541016 C 98.486328 35.807173 97.892047 35.212891 97.158203 35.212891 L 95.830078 35.212891 L 95.830078 22.021484 C 95.830078 21.234954 95.192783 20.597656 94.40625 20.597656 z M 93.171875 26.623047 L 93.171875 35.212891 L 88.212891 35.212891 L 93.171875 26.623047 z "
     transform="matrix(0.2822222,0,0,0.28222222,0,-15)"
     id="path18" />
  <path
     inkscape:connector-curvature="0"
     id="path22"
     style="stroke:#000000;stroke-width:0;fill:#000000;fill-opacity:1"
     d="m 45.229603,-9.1871293 c 0.300742,0 0.544541,0.2437995 0.544541,0.5445415 0,0.072767 -0.01427,0.1422011 -0.04017,0.2056543 l -0.0025,-0.00643 c -0.805198,1.9736675 -1.25721,4.12597 -1.278836,6.3803392 l 9e-6,8.943e-4 c 0,0.2071068 -0.167893,0.375 -0.375,0.375 -0.207107,0 -0.375,-0.1678932 -0.375,-0.375 0,-2.2620911 0.4552,-4.4178647 1.278997,-6.3807178 l -2.560247,0.00572 c -0.207107,0 -0.375,-0.1678932 -0.375,-0.375 0,-0.2071068 0.167893,-0.375 0.375,-0.375 z" />
  <path
     style="fill:#000000;fill-opacity:1;stroke:#000000;stroke-width:0"
     d="M 175.99219 20.597656 C 175.32955 20.597656 174.69524 20.716049 174.10938 20.933594 C 173.824 21.038384 173.54902 21.165002 173.28906 21.3125 C 173.05939 21.441788 172.84126 21.585995 172.63281 21.744141 C 172.42826 21.898523 172.23365 22.065396 172.05078 22.244141 C 171.85877 22.430905 171.67841 22.629841 171.51172 22.839844 C 171.3241 23.074963 171.15179 23.324236 170.99805 23.583984 C 170.80462 23.908626 170.63916 24.250154 170.50195 24.605469 C 170.18639 25.42401 170.01367 26.311777 170.01367 27.240234 C 170.01367 28.169134 170.18505 29.058476 170.5 29.875 C 170.63801 30.232202 170.80513 30.572729 170.99805 30.896484 C 171.15215 31.156783 171.32427 31.405695 171.51172 31.640625 C 171.6785 31.850718 171.85876 32.049581 172.05078 32.236328 C 172.15169 32.33486 172.25567 32.430244 172.36328 32.521484 C 172.18551 32.660347 172.01591 32.806883 171.85352 32.962891 C 171.63199 33.174128 171.42291 33.400307 171.23047 33.638672 C 171.00536 33.915 170.79967 34.207263 170.61523 34.513672 C 170.37283 34.911612 170.16377 35.334193 169.99219 35.771484 C 169.57714 36.834794 169.34766 37.990636 169.34766 39.199219 C 169.34766 40.40901 169.57555 41.565707 169.99023 42.626953 L 169.99219 42.626953 C 170.16485 43.067039 170.37311 43.487314 170.61523 43.884766 C 170.80005 44.191765 171.00551 44.483632 171.23047 44.759766 C 171.42298 44.99822 171.63199 45.224327 171.85352 45.435547 C 172.05747 45.631623 172.27419 45.813836 172.50195 45.982422 C 172.72752 46.150818 172.9636 46.304845 173.21094 46.441406 C 173.48487 46.594587 173.77262 46.724987 174.07031 46.832031 C 174.67021 47.051582 175.31734 47.171875 175.99219 47.171875 C 176.6674 47.171875 177.31389 47.051093 177.91211 46.832031 C 178.21163 46.724265 178.50043 46.594099 178.77344 46.441406 C 179.02147 46.304443 179.25714 46.150621 179.48242 45.982422 C 179.71036 45.813707 179.92693 45.631591 180.13086 45.435547 C 180.35242 45.224306 180.56147 44.998131 180.75391 44.759766 C 180.97901 44.483437 181.1847 44.191175 181.36914 43.884766 C 181.61155 43.486825 181.8206 43.066197 181.99219 42.628906 L 181.99219 42.626953 C 182.40724 41.563644 182.63672 40.407802 182.63672 39.199219 C 182.63672 37.989427 182.40883 36.83273 181.99414 35.771484 L 181.99219 35.771484 C 181.81952 35.331398 181.61127 34.911123 181.36914 34.513672 C 181.18432 34.206669 180.97887 33.914805 180.75391 33.638672 C 180.5614 33.400218 180.35239 33.174111 180.13086 32.962891 C 179.96843 32.806861 179.79876 32.66026 179.62109 32.521484 C 179.72877 32.430209 179.83268 32.334853 179.93359 32.236328 C 180.12561 32.049564 180.30596 31.850628 180.47266 31.640625 C 180.66027 31.405505 180.83259 31.156233 180.98633 30.896484 C 181.17976 30.571843 181.34521 30.230315 181.48242 29.875 C 181.79799 29.056459 181.9707 28.168692 181.9707 27.240234 C 181.9707 26.311334 181.79932 25.423946 181.48438 24.607422 C 181.34636 24.25022 181.17924 23.90774 180.98633 23.583984 C 180.83223 23.323686 180.66014 23.074774 180.47266 22.839844 C 180.30587 22.62975 180.12561 22.430888 179.93359 22.244141 C 179.75069 22.06537 179.556 21.898415 179.35156 21.744141 C 179.1429 21.585826 178.92441 21.441434 178.69531 21.3125 C 178.43453 21.164549 178.16064 21.037699 177.87695 20.933594 C 177.28949 20.715581 176.65448 20.597656 175.99219 20.597656 z M 175.99219 23.253906 C 176.32961 23.253906 176.65319 23.314053 176.95312 23.423828 C 177.10197 23.47735 177.24586 23.542548 177.38281 23.619141 C 177.50649 23.68742 177.6255 23.76541 177.73828 23.849609 C 177.85216 23.933901 177.96052 24.025011 178.0625 24.123047 C 178.17326 24.228655 178.27678 24.341712 178.37305 24.460938 C 178.48555 24.599003 178.58728 24.744938 178.67969 24.898438 C 178.80076 25.097162 178.90587 25.307301 178.99219 25.527344 C 179.19954 26.057967 179.31445 26.635338 179.31445 27.240234 C 179.31445 27.844851 179.19993 28.423187 178.99219 28.955078 C 178.90633 29.174023 178.80105 29.384762 178.67969 29.583984 C 178.58746 29.737188 178.48562 29.88332 178.37305 30.021484 C 178.27685 30.140667 178.17326 30.253756 178.0625 30.359375 C 177.96052 30.457397 177.85223 30.548454 177.73828 30.632812 C 177.62565 30.716913 177.50683 30.792847 177.38281 30.861328 C 177.24632 30.937672 177.1029 31.002758 176.95312 31.056641 C 176.65403 31.166171 176.32979 31.226563 175.99219 31.226562 C 175.65477 31.226562 175.33119 31.166416 175.03125 31.056641 C 174.88241 31.003115 174.73855 30.93792 174.60156 30.861328 C 174.47789 30.793049 174.35888 30.717012 174.24609 30.632812 C 174.13221 30.548522 174.02384 30.457411 173.92188 30.359375 C 173.81111 30.253767 173.7076 30.14071 173.61133 30.021484 C 173.49883 29.883418 173.3971 29.737484 173.30469 29.583984 C 173.18361 29.385259 173.0785 29.175121 172.99219 28.955078 C 172.78483 28.424455 172.66992 27.84513 172.66992 27.240234 C 172.66992 26.635617 172.78441 26.057284 172.99219 25.525391 C 173.07804 25.306446 173.18333 25.097659 173.30469 24.898438 C 173.39688 24.745234 173.49876 24.599101 173.61133 24.460938 C 173.70753 24.341755 173.81111 24.228666 173.92188 24.123047 C 174.02384 24.025028 174.13214 23.933968 174.24609 23.849609 C 174.35872 23.765509 174.47755 23.687622 174.60156 23.619141 C 174.73805 23.542797 174.88147 23.477711 175.03125 23.423828 C 175.33036 23.314297 175.65458 23.253906 175.99219 23.253906 z M 175.99219 33.884766 C 176.35166 33.884766 176.69712 33.947364 177.01758 34.0625 C 177.1813 34.119894 177.33936 34.190673 177.49023 34.273438 C 177.63072 34.34914 177.76619 34.433535 177.89453 34.527344 C 178.02888 34.624324 178.15684 34.730453 178.27734 34.84375 C 178.41397 34.970648 178.54128 35.10611 178.66016 35.25 C 178.80656 35.424754 178.94025 35.609497 179.06055 35.804688 C 179.22897 36.072811 179.37455 36.357819 179.49414 36.65625 C 179.80628 37.442422 179.97852 38.300695 179.97852 39.199219 C 179.97852 40.096697 179.80641 40.954679 179.49414 41.742188 L 179.49414 41.744141 C 179.37528 42.040611 179.22901 42.325526 179.06055 42.59375 C 178.94047 42.788606 178.80664 42.973582 178.66016 43.148438 C 178.5413 43.292286 178.41401 43.427777 178.27734 43.554688 C 178.15685 43.66796 178.029 43.774028 177.89453 43.871094 C 177.76637 43.964782 177.63115 44.04906 177.49023 44.125 C 177.33988 44.207485 177.18039 44.278139 177.01562 44.335938 C 176.69611 44.450808 176.35187 44.513672 175.99219 44.513672 C 175.63271 44.513672 175.28725 44.451074 174.9668 44.335938 C 174.80308 44.278543 174.64501 44.207765 174.49414 44.125 C 174.35366 44.049297 174.21818 43.964903 174.08984 43.871094 C 173.95549 43.774113 173.82754 43.667985 173.70703 43.554688 C 173.57041 43.42779 173.4431 43.292328 173.32422 43.148438 C 173.17782 42.973683 173.04412 42.78894 172.92383 42.59375 C 172.7554 42.325626 172.60982 42.040619 172.49023 41.742188 C 172.17809 40.956016 172.00586 40.097743 172.00586 39.199219 C 172.00586 38.301742 172.17797 37.443761 172.49023 36.65625 C 172.60909 36.35978 172.75537 36.072912 172.92383 35.804688 C 173.0439 35.609831 173.17774 35.424855 173.32422 35.25 C 173.44307 35.106152 173.57037 34.970661 173.70703 34.84375 C 173.82752 34.730478 173.95538 34.624409 174.08984 34.527344 C 174.21801 34.433659 174.35322 34.349381 174.49414 34.273438 C 174.64449 34.190953 174.80399 34.120298 174.96875 34.0625 C 175.28826 33.94763 175.63251 33.884766 175.99219 33.884766 z "
     transform="matrix(0.2822222,0,0,0.28222222,0,-15)"
     id="path24" />
  <path
     style="fill:#000000;fill-opacity:1;stroke:#000000;stroke-width:0"
     d="M 196.69727 20.597656 C 196.06203 20.597656 195.45226 20.707692 194.88867 20.912109 C 194.60188 21.013926 194.32795 21.138373 194.06641 21.283203 C 193.82472 21.414965 193.59272 21.5624 193.37305 21.724609 C 193.14645 21.89016 192.93141 22.070865 192.72852 22.263672 C 192.50305 22.475739 192.29166 22.701544 192.0957 22.941406 C 191.86018 23.226359 191.64415 23.528912 191.45117 23.845703 C 191.18892 24.269526 190.96263 24.72037 190.77734 25.1875 C 190.31061 26.373016 190.05273 27.662294 190.05273 29.011719 C 190.05273 30.362402 190.30911 31.652717 190.77539 32.835938 L 190.77734 32.835938 C 190.96372 33.305917 191.18921 33.754402 191.45117 34.177734 C 191.64453 34.495101 191.86032 34.797257 192.0957 35.082031 C 192.29172 35.321973 192.50306 35.549673 192.72852 35.761719 C 192.93144 35.95456 193.14662 36.133417 193.37305 36.298828 C 193.59302 36.461239 193.82347 36.608878 194.06445 36.740234 L 194.06641 36.740234 C 194.32886 36.885542 194.60368 37.01021 194.88867 37.111328 C 195.45387 37.316209 196.06238 37.427734 196.69727 37.427734 C 197.3325 37.427734 197.94227 37.315742 198.50586 37.111328 C 198.79265 37.009511 199.06658 36.885064 199.32812 36.740234 C 199.56981 36.608473 199.80181 36.461038 200.02148 36.298828 C 200.24808 36.133278 200.46313 35.954526 200.66602 35.761719 C 200.67168 35.756262 200.67792 35.749597 200.68359 35.744141 L 200.68359 38.755859 C 200.68359 39.561736 200.53031 40.334962 200.25391 41.042969 C 200.13926 41.334925 199.99915 41.614195 199.83789 41.878906 C 199.7148 42.08332 199.57773 42.278767 199.42773 42.462891 C 199.29943 42.621826 199.16136 42.773247 199.01367 42.914062 C 198.87772 43.044779 198.73393 43.166857 198.58203 43.279297 C 198.43172 43.391517 198.27257 43.492797 198.10742 43.583984 C 197.92505 43.685971 197.73431 43.774093 197.53516 43.845703 C 197.13588 43.991829 196.7038 44.070313 196.25391 44.070312 C 195.80376 44.070312 195.37212 43.991981 194.97266 43.845703 C 194.77366 43.774107 194.58263 43.685911 194.40039 43.583984 C 194.23531 43.492822 194.07798 43.391474 193.92773 43.279297 C 193.77583 43.166871 193.6301 43.044758 193.49414 42.914062 C 193.34646 42.773237 193.20841 42.621836 193.08008 42.462891 C 192.93002 42.278706 192.79303 42.083412 192.66992 41.878906 C 192.65433 41.853359 192.63807 41.828544 192.62305 41.802734 C 192.3775 41.51103 192.01073 41.324219 191.59961 41.324219 C 190.86035 41.324219 190.25977 41.922849 190.25977 42.662109 C 190.25977 42.921037 190.35122 43.152575 190.47852 43.357422 C 190.63554 43.606985 190.79707 43.852946 190.98047 44.082031 C 191.17953 44.332136 191.39387 44.568829 191.62305 44.791016 C 191.84015 45.002636 192.07183 45.2003 192.31445 45.382812 C 192.56085 45.569254 192.81939 45.738895 193.08984 45.890625 C 193.39627 46.064056 193.7175 46.214048 194.05078 46.335938 C 194.73764 46.590258 195.47984 46.728516 196.25391 46.728516 C 197.02838 46.728516 197.77009 46.589712 198.45508 46.335938 C 198.79035 46.213247 199.11254 46.06352 199.41797 45.890625 C 199.68914 45.738472 199.94919 45.569051 200.19531 45.382812 C 200.4381 45.200173 200.6677 45.002607 200.88477 44.791016 C 201.11398 44.568808 201.32836 44.332032 201.52734 44.082031 C 201.7527 43.800562 201.95987 43.502546 202.14453 43.191406 C 202.3785 42.800126 202.5802 42.389466 202.74609 41.960938 C 203.13056 40.965829 203.3418 39.884995 203.3418 38.755859 L 203.3418 29.011719 C 203.3418 27.661035 203.08347 26.37072 202.61719 25.1875 C 202.43081 24.71752 202.20532 24.269036 201.94336 23.845703 C 201.75 23.528336 201.53421 23.22618 201.29883 22.941406 C 201.10281 22.701464 200.89147 22.475717 200.66602 22.263672 C 200.46309 22.070831 200.24792 21.890021 200.02148 21.724609 C 199.80152 21.562198 199.56911 21.41456 199.32812 21.283203 C 199.06567 21.137896 198.79085 21.015181 198.50586 20.914062 C 197.94066 20.709181 197.33215 20.597656 196.69727 20.597656 z M 190.47852 43.357422 C 190.45255 43.316154 190.41974 43.280081 190.39453 43.238281 L 190.57422 43.523438 C 190.53324 43.474651 190.51229 43.411774 190.47852 43.357422 z M 196.69727 23.253906 C 197.02566 23.253906 197.34145 23.310063 197.63477 23.414062 C 197.78715 23.466574 197.93358 23.531347 198.07422 23.607422 C 198.20766 23.6781 198.33692 23.757843 198.45898 23.845703 C 198.58977 23.938417 198.71457 24.039807 198.83203 24.148438 C 198.96913 24.273372 199.09735 24.408688 199.2168 24.550781 C 199.36959 24.729444 199.50919 24.918915 199.63477 25.119141 C 199.8201 25.407454 199.98008 25.712942 200.11133 26.035156 C 200.47996 26.954492 200.68359 27.959274 200.68359 29.011719 C 200.68359 30.063061 200.4802 31.067357 200.11133 31.988281 L 200.11133 31.990234 C 199.98081 32.310464 199.82012 32.617845 199.63477 32.90625 C 199.50939 33.106162 199.36969 33.29586 199.2168 33.474609 C 199.09739 33.616668 198.96916 33.750049 198.83203 33.875 C 198.7146 33.983602 198.58987 34.084925 198.45898 34.177734 C 198.33709 34.26547 198.20808 34.345096 198.07422 34.416016 C 197.93412 34.491825 197.7862 34.556484 197.63281 34.609375 C 197.34037 34.713127 197.02587 34.769531 196.69727 34.769531 C 196.36887 34.769531 196.05308 34.713375 195.75977 34.609375 C 195.60735 34.556863 195.46095 34.49209 195.32031 34.416016 C 195.18688 34.345337 195.05761 34.265594 194.93555 34.177734 C 194.80476 34.08502 194.67996 33.983631 194.5625 33.875 C 194.4254 33.750065 194.29718 33.616703 194.17773 33.474609 C 194.02494 33.295947 193.88534 33.106475 193.75977 32.90625 C 193.57443 32.617937 193.41445 32.310492 193.2832 31.988281 C 192.91457 31.068946 192.71094 30.064163 192.71094 29.011719 C 192.71094 27.960376 192.91433 26.956082 193.2832 26.035156 C 193.41372 25.714927 193.57441 25.407545 193.75977 25.119141 C 193.88515 24.919228 194.02484 24.72953 194.17773 24.550781 C 194.29714 24.408723 194.42537 24.273389 194.5625 24.148438 C 194.67993 24.039835 194.80466 23.938513 194.93555 23.845703 C 195.05744 23.757971 195.18645 23.678341 195.32031 23.607422 C 195.46041 23.531613 195.60638 23.466953 195.75977 23.414062 C 196.05221 23.310311 196.36866 23.253906 196.69727 23.253906 z "
     transform="matrix(0.2822222,0,0,0.28222222,0,-15)"
     id="path30" />
  <path
     style="fill:#000000;fill-opacity:1;stroke:#000000;stroke-width:0"
     d="M 10.351562 20.40625 L 10.189453 20.410156 L 10.027344 20.421875 L 9.8632812 20.441406 L 9.7011719 20.46875 L 9.5390625 20.505859 L 9.3769531 20.548828 L 9.2167969 20.601562 L 9.0566406 20.660156 L 8.8964844 20.728516 L 8.7382812 20.802734 L 8.5800781 20.886719 L 8.4238281 20.978516 L 8.2675781 21.076172 L 8.1152344 21.181641 L 7.9609375 21.294922 L 7.8105469 21.416016 L 7.6601562 21.544922 L 7.5117188 21.681641 L 7.3652344 21.824219 L 7.2207031 21.974609 L 7.078125 22.130859 L 6.9375 22.294922 L 6.7988281 22.466797 L 6.6621094 22.644531 L 6.5273438 22.830078 L 6.3945312 23.019531 L 6.265625 23.21875 L 6.1386719 23.421875 L 6.0136719 23.630859 L 5.890625 23.847656 L 5.7714844 24.070312 L 5.6542969 24.296875 L 5.5410156 24.53125 L 5.4296875 24.769531 L 5.3222656 25.013672 L 5.2167969 25.263672 L 5.1152344 25.517578 L 5.015625 25.777344 L 4.9199219 26.041016 L 4.828125 26.310547 L 4.7402344 26.583984 L 4.6542969 26.861328 L 4.5722656 27.142578 L 4.4941406 27.429688 L 4.4179688 27.71875 L 4.3457031 28.011719 L 4.2792969 28.308594 L 4.2148438 28.607422 L 4.1542969 28.910156 L 4.0976562 29.216797 L 4.0449219 29.525391 L 3.9941406 29.835938 L 3.9492188 30.148438 L 3.9082031 30.464844 L 3.8710938 30.78125 L 3.8359375 31.101562 L 3.8066406 31.421875 L 3.78125 31.744141 L 3.7578125 32.066406 L 3.7402344 32.390625 L 3.7265625 32.714844 L 3.7167969 33.041016 L 3.7109375 33.367188 L 3.7089844 33.693359 L 3.7109375 34.019531 L 3.7167969 34.345703 L 3.7265625 34.669922 L 3.7402344 34.996094 L 3.7578125 35.320312 L 3.78125 35.642578 L 3.8066406 35.964844 L 3.8359375 36.285156 L 3.8710938 36.603516 L 3.9082031 36.921875 L 3.9492188 37.236328 L 3.9941406 37.550781 L 4.0449219 37.861328 L 4.0976562 38.169922 L 4.1542969 38.474609 L 4.2148438 38.777344 L 4.2792969 39.078125 L 4.3457031 39.373047 L 4.4179688 39.667969 L 4.4941406 39.957031 L 4.5722656 40.242188 L 4.6542969 40.523438 L 4.7402344 40.800781 L 4.828125 41.074219 L 4.9199219 41.34375 L 5.015625 41.607422 L 5.1152344 41.867188 L 5.2167969 42.123047 L 5.3222656 42.371094 L 5.4296875 42.615234 L 5.5410156 42.855469 L 5.6542969 43.087891 L 5.7714844 43.316406 L 5.890625 43.539062 L 6.0136719 43.753906 L 6.1386719 43.964844 L 6.265625 44.167969 L 6.3945312 44.365234 L 6.5273438 44.556641 L 6.6621094 44.740234 L 6.7988281 44.917969 L 6.9375 45.089844 L 7.078125 45.253906 L 7.2207031 45.412109 L 7.3652344 45.560547 L 7.5117188 45.705078 L 7.6601562 45.839844 L 7.8105469 45.96875 L 7.9609375 46.089844 L 8.1152344 46.203125 L 8.2675781 46.310547 L 8.4238281 46.408203 L 8.5800781 46.498047 L 8.7382812 46.582031 L 8.8964844 46.658203 L 9.0566406 46.724609 L 9.2167969 46.785156 L 9.3769531 46.835938 L 9.5390625 46.880859 L 9.7011719 46.916016 L 9.8632812 46.943359 L 10.027344 46.964844 L 10.189453 46.976562 L 10.351562 46.980469 L 10.515625 46.976562 L 10.677734 46.964844 L 10.841797 46.943359 L 11.003906 46.916016 L 11.166016 46.880859 L 11.328125 46.835938 L 11.488281 46.785156 L 11.648438 46.724609 L 11.808594 46.658203 L 11.966797 46.582031 L 12.125 46.498047 L 12.28125 46.408203 L 12.435547 46.310547 L 12.589844 46.203125 L 12.744141 46.089844 L 12.894531 45.96875 L 13.044922 45.839844 L 13.193359 45.705078 L 13.339844 45.560547 L 13.484375 45.412109 L 13.626953 45.253906 L 13.767578 45.089844 L 13.90625 44.917969 L 14.042969 44.740234 L 14.177734 44.556641 L 14.310547 44.365234 L 14.439453 44.167969 L 14.566406 43.964844 L 14.691406 43.753906 L 14.814453 43.539062 L 14.933594 43.316406 L 15.050781 43.087891 L 15.164062 42.855469 L 15.275391 42.615234 L 15.382812 42.371094 L 15.488281 42.123047 L 15.589844 41.867188 L 15.689453 41.607422 L 15.785156 41.34375 L 15.876953 41.074219 L 15.964844 40.800781 L 16.050781 40.523438 L 16.132812 40.242188 L 16.210938 39.957031 L 16.287109 39.667969 L 16.357422 39.373047 L 16.425781 39.078125 L 16.490234 38.777344 L 16.550781 38.474609 L 16.607422 38.169922 L 16.660156 37.861328 L 16.710938 37.550781 L 16.755859 37.236328 L 16.796875 36.921875 L 16.833984 36.603516 L 16.869141 36.285156 L 16.898438 35.964844 L 16.923828 35.642578 L 16.945312 35.320312 L 16.964844 34.996094 L 16.978516 34.669922 L 16.988281 34.345703 L 16.994141 34.019531 L 16.996094 33.693359 L 16.994141 33.367188 L 16.988281 33.041016 L 16.978516 32.714844 L 16.964844 32.390625 L 16.945312 32.066406 L 16.923828 31.744141 L 16.898438 31.421875 L 16.869141 31.101562 L 16.833984 30.78125 L 16.796875 30.464844 L 16.755859 30.148438 L 16.710938 29.835938 L 16.660156 29.525391 L 16.607422 29.216797 L 16.550781 28.910156 L 16.490234 28.607422 L 16.425781 28.308594 L 16.357422 28.011719 L 16.287109 27.71875 L 16.210938 27.429688 L 16.132812 27.142578 L 16.050781 26.861328 L 15.964844 26.583984 L 15.876953 26.310547 L 15.785156 26.041016 L 15.689453 25.777344 L 15.589844 25.517578 L 15.488281 25.263672 L 15.382812 25.013672 L 15.275391 24.769531 L 15.164062 24.53125 L 15.050781 24.296875 L 14.933594 24.070312 L 14.814453 23.847656 L 14.691406 23.630859 L 14.566406 23.421875 L 14.439453 23.21875 L 14.310547 23.019531 L 14.177734 22.830078 L 14.042969 22.644531 L 13.90625 22.466797 L 13.767578 22.294922 L 13.626953 22.130859 L 13.484375 21.974609 L 13.339844 21.824219 L 13.193359 21.681641 L 13.044922 21.544922 L 12.894531 21.416016 L 12.744141 21.294922 L 12.589844 21.181641 L 12.435547 21.076172 L 12.28125 20.978516 L 12.125 20.886719 L 11.966797 20.802734 L 11.808594 20.728516 L 11.648438 20.660156 L 11.488281 20.601562 L 11.328125 20.548828 L 11.166016 20.505859 L 11.003906 20.46875 L 10.841797 20.441406 L 10.677734 20.421875 L 10.515625 20.410156 L 10.351562 20.40625 z M 10.351562 23.0625 L 10.451172 23.066406 L 10.548828 23.076172 L 10.646484 23.091797 L 10.744141 23.113281 L 10.839844 23.142578 L 10.9375 23.177734 L 11.033203 23.21875 L 11.130859 23.267578 L 11.226562 23.320312 L 11.320312 23.380859 L 11.416016 23.447266 L 11.509766 23.521484 L 11.603516 23.599609 L 11.695312 23.683594 L 11.787109 23.775391 L 11.878906 23.871094 L 11.96875 23.974609 L 12.056641 24.083984 L 12.144531 24.197266 L 12.232422 24.318359 L 12.316406 24.443359 L 12.402344 24.576172 L 12.484375 24.712891 L 12.566406 24.853516 L 12.648438 25.001953 L 12.726562 25.154297 L 12.804688 25.3125 L 12.880859 25.476562 L 12.957031 25.644531 L 13.029297 25.816406 L 13.101562 25.994141 L 13.171875 26.175781 L 13.240234 26.363281 L 13.306641 26.554688 L 13.371094 26.75 L 13.433594 26.949219 L 13.494141 27.152344 L 13.554688 27.361328 L 13.611328 27.572266 L 13.666016 27.787109 L 13.720703 28.005859 L 13.771484 28.228516 L 13.820312 28.453125 L 13.867188 28.681641 L 13.912109 28.914062 L 13.955078 29.148438 L 13.996094 29.384766 L 14.035156 29.625 L 14.072266 29.867188 L 14.105469 30.111328 L 14.136719 30.359375 L 14.167969 30.607422 L 14.193359 30.857422 L 14.21875 31.109375 L 14.242188 31.363281 L 14.261719 31.619141 L 14.279297 31.875 L 14.294922 32.132812 L 14.308594 32.392578 L 14.320312 32.650391 L 14.328125 32.910156 L 14.333984 33.171875 L 14.337891 33.431641 L 14.337891 33.693359 L 14.337891 33.953125 L 14.333984 34.214844 L 14.328125 34.474609 L 14.320312 34.734375 L 14.308594 34.994141 L 14.294922 35.251953 L 14.279297 35.509766 L 14.261719 35.767578 L 14.242188 36.021484 L 14.21875 36.275391 L 14.193359 36.527344 L 14.167969 36.779297 L 14.136719 37.027344 L 14.105469 37.273438 L 14.072266 37.517578 L 14.035156 37.759766 L 13.996094 38 L 13.955078 38.238281 L 13.912109 38.472656 L 13.867188 38.703125 L 13.820312 38.931641 L 13.771484 39.158203 L 13.720703 39.378906 L 13.666016 39.597656 L 13.611328 39.814453 L 13.554688 40.025391 L 13.494141 40.232422 L 13.433594 40.435547 L 13.371094 40.636719 L 13.306641 40.832031 L 13.240234 41.023438 L 13.171875 41.208984 L 13.101562 41.390625 L 13.029297 41.568359 L 12.957031 41.742188 L 12.880859 41.910156 L 12.804688 42.072266 L 12.726562 42.230469 L 12.648438 42.382812 L 12.566406 42.53125 L 12.484375 42.673828 L 12.402344 42.810547 L 12.316406 42.941406 L 12.232422 43.068359 L 12.144531 43.1875 L 12.056641 43.302734 L 11.96875 43.410156 L 11.878906 43.513672 L 11.787109 43.611328 L 11.695312 43.701172 L 11.603516 43.787109 L 11.509766 43.865234 L 11.416016 43.9375 L 11.320312 44.003906 L 11.226562 44.064453 L 11.130859 44.119141 L 11.033203 44.166016 L 10.9375 44.207031 L 10.839844 44.242188 L 10.744141 44.271484 L 10.646484 44.294922 L 10.548828 44.310547 L 10.451172 44.320312 L 10.351562 44.322266 L 10.253906 44.320312 L 10.15625 44.310547 L 10.058594 44.294922 L 9.9609375 44.271484 L 9.8652344 44.242188 L 9.7675781 44.207031 L 9.671875 44.166016 L 9.5742188 44.119141 L 9.4785156 44.064453 L 9.3847656 44.003906 L 9.2890625 43.9375 L 9.1953125 43.865234 L 9.1015625 43.787109 L 9.0097656 43.701172 L 8.9179688 43.611328 L 8.8261719 43.513672 L 8.7363281 43.410156 L 8.6484375 43.302734 L 8.5605469 43.1875 L 8.4726562 43.068359 L 8.3867188 42.941406 L 8.3027344 42.810547 L 8.2207031 42.673828 L 8.1386719 42.53125 L 8.0566406 42.382812 L 7.9785156 42.230469 L 7.9003906 42.072266 L 7.8242188 41.910156 L 7.7480469 41.742188 L 7.6757812 41.568359 L 7.6035156 41.390625 L 7.5332031 41.208984 L 7.4648438 41.023438 L 7.3984375 40.832031 L 7.3339844 40.636719 L 7.2714844 40.435547 L 7.2089844 40.232422 L 7.1503906 40.025391 L 7.09375 39.814453 L 7.0371094 39.597656 L 6.984375 39.378906 L 6.9335938 39.158203 L 6.8847656 38.931641 L 6.8378906 38.703125 L 6.7910156 38.472656 L 6.7480469 38.238281 L 6.7089844 38 L 6.6699219 37.761719 L 6.6328125 37.517578 L 6.5996094 37.273438 L 6.5683594 37.027344 L 6.5371094 36.779297 L 6.5097656 36.527344 L 6.4863281 36.275391 L 6.4628906 36.021484 L 6.4433594 35.767578 L 6.4257812 35.509766 L 6.4101562 35.251953 L 6.3964844 34.994141 L 6.3847656 34.734375 L 6.3769531 34.474609 L 6.3710938 34.214844 L 6.3671875 33.953125 L 6.3671875 33.693359 L 6.3671875 33.431641 L 6.3710938 33.171875 L 6.3769531 32.910156 L 6.3847656 32.650391 L 6.3964844 32.392578 L 6.4101562 32.132812 L 6.4257812 31.875 L 6.4433594 31.619141 L 6.4628906 31.363281 L 6.4863281 31.109375 L 6.5097656 30.857422 L 6.5371094 30.607422 L 6.5683594 30.359375 L 6.5996094 30.111328 L 6.6328125 29.867188 L 6.6699219 29.625 L 6.7089844 29.384766 L 6.7480469 29.148438 L 6.7910156 28.914062 L 6.8378906 28.681641 L 6.8847656 28.453125 L 6.9335938 28.228516 L 6.984375 28.005859 L 7.0371094 27.787109 L 7.09375 27.572266 L 7.1503906 27.361328 L 7.2089844 27.152344 L 7.2714844 26.949219 L 7.3339844 26.75 L 7.3984375 26.554688 L 7.4648438 26.363281 L 7.5332031 26.175781 L 7.6035156 25.994141 L 7.6757812 25.816406 L 7.7480469 25.644531 L 7.8242188 25.476562 L 7.9003906 25.3125 L 7.9785156 25.154297 L 8.0566406 25.001953 L 8.1386719 24.853516 L 8.2207031 24.712891 L 8.3027344 24.576172 L 8.3867188 24.443359 L 8.4726562 24.318359 L 8.5605469 24.197266 L 8.6484375 24.083984 L 8.7363281 23.974609 L 8.8261719 23.873047 L 8.9179688 23.775391 L 9.0097656 23.683594 L 9.1015625 23.599609 L 9.1953125 23.521484 L 9.2890625 23.447266 L 9.3847656 23.380859 L 9.4785156 23.320312 L 9.5742188 23.267578 L 9.671875 23.21875 L 9.7675781 23.177734 L 9.8652344 23.142578 L 9.9609375 23.113281 L 10.058594 23.091797 L 10.15625 23.076172 L 10.253906 23.066406 L 10.351562 23.0625 z "
     transform="matrix(0.2822222,0,0,0.28222222,0,-15)"
     id="path34" />
  <path
     inkscape:connector-curvature="0"
     id="path38"
     style="stroke:#000000;stroke-width:0;fill:#000000;fill-opacity:1"
     d="m 9.5150999,-8.9249993 c 0,-0.2071067 -0.1678932,-0.3749999 -0.3749999,-0.3749999 -0.1035534,0 -0.1973034,0.041973 -0.2651651,0.1098349 l -1.8749998,1.8749998 0,0 c -0.067862,0.067862 -0.1098349,0.1616116 -0.1098349,0.265165 0,0.2071068 0.1678932,0.375 0.375,0.375 0.1035533,0 0.1973033,-0.041973 0.265165,-0.109835 L 8.7651,-8.0196693 l 0,5.8446693 c 0,0.2071068 0.1678932,0.375 0.375,0.375 0.2071067,0 0.3749999,-0.1678932 0.3749999,-0.375 z" />
  <path
     inkscape:connector-curvature="0"
     id="path40"
     style="stroke:#000000;stroke-width:0"
     d="M 0,0 58.434,0" />
  <path
     inkscape:connector-curvature="0"
     id="path42"
     style="stroke:#000000;stroke-width:0"
     d="m 58.434,-15 0,15" />
  <path
     inkscape:connector-curvature="0"
     id="path44"
     style="stroke:#000000;stroke-width:0"
     d="m 58.434,0 0,-15" />
  <path
     inkscape:connector-curvature="0"
     id="path46"
     style="stroke:#000000;stroke-width:0"
     d="M 58.434,-15 0,-15" />
  <path
     inkscape:connector-curvature="0"
     id="path48"
     style="stroke:#000000;stroke-width:0"
     d="M 0,-15 0,0" />
</svg>
