solid OpenSCAD_Model
  facet normal 0.866025 0.5 0
    outer loop
      vertex 8.22191 3.66063 1.8
      vertex 7.28115 5.29007 0
      vertex 7.28115 5.29007 1.8
    endloop
  endfacet
  facet normal 0.866025 0.5 0
    outer loop
      vertex 7.28115 5.29007 0
      vertex 8.22191 3.66063 1.8
      vertex 8.22191 3.66063 0
    endloop
  endfacet
  facet normal 0 1 -0
    outer loop
      vertex 0.940756 8.9507 0
      vertex -0.940756 8.9507 1.8
      vertex 0.940756 8.9507 1.8
    endloop
  endfacet
  facet normal 0 1 0
    outer loop
      vertex -0.940756 8.9507 1.8
      vertex 0.940756 8.9507 0
      vertex -0.940756 8.9507 0
    endloop
  endfacet
  facet normal 0.743145 0.669131 0
    outer loop
      vertex 7.28115 5.29007 1.8
      vertex 6.02217 6.6883 0
      vertex 6.02217 6.6883 1.8
    endloop
  endfacet
  facet normal 0.743145 0.669131 0
    outer loop
      vertex 6.02217 6.6883 0
      vertex 7.28115 5.29007 1.8
      vertex 7.28115 5.29007 0
    endloop
  endfacet
  facet normal 0.207912 0.978148 -0
    outer loop
      vertex 2.78115 8.55951 0
      vertex 0.940756 8.9507 1.8
      vertex 2.78115 8.55951 1.8
    endloop
  endfacet
  facet normal 0.207912 0.978148 0
    outer loop
      vertex 0.940756 8.9507 1.8
      vertex 2.78115 8.55951 0
      vertex 0.940756 8.9507 0
    endloop
  endfacet
  facet normal -0.406737 0.913545 0
    outer loop
      vertex -2.78115 8.55951 0
      vertex -4.5 7.79423 1.8
      vertex -2.78115 8.55951 1.8
    endloop
  endfacet
  facet normal -0.406737 0.913545 0
    outer loop
      vertex -4.5 7.79423 1.8
      vertex -2.78115 8.55951 0
      vertex -4.5 7.79423 0
    endloop
  endfacet
  facet normal 0.994522 -0.104529 0
    outer loop
      vertex 8.80333 -1.8712 1.8
      vertex 9 0 0
      vertex 9 0 1.8
    endloop
  endfacet
  facet normal 0.994522 -0.104529 0
    outer loop
      vertex 9 0 0
      vertex 8.80333 -1.8712 1.8
      vertex 8.80333 -1.8712 0
    endloop
  endfacet
  facet normal 0.207912 -0.978148 0
    outer loop
      vertex 0.940756 -8.9507 0
      vertex 2.78115 -8.55951 1.8
      vertex 0.940756 -8.9507 1.8
    endloop
  endfacet
  facet normal 0.207912 -0.978148 0
    outer loop
      vertex 2.78115 -8.55951 1.8
      vertex 0.940756 -8.9507 0
      vertex 2.78115 -8.55951 0
    endloop
  endfacet
  facet normal 0.951057 0.309017 0
    outer loop
      vertex 8.80333 1.8712 1.8
      vertex 8.22191 3.66063 0
      vertex 8.22191 3.66063 1.8
    endloop
  endfacet
  facet normal 0.951057 0.309017 0
    outer loop
      vertex 8.22191 3.66063 0
      vertex 8.80333 1.8712 1.8
      vertex 8.80333 1.8712 0
    endloop
  endfacet
  facet normal 0.587786 0.809017 -0
    outer loop
      vertex 6.02217 6.6883 0
      vertex 4.5 7.79423 1.8
      vertex 6.02217 6.6883 1.8
    endloop
  endfacet
  facet normal 0.587786 0.809017 0
    outer loop
      vertex 4.5 7.79423 1.8
      vertex 6.02217 6.6883 0
      vertex 4.5 7.79423 0
    endloop
  endfacet
  facet normal 0.406736 0.913546 -0
    outer loop
      vertex 4.5 7.79423 0
      vertex 2.78115 8.55951 1.8
      vertex 4.5 7.79423 1.8
    endloop
  endfacet
  facet normal 0.406736 0.913546 0
    outer loop
      vertex 2.78115 8.55951 1.8
      vertex 4.5 7.79423 0
      vertex 2.78115 8.55951 0
    endloop
  endfacet
  facet normal -0.994522 0.104529 0
    outer loop
      vertex -9 0 0
      vertex -8.80333 1.8712 1.8
      vertex -8.80333 1.8712 0
    endloop
  endfacet
  facet normal -0.994522 0.104529 0
    outer loop
      vertex -8.80333 1.8712 1.8
      vertex -9 0 0
      vertex -9 0 1.8
    endloop
  endfacet
  facet normal -0.866025 0.5 0
    outer loop
      vertex -8.22191 3.66063 0
      vertex -7.28115 5.29007 1.8
      vertex -7.28115 5.29007 0
    endloop
  endfacet
  facet normal -0.866025 0.5 0
    outer loop
      vertex -7.28115 5.29007 1.8
      vertex -8.22191 3.66063 0
      vertex -8.22191 3.66063 1.8
    endloop
  endfacet
  facet normal -0.587785 0.809017 0
    outer loop
      vertex -4.5 7.79423 0
      vertex -6.02217 6.6883 1.8
      vertex -4.5 7.79423 1.8
    endloop
  endfacet
  facet normal -0.587785 0.809017 0
    outer loop
      vertex -6.02217 6.6883 1.8
      vertex -4.5 7.79423 0
      vertex -6.02217 6.6883 0
    endloop
  endfacet
  facet normal -0.207912 0.978148 0
    outer loop
      vertex -0.940756 8.9507 0
      vertex -2.78115 8.55951 1.8
      vertex -0.940756 8.9507 1.8
    endloop
  endfacet
  facet normal -0.207912 0.978148 0
    outer loop
      vertex -2.78115 8.55951 1.8
      vertex -0.940756 8.9507 0
      vertex -2.78115 8.55951 0
    endloop
  endfacet
  facet normal -0.743145 0.669131 0
    outer loop
      vertex -7.28115 5.29007 0
      vertex -6.02217 6.6883 1.8
      vertex -6.02217 6.6883 0
    endloop
  endfacet
  facet normal -0.743145 0.669131 0
    outer loop
      vertex -6.02217 6.6883 1.8
      vertex -7.28115 5.29007 0
      vertex -7.28115 5.29007 1.8
    endloop
  endfacet
  facet normal 0.994522 0.104529 0
    outer loop
      vertex 9 0 1.8
      vertex 8.80333 1.8712 0
      vertex 8.80333 1.8712 1.8
    endloop
  endfacet
  facet normal 0.994522 0.104529 0
    outer loop
      vertex 8.80333 1.8712 0
      vertex 9 0 1.8
      vertex 9 0 0
    endloop
  endfacet
  facet normal -0.207912 -0.978148 0
    outer loop
      vertex -2.78115 -8.55951 0
      vertex -0.940756 -8.9507 1.8
      vertex -2.78115 -8.55951 1.8
    endloop
  endfacet
  facet normal -0.207912 -0.978148 -0
    outer loop
      vertex -0.940756 -8.9507 1.8
      vertex -2.78115 -8.55951 0
      vertex -0.940756 -8.9507 0
    endloop
  endfacet
  facet normal 0.587786 -0.809017 0
    outer loop
      vertex 4.5 -7.79423 0
      vertex 6.02217 -6.6883 1.8
      vertex 4.5 -7.79423 1.8
    endloop
  endfacet
  facet normal 0.587786 -0.809017 0
    outer loop
      vertex 6.02217 -6.6883 1.8
      vertex 4.5 -7.79423 0
      vertex 6.02217 -6.6883 0
    endloop
  endfacet
  facet normal 0 0 1
    outer loop
      vertex 6.2 0 1.8
      vertex 9 0 1.8
      vertex 8.80333 1.8712 1.8
    endloop
  endfacet
  facet normal 0 0 1
    outer loop
      vertex 6.06452 1.28905 1.8
      vertex 8.80333 1.8712 1.8
      vertex 8.22191 3.66063 1.8
    endloop
  endfacet
  facet normal 0 0 1
    outer loop
      vertex 9 0 1.8
      vertex 6.2 0 1.8
      vertex 8.80333 -1.8712 1.8
    endloop
  endfacet
  facet normal 0 0 1
    outer loop
      vertex 5.66398 2.52177 1.8
      vertex 8.22191 3.66063 1.8
      vertex 7.28115 5.29007 1.8
    endloop
  endfacet
  facet normal -0 0 1
    outer loop
      vertex 6.06452 -1.28905 1.8
      vertex 8.80333 -1.8712 1.8
      vertex 6.2 0 1.8
    endloop
  endfacet
  facet normal 0 0 1
    outer loop
      vertex 8.80333 -1.8712 1.8
      vertex 6.06452 -1.28905 1.8
      vertex 8.22191 -3.66063 1.8
    endloop
  endfacet
  facet normal 0 0 1
    outer loop
      vertex 8.80333 1.8712 1.8
      vertex 6.06452 1.28905 1.8
      vertex 6.2 0 1.8
    endloop
  endfacet
  facet normal 0 0 1
    outer loop
      vertex 5.0159 3.64427 1.8
      vertex 7.28115 5.29007 1.8
      vertex 6.02217 6.6883 1.8
    endloop
  endfacet
  facet normal 0 0 1
    outer loop
      vertex 8.22191 3.66063 1.8
      vertex 5.66398 2.52177 1.8
      vertex 6.06452 1.28905 1.8
    endloop
  endfacet
  facet normal 0 0 1
    outer loop
      vertex 7.28115 5.29007 1.8
      vertex 5.0159 3.64427 1.8
      vertex 5.66398 2.52177 1.8
    endloop
  endfacet
  facet normal 0 0 1
    outer loop
      vertex 4.14861 4.6075 1.8
      vertex 6.02217 6.6883 1.8
      vertex 4.5 7.79423 1.8
    endloop
  endfacet
  facet normal 0 0 1
    outer loop
      vertex 6.02217 6.6883 1.8
      vertex 4.14861 4.6075 1.8
      vertex 5.0159 3.64427 1.8
    endloop
  endfacet
  facet normal 0 0 1
    outer loop
      vertex 4.5 7.79423 1.8
      vertex 3.1 5.36936 1.8
      vertex 4.14861 4.6075 1.8
    endloop
  endfacet
  facet normal 0 0 1
    outer loop
      vertex 2.78115 8.55951 1.8
      vertex 3.1 5.36936 1.8
      vertex 4.5 7.79423 1.8
    endloop
  endfacet
  facet normal 0 0 1
    outer loop
      vertex 2.78115 8.55951 1.8
      vertex 1.9159 5.89655 1.8
      vertex 3.1 5.36936 1.8
    endloop
  endfacet
  facet normal 0 0 1
    outer loop
      vertex 0.940756 8.9507 1.8
      vertex 1.9159 5.89655 1.8
      vertex 2.78115 8.55951 1.8
    endloop
  endfacet
  facet normal 0 0 1
    outer loop
      vertex 0.940756 8.9507 1.8
      vertex 0.648076 6.16604 1.8
      vertex 1.9159 5.89655 1.8
    endloop
  endfacet
  facet normal 0 0 1
    outer loop
      vertex 0.940756 8.9507 1.8
      vertex -0.648076 6.16604 1.8
      vertex 0.648076 6.16604 1.8
    endloop
  endfacet
  facet normal -0 0 1
    outer loop
      vertex -0.940756 8.9507 1.8
      vertex -0.648076 6.16604 1.8
      vertex 0.940756 8.9507 1.8
    endloop
  endfacet
  facet normal 0 0 1
    outer loop
      vertex -0.940756 8.9507 1.8
      vertex -1.9159 5.89655 1.8
      vertex -0.648076 6.16604 1.8
    endloop
  endfacet
  facet normal -0 0 1
    outer loop
      vertex -2.78115 8.55951 1.8
      vertex -1.9159 5.89655 1.8
      vertex -0.940756 8.9507 1.8
    endloop
  endfacet
  facet normal 0 0 1
    outer loop
      vertex -2.78115 8.55951 1.8
      vertex -3.1 5.36936 1.8
      vertex -1.9159 5.89655 1.8
    endloop
  endfacet
  facet normal -0 0 1
    outer loop
      vertex -4.5 7.79423 1.8
      vertex -3.1 5.36936 1.8
      vertex -2.78115 8.55951 1.8
    endloop
  endfacet
  facet normal 0 0 1
    outer loop
      vertex -3.1 5.36936 1.8
      vertex -4.5 7.79423 1.8
      vertex -4.14861 4.6075 1.8
    endloop
  endfacet
  facet normal -0 0 1
    outer loop
      vertex -6.02217 6.6883 1.8
      vertex -4.14861 4.6075 1.8
      vertex -4.5 7.79423 1.8
    endloop
  endfacet
  facet normal 0 0 1
    outer loop
      vertex -4.14861 4.6075 1.8
      vertex -6.02217 6.6883 1.8
      vertex -5.0159 3.64427 1.8
    endloop
  endfacet
  facet normal -0 0 1
    outer loop
      vertex -7.28115 5.29007 1.8
      vertex -5.0159 3.64427 1.8
      vertex -6.02217 6.6883 1.8
    endloop
  endfacet
  facet normal 0 0 1
    outer loop
      vertex -5.0159 3.64427 1.8
      vertex -7.28115 5.29007 1.8
      vertex -5.66398 2.52177 1.8
    endloop
  endfacet
  facet normal -0 0 1
    outer loop
      vertex -8.22191 3.66063 1.8
      vertex -5.66398 2.52177 1.8
      vertex -7.28115 5.29007 1.8
    endloop
  endfacet
  facet normal 0 0 1
    outer loop
      vertex -5.66398 2.52177 1.8
      vertex -8.22191 3.66063 1.8
      vertex -6.06452 1.28905 1.8
    endloop
  endfacet
  facet normal -0 0 1
    outer loop
      vertex 5.66398 -2.52177 1.8
      vertex 8.22191 -3.66063 1.8
      vertex 6.06452 -1.28905 1.8
    endloop
  endfacet
  facet normal 0 0 1
    outer loop
      vertex 8.22191 -3.66063 1.8
      vertex 5.66398 -2.52177 1.8
      vertex 7.28115 -5.29007 1.8
    endloop
  endfacet
  facet normal -0 0 1
    outer loop
      vertex 5.0159 -3.64427 1.8
      vertex 7.28115 -5.29007 1.8
      vertex 5.66398 -2.52177 1.8
    endloop
  endfacet
  facet normal 0 0 1
    outer loop
      vertex 7.28115 -5.29007 1.8
      vertex 5.0159 -3.64427 1.8
      vertex 6.02217 -6.6883 1.8
    endloop
  endfacet
  facet normal -0 0 1
    outer loop
      vertex 4.14861 -4.6075 1.8
      vertex 6.02217 -6.6883 1.8
      vertex 5.0159 -3.64427 1.8
    endloop
  endfacet
  facet normal 0 0 1
    outer loop
      vertex 6.02217 -6.6883 1.8
      vertex 4.14861 -4.6075 1.8
      vertex 4.5 -7.79423 1.8
    endloop
  endfacet
  facet normal -0 0 1
    outer loop
      vertex 3.1 -5.36936 1.8
      vertex 4.5 -7.79423 1.8
      vertex 4.14861 -4.6075 1.8
    endloop
  endfacet
  facet normal 0 0 1
    outer loop
      vertex 3.1 -5.36936 1.8
      vertex 2.78115 -8.55951 1.8
      vertex 4.5 -7.79423 1.8
    endloop
  endfacet
  facet normal -0 0 1
    outer loop
      vertex 1.9159 -5.89655 1.8
      vertex 2.78115 -8.55951 1.8
      vertex 3.1 -5.36936 1.8
    endloop
  endfacet
  facet normal 0 0 1
    outer loop
      vertex 1.9159 -5.89655 1.8
      vertex 0.940756 -8.9507 1.8
      vertex 2.78115 -8.55951 1.8
    endloop
  endfacet
  facet normal -0 0 1
    outer loop
      vertex 0.648076 -6.16604 1.8
      vertex 0.940756 -8.9507 1.8
      vertex 1.9159 -5.89655 1.8
    endloop
  endfacet
  facet normal -0 0 1
    outer loop
      vertex -0.648076 -6.16604 1.8
      vertex 0.940756 -8.9507 1.8
      vertex 0.648076 -6.16604 1.8
    endloop
  endfacet
  facet normal 0 0 1
    outer loop
      vertex -0.648076 -6.16604 1.8
      vertex -0.940756 -8.9507 1.8
      vertex 0.940756 -8.9507 1.8
    endloop
  endfacet
  facet normal 0 0 1
    outer loop
      vertex -1.9159 -5.89655 1.8
      vertex -0.940756 -8.9507 1.8
      vertex -0.648076 -6.16604 1.8
    endloop
  endfacet
  facet normal 0 0 1
    outer loop
      vertex -1.9159 -5.89655 1.8
      vertex -2.78115 -8.55951 1.8
      vertex -0.940756 -8.9507 1.8
    endloop
  endfacet
  facet normal 0 0 1
    outer loop
      vertex -3.1 -5.36936 1.8
      vertex -2.78115 -8.55951 1.8
      vertex -1.9159 -5.89655 1.8
    endloop
  endfacet
  facet normal 0 0 1
    outer loop
      vertex -4.5 -7.79423 1.8
      vertex -3.1 -5.36936 1.8
      vertex -4.14861 -4.6075 1.8
    endloop
  endfacet
  facet normal 0 0 1
    outer loop
      vertex -3.1 -5.36936 1.8
      vertex -4.5 -7.79423 1.8
      vertex -2.78115 -8.55951 1.8
    endloop
  endfacet
  facet normal 0 0 1
    outer loop
      vertex -6.02217 -6.6883 1.8
      vertex -4.14861 -4.6075 1.8
      vertex -5.0159 -3.64427 1.8
    endloop
  endfacet
  facet normal 0 0 1
    outer loop
      vertex -7.28115 -5.29007 1.8
      vertex -5.0159 -3.64427 1.8
      vertex -5.66398 -2.52177 1.8
    endloop
  endfacet
  facet normal 0 0 1
    outer loop
      vertex -4.14861 -4.6075 1.8
      vertex -6.02217 -6.6883 1.8
      vertex -4.5 -7.79423 1.8
    endloop
  endfacet
  facet normal 0 0 1
    outer loop
      vertex -8.22191 -3.66063 1.8
      vertex -5.66398 -2.52177 1.8
      vertex -6.06452 -1.28905 1.8
    endloop
  endfacet
  facet normal 0 0 1
    outer loop
      vertex -8.80333 -1.8712 1.8
      vertex -6.06452 -1.28905 1.8
      vertex -6.2 0 1.8
    endloop
  endfacet
  facet normal -0 0 1
    outer loop
      vertex -8.80333 1.8712 1.8
      vertex -6.06452 1.28905 1.8
      vertex -8.22191 3.66063 1.8
    endloop
  endfacet
  facet normal 0 0 1
    outer loop
      vertex -5.0159 -3.64427 1.8
      vertex -7.28115 -5.29007 1.8
      vertex -6.02217 -6.6883 1.8
    endloop
  endfacet
  facet normal 0 0 1
    outer loop
      vertex -6.06452 1.28905 1.8
      vertex -8.80333 1.8712 1.8
      vertex -6.2 0 1.8
    endloop
  endfacet
  facet normal 0 0 1
    outer loop
      vertex -5.66398 -2.52177 1.8
      vertex -8.22191 -3.66063 1.8
      vertex -7.28115 -5.29007 1.8
    endloop
  endfacet
  facet normal 0 0 1
    outer loop
      vertex -9 0 1.8
      vertex -6.2 0 1.8
      vertex -8.80333 1.8712 1.8
    endloop
  endfacet
  facet normal 0 0 1
    outer loop
      vertex -6.06452 -1.28905 1.8
      vertex -8.80333 -1.8712 1.8
      vertex -8.22191 -3.66063 1.8
    endloop
  endfacet
  facet normal 0 0 1
    outer loop
      vertex -6.2 0 1.8
      vertex -9 0 1.8
      vertex -8.80333 -1.8712 1.8
    endloop
  endfacet
  facet normal -0.951057 0.309017 0
    outer loop
      vertex -8.80333 1.8712 0
      vertex -8.22191 3.66063 1.8
      vertex -8.22191 3.66063 0
    endloop
  endfacet
  facet normal -0.951057 0.309017 0
    outer loop
      vertex -8.22191 3.66063 1.8
      vertex -8.80333 1.8712 0
      vertex -8.80333 1.8712 1.8
    endloop
  endfacet
  facet normal 0.951057 -0.309017 0
    outer loop
      vertex 8.22191 -3.66063 1.8
      vertex 8.80333 -1.8712 0
      vertex 8.80333 -1.8712 1.8
    endloop
  endfacet
  facet normal 0.951057 -0.309017 0
    outer loop
      vertex 8.80333 -1.8712 0
      vertex 8.22191 -3.66063 1.8
      vertex 8.22191 -3.66063 0
    endloop
  endfacet
  facet normal 0.866025 -0.5 0
    outer loop
      vertex 7.28115 -5.29007 1.8
      vertex 8.22191 -3.66063 0
      vertex 8.22191 -3.66063 1.8
    endloop
  endfacet
  facet normal 0.866025 -0.5 0
    outer loop
      vertex 8.22191 -3.66063 0
      vertex 7.28115 -5.29007 1.8
      vertex 7.28115 -5.29007 0
    endloop
  endfacet
  facet normal -0.994522 -0.104529 0
    outer loop
      vertex -8.80333 -1.8712 0
      vertex -9 0 1.8
      vertex -9 0 0
    endloop
  endfacet
  facet normal -0.994522 -0.104529 0
    outer loop
      vertex -9 0 1.8
      vertex -8.80333 -1.8712 0
      vertex -8.80333 -1.8712 1.8
    endloop
  endfacet
  facet normal -0.866025 -0.5 0
    outer loop
      vertex -7.28115 -5.29007 0
      vertex -8.22191 -3.66063 1.8
      vertex -8.22191 -3.66063 0
    endloop
  endfacet
  facet normal -0.866025 -0.5 0
    outer loop
      vertex -8.22191 -3.66063 1.8
      vertex -7.28115 -5.29007 0
      vertex -7.28115 -5.29007 1.8
    endloop
  endfacet
  facet normal 0.743145 -0.669131 0
    outer loop
      vertex 6.02217 -6.6883 1.8
      vertex 7.28115 -5.29007 0
      vertex 7.28115 -5.29007 1.8
    endloop
  endfacet
  facet normal 0.743145 -0.669131 0
    outer loop
      vertex 7.28115 -5.29007 0
      vertex 6.02217 -6.6883 1.8
      vertex 6.02217 -6.6883 0
    endloop
  endfacet
  facet normal -0.406736 -0.913546 0
    outer loop
      vertex -4.5 -7.79423 0
      vertex -2.78115 -8.55951 1.8
      vertex -4.5 -7.79423 1.8
    endloop
  endfacet
  facet normal -0.406736 -0.913546 -0
    outer loop
      vertex -2.78115 -8.55951 1.8
      vertex -4.5 -7.79423 0
      vertex -2.78115 -8.55951 0
    endloop
  endfacet
  facet normal 0 -1 0
    outer loop
      vertex -0.940756 -8.9507 0
      vertex 0.940756 -8.9507 1.8
      vertex -0.940756 -8.9507 1.8
    endloop
  endfacet
  facet normal 0 -1 -0
    outer loop
      vertex 0.940756 -8.9507 1.8
      vertex -0.940756 -8.9507 0
      vertex 0.940756 -8.9507 0
    endloop
  endfacet
  facet normal 0 0 -1
    outer loop
      vertex 6.2 0 0
      vertex 9 0 0
      vertex 8.80333 -1.8712 0
    endloop
  endfacet
  facet normal 0 0 -1
    outer loop
      vertex 6.06452 -1.28905 0
      vertex 8.80333 -1.8712 0
      vertex 8.22191 -3.66063 0
    endloop
  endfacet
  facet normal 0 0 -1
    outer loop
      vertex 9 0 0
      vertex 6.2 0 0
      vertex 8.80333 1.8712 0
    endloop
  endfacet
  facet normal 0 0 -1
    outer loop
      vertex 5.66398 -2.52177 0
      vertex 8.22191 -3.66063 0
      vertex 7.28115 -5.29007 0
    endloop
  endfacet
  facet normal 0 0 -1
    outer loop
      vertex 6.06452 1.28905 0
      vertex 8.80333 1.8712 0
      vertex 6.2 0 0
    endloop
  endfacet
  facet normal -0 0 -1
    outer loop
      vertex 8.80333 1.8712 0
      vertex 6.06452 1.28905 0
      vertex 8.22191 3.66063 0
    endloop
  endfacet
  facet normal 0 0 -1
    outer loop
      vertex 8.80333 -1.8712 0
      vertex 6.06452 -1.28905 0
      vertex 6.2 0 0
    endloop
  endfacet
  facet normal 0 0 -1
    outer loop
      vertex 5.0159 -3.64427 0
      vertex 7.28115 -5.29007 0
      vertex 6.02217 -6.6883 0
    endloop
  endfacet
  facet normal 0 0 -1
    outer loop
      vertex 8.22191 -3.66063 0
      vertex 5.66398 -2.52177 0
      vertex 6.06452 -1.28905 0
    endloop
  endfacet
  facet normal 0 0 -1
    outer loop
      vertex 7.28115 -5.29007 0
      vertex 5.0159 -3.64427 0
      vertex 5.66398 -2.52177 0
    endloop
  endfacet
  facet normal 0 0 -1
    outer loop
      vertex 4.14861 -4.6075 0
      vertex 6.02217 -6.6883 0
      vertex 4.5 -7.79423 0
    endloop
  endfacet
  facet normal 0 0 -1
    outer loop
      vertex 6.02217 -6.6883 0
      vertex 4.14861 -4.6075 0
      vertex 5.0159 -3.64427 0
    endloop
  endfacet
  facet normal 0 0 -1
    outer loop
      vertex 4.5 -7.79423 0
      vertex 3.1 -5.36936 0
      vertex 4.14861 -4.6075 0
    endloop
  endfacet
  facet normal 0 0 -1
    outer loop
      vertex 2.78115 -8.55951 0
      vertex 3.1 -5.36936 0
      vertex 4.5 -7.79423 0
    endloop
  endfacet
  facet normal 0 0 -1
    outer loop
      vertex 2.78115 -8.55951 0
      vertex 1.9159 -5.89655 0
      vertex 3.1 -5.36936 0
    endloop
  endfacet
  facet normal 0 0 -1
    outer loop
      vertex 0.940756 -8.9507 0
      vertex 1.9159 -5.89655 0
      vertex 2.78115 -8.55951 0
    endloop
  endfacet
  facet normal 0 0 -1
    outer loop
      vertex 0.940756 -8.9507 0
      vertex 0.648076 -6.16604 0
      vertex 1.9159 -5.89655 0
    endloop
  endfacet
  facet normal 0 0 -1
    outer loop
      vertex 0.940756 -8.9507 0
      vertex -0.648076 -6.16604 0
      vertex 0.648076 -6.16604 0
    endloop
  endfacet
  facet normal 0 0 -1
    outer loop
      vertex -0.940756 -8.9507 0
      vertex -0.648076 -6.16604 0
      vertex 0.940756 -8.9507 0
    endloop
  endfacet
  facet normal 0 0 -1
    outer loop
      vertex -0.940756 -8.9507 0
      vertex -1.9159 -5.89655 0
      vertex -0.648076 -6.16604 0
    endloop
  endfacet
  facet normal 0 0 -1
    outer loop
      vertex -2.78115 -8.55951 0
      vertex -1.9159 -5.89655 0
      vertex -0.940756 -8.9507 0
    endloop
  endfacet
  facet normal 0 0 -1
    outer loop
      vertex -2.78115 -8.55951 0
      vertex -3.1 -5.36936 0
      vertex -1.9159 -5.89655 0
    endloop
  endfacet
  facet normal 0 0 -1
    outer loop
      vertex -4.5 -7.79423 0
      vertex -3.1 -5.36936 0
      vertex -2.78115 -8.55951 0
    endloop
  endfacet
  facet normal -0 0 -1
    outer loop
      vertex -3.1 -5.36936 0
      vertex -4.5 -7.79423 0
      vertex -4.14861 -4.6075 0
    endloop
  endfacet
  facet normal 0 0 -1
    outer loop
      vertex -6.02217 -6.6883 0
      vertex -4.14861 -4.6075 0
      vertex -4.5 -7.79423 0
    endloop
  endfacet
  facet normal -0 0 -1
    outer loop
      vertex -4.14861 -4.6075 0
      vertex -6.02217 -6.6883 0
      vertex -5.0159 -3.64427 0
    endloop
  endfacet
  facet normal 0 0 -1
    outer loop
      vertex -7.28115 -5.29007 0
      vertex -5.0159 -3.64427 0
      vertex -6.02217 -6.6883 0
    endloop
  endfacet
  facet normal -0 0 -1
    outer loop
      vertex -5.0159 -3.64427 0
      vertex -7.28115 -5.29007 0
      vertex -5.66398 -2.52177 0
    endloop
  endfacet
  facet normal 0 0 -1
    outer loop
      vertex -8.22191 -3.66063 0
      vertex -5.66398 -2.52177 0
      vertex -7.28115 -5.29007 0
    endloop
  endfacet
  facet normal -0 0 -1
    outer loop
      vertex -5.66398 -2.52177 0
      vertex -8.22191 -3.66063 0
      vertex -6.06452 -1.28905 0
    endloop
  endfacet
  facet normal 0 0 -1
    outer loop
      vertex 5.66398 2.52177 0
      vertex 8.22191 3.66063 0
      vertex 6.06452 1.28905 0
    endloop
  endfacet
  facet normal -0 0 -1
    outer loop
      vertex 8.22191 3.66063 0
      vertex 5.66398 2.52177 0
      vertex 7.28115 5.29007 0
    endloop
  endfacet
  facet normal 0 0 -1
    outer loop
      vertex 5.0159 3.64427 0
      vertex 7.28115 5.29007 0
      vertex 5.66398 2.52177 0
    endloop
  endfacet
  facet normal -0 0 -1
    outer loop
      vertex 7.28115 5.29007 0
      vertex 5.0159 3.64427 0
      vertex 6.02217 6.6883 0
    endloop
  endfacet
  facet normal 0 0 -1
    outer loop
      vertex 4.14861 4.6075 0
      vertex 6.02217 6.6883 0
      vertex 5.0159 3.64427 0
    endloop
  endfacet
  facet normal -0 0 -1
    outer loop
      vertex 6.02217 6.6883 0
      vertex 4.14861 4.6075 0
      vertex 4.5 7.79423 0
    endloop
  endfacet
  facet normal 0 0 -1
    outer loop
      vertex 3.1 5.36936 0
      vertex 4.5 7.79423 0
      vertex 4.14861 4.6075 0
    endloop
  endfacet
  facet normal 0 0 -1
    outer loop
      vertex 3.1 5.36936 0
      vertex 2.78115 8.55951 0
      vertex 4.5 7.79423 0
    endloop
  endfacet
  facet normal 0 0 -1
    outer loop
      vertex 1.9159 5.89655 0
      vertex 2.78115 8.55951 0
      vertex 3.1 5.36936 0
    endloop
  endfacet
  facet normal 0 0 -1
    outer loop
      vertex 1.9159 5.89655 0
      vertex 0.940756 8.9507 0
      vertex 2.78115 8.55951 0
    endloop
  endfacet
  facet normal 0 0 -1
    outer loop
      vertex 0.648076 6.16604 0
      vertex 0.940756 8.9507 0
      vertex 1.9159 5.89655 0
    endloop
  endfacet
  facet normal 0 0 -1
    outer loop
      vertex -0.648076 6.16604 0
      vertex 0.940756 8.9507 0
      vertex 0.648076 6.16604 0
    endloop
  endfacet
  facet normal 0 0 -1
    outer loop
      vertex -0.648076 6.16604 0
      vertex -0.940756 8.9507 0
      vertex 0.940756 8.9507 0
    endloop
  endfacet
  facet normal 0 0 -1
    outer loop
      vertex -1.9159 5.89655 0
      vertex -0.940756 8.9507 0
      vertex -0.648076 6.16604 0
    endloop
  endfacet
  facet normal 0 0 -1
    outer loop
      vertex -1.9159 5.89655 0
      vertex -2.78115 8.55951 0
      vertex -0.940756 8.9507 0
    endloop
  endfacet
  facet normal 0 0 -1
    outer loop
      vertex -3.1 5.36936 0
      vertex -2.78115 8.55951 0
      vertex -1.9159 5.89655 0
    endloop
  endfacet
  facet normal 0 0 -1
    outer loop
      vertex -4.5 7.79423 0
      vertex -3.1 5.36936 0
      vertex -4.14861 4.6075 0
    endloop
  endfacet
  facet normal 0 0 -1
    outer loop
      vertex -3.1 5.36936 0
      vertex -4.5 7.79423 0
      vertex -2.78115 8.55951 0
    endloop
  endfacet
  facet normal 0 0 -1
    outer loop
      vertex -6.02217 6.6883 0
      vertex -4.14861 4.6075 0
      vertex -5.0159 3.64427 0
    endloop
  endfacet
  facet normal 0 0 -1
    outer loop
      vertex -7.28115 5.29007 0
      vertex -5.0159 3.64427 0
      vertex -5.66398 2.52177 0
    endloop
  endfacet
  facet normal 0 0 -1
    outer loop
      vertex -4.14861 4.6075 0
      vertex -6.02217 6.6883 0
      vertex -4.5 7.79423 0
    endloop
  endfacet
  facet normal 0 0 -1
    outer loop
      vertex -8.22191 3.66063 0
      vertex -5.66398 2.52177 0
      vertex -6.06452 1.28905 0
    endloop
  endfacet
  facet normal 0 0 -1
    outer loop
      vertex -8.80333 1.8712 0
      vertex -6.06452 1.28905 0
      vertex -6.2 0 0
    endloop
  endfacet
  facet normal 0 0 -1
    outer loop
      vertex -8.80333 -1.8712 0
      vertex -6.06452 -1.28905 0
      vertex -8.22191 -3.66063 0
    endloop
  endfacet
  facet normal 0 0 -1
    outer loop
      vertex -5.0159 3.64427 0
      vertex -7.28115 5.29007 0
      vertex -6.02217 6.6883 0
    endloop
  endfacet
  facet normal -0 0 -1
    outer loop
      vertex -6.06452 -1.28905 0
      vertex -8.80333 -1.8712 0
      vertex -6.2 0 0
    endloop
  endfacet
  facet normal 0 0 -1
    outer loop
      vertex -5.66398 2.52177 0
      vertex -8.22191 3.66063 0
      vertex -7.28115 5.29007 0
    endloop
  endfacet
  facet normal 0 0 -1
    outer loop
      vertex -9 0 0
      vertex -6.2 0 0
      vertex -8.80333 -1.8712 0
    endloop
  endfacet
  facet normal 0 0 -1
    outer loop
      vertex -6.06452 1.28905 0
      vertex -8.80333 1.8712 0
      vertex -8.22191 3.66063 0
    endloop
  endfacet
  facet normal 0 0 -1
    outer loop
      vertex -6.2 0 0
      vertex -9 0 0
      vertex -8.80333 1.8712 0
    endloop
  endfacet
  facet normal -0.951057 -0.309017 0
    outer loop
      vertex -8.22191 -3.66063 0
      vertex -8.80333 -1.8712 1.8
      vertex -8.80333 -1.8712 0
    endloop
  endfacet
  facet normal -0.951057 -0.309017 0
    outer loop
      vertex -8.80333 -1.8712 1.8
      vertex -8.22191 -3.66063 0
      vertex -8.22191 -3.66063 1.8
    endloop
  endfacet
  facet normal -0.743145 -0.669131 0
    outer loop
      vertex -6.02217 -6.6883 0
      vertex -7.28115 -5.29007 1.8
      vertex -7.28115 -5.29007 0
    endloop
  endfacet
  facet normal -0.743145 -0.669131 0
    outer loop
      vertex -7.28115 -5.29007 1.8
      vertex -6.02217 -6.6883 0
      vertex -6.02217 -6.6883 1.8
    endloop
  endfacet
  facet normal 0.406736 -0.913546 0
    outer loop
      vertex 2.78115 -8.55951 0
      vertex 4.5 -7.79423 1.8
      vertex 2.78115 -8.55951 1.8
    endloop
  endfacet
  facet normal 0.406736 -0.913546 0
    outer loop
      vertex 4.5 -7.79423 1.8
      vertex 2.78115 -8.55951 0
      vertex 4.5 -7.79423 0
    endloop
  endfacet
  facet normal -0.587786 -0.809017 0
    outer loop
      vertex -6.02217 -6.6883 0
      vertex -4.5 -7.79423 1.8
      vertex -6.02217 -6.6883 1.8
    endloop
  endfacet
  facet normal -0.587786 -0.809017 -0
    outer loop
      vertex -4.5 -7.79423 1.8
      vertex -6.02217 -6.6883 0
      vertex -4.5 -7.79423 0
    endloop
  endfacet
  facet normal -0.866025 -0.5 0
    outer loop
      vertex 5.66398 2.52177 0
      vertex 5.0159 3.64427 1.8
      vertex 5.0159 3.64427 0
    endloop
  endfacet
  facet normal -0.866025 -0.5 0
    outer loop
      vertex 5.0159 3.64427 1.8
      vertex 5.66398 2.52177 0
      vertex 5.66398 2.52177 1.8
    endloop
  endfacet
  facet normal -0.743145 -0.669131 0
    outer loop
      vertex 5.0159 3.64427 0
      vertex 4.14861 4.6075 1.8
      vertex 4.14861 4.6075 0
    endloop
  endfacet
  facet normal -0.743145 -0.669131 0
    outer loop
      vertex 4.14861 4.6075 1.8
      vertex 5.0159 3.64427 0
      vertex 5.0159 3.64427 1.8
    endloop
  endfacet
  facet normal 0.207912 -0.978148 0
    outer loop
      vertex -1.9159 5.89655 0
      vertex -0.648076 6.16604 1.8
      vertex -1.9159 5.89655 1.8
    endloop
  endfacet
  facet normal 0.207912 -0.978148 0
    outer loop
      vertex -0.648076 6.16604 1.8
      vertex -1.9159 5.89655 0
      vertex -0.648076 6.16604 0
    endloop
  endfacet
  facet normal 0.866025 -0.5 0
    outer loop
      vertex -5.66398 2.52177 1.8
      vertex -5.0159 3.64427 0
      vertex -5.0159 3.64427 1.8
    endloop
  endfacet
  facet normal 0.866025 -0.5 0
    outer loop
      vertex -5.0159 3.64427 0
      vertex -5.66398 2.52177 1.8
      vertex -5.66398 2.52177 0
    endloop
  endfacet
  facet normal -0.994522 0.104528 0
    outer loop
      vertex 6.06452 -1.28905 0
      vertex 6.2 0 1.8
      vertex 6.2 0 0
    endloop
  endfacet
  facet normal -0.994522 0.104528 0
    outer loop
      vertex 6.2 0 1.8
      vertex 6.06452 -1.28905 0
      vertex 6.06452 -1.28905 1.8
    endloop
  endfacet
  facet normal -0.951056 -0.309017 0
    outer loop
      vertex 6.06452 1.28905 0
      vertex 5.66398 2.52177 1.8
      vertex 5.66398 2.52177 0
    endloop
  endfacet
  facet normal -0.951056 -0.309017 0
    outer loop
      vertex 5.66398 2.52177 1.8
      vertex 6.06452 1.28905 0
      vertex 6.06452 1.28905 1.8
    endloop
  endfacet
  facet normal -0.587785 -0.809017 0
    outer loop
      vertex 3.1 5.36936 0
      vertex 4.14861 4.6075 1.8
      vertex 3.1 5.36936 1.8
    endloop
  endfacet
  facet normal -0.587785 -0.809017 -0
    outer loop
      vertex 4.14861 4.6075 1.8
      vertex 3.1 5.36936 0
      vertex 4.14861 4.6075 0
    endloop
  endfacet
  facet normal 0 -1 0
    outer loop
      vertex -0.648076 6.16604 0
      vertex 0.648076 6.16604 1.8
      vertex -0.648076 6.16604 1.8
    endloop
  endfacet
  facet normal 0 -1 -0
    outer loop
      vertex 0.648076 6.16604 1.8
      vertex -0.648076 6.16604 0
      vertex 0.648076 6.16604 0
    endloop
  endfacet
  facet normal -0.406737 -0.913545 0
    outer loop
      vertex 1.9159 5.89655 0
      vertex 3.1 5.36936 1.8
      vertex 1.9159 5.89655 1.8
    endloop
  endfacet
  facet normal -0.406737 -0.913545 -0
    outer loop
      vertex 3.1 5.36936 1.8
      vertex 1.9159 5.89655 0
      vertex 3.1 5.36936 0
    endloop
  endfacet
  facet normal 0.994522 -0.104528 0
    outer loop
      vertex -6.2 0 1.8
      vertex -6.06452 1.28905 0
      vertex -6.06452 1.28905 1.8
    endloop
  endfacet
  facet normal 0.994522 -0.104528 0
    outer loop
      vertex -6.06452 1.28905 0
      vertex -6.2 0 1.8
      vertex -6.2 0 0
    endloop
  endfacet
  facet normal 0.743145 -0.669131 0
    outer loop
      vertex -5.0159 3.64427 1.8
      vertex -4.14861 4.6075 0
      vertex -4.14861 4.6075 1.8
    endloop
  endfacet
  facet normal 0.743145 -0.669131 0
    outer loop
      vertex -4.14861 4.6075 0
      vertex -5.0159 3.64427 1.8
      vertex -5.0159 3.64427 0
    endloop
  endfacet
  facet normal 0.406737 -0.913545 0
    outer loop
      vertex -3.1 5.36936 0
      vertex -1.9159 5.89655 1.8
      vertex -3.1 5.36936 1.8
    endloop
  endfacet
  facet normal 0.406737 -0.913545 0
    outer loop
      vertex -1.9159 5.89655 1.8
      vertex -3.1 5.36936 0
      vertex -1.9159 5.89655 0
    endloop
  endfacet
  facet normal 0.587785 -0.809017 0
    outer loop
      vertex -4.14861 4.6075 0
      vertex -3.1 5.36936 1.8
      vertex -4.14861 4.6075 1.8
    endloop
  endfacet
  facet normal 0.587785 -0.809017 0
    outer loop
      vertex -3.1 5.36936 1.8
      vertex -4.14861 4.6075 0
      vertex -3.1 5.36936 0
    endloop
  endfacet
  facet normal -0.994522 -0.104528 0
    outer loop
      vertex 6.2 0 0
      vertex 6.06452 1.28905 1.8
      vertex 6.06452 1.28905 0
    endloop
  endfacet
  facet normal -0.994522 -0.104528 0
    outer loop
      vertex 6.06452 1.28905 1.8
      vertex 6.2 0 0
      vertex 6.2 0 1.8
    endloop
  endfacet
  facet normal -0.587785 0.809017 0
    outer loop
      vertex 4.14861 -4.6075 0
      vertex 3.1 -5.36936 1.8
      vertex 4.14861 -4.6075 1.8
    endloop
  endfacet
  facet normal -0.587785 0.809017 0
    outer loop
      vertex 3.1 -5.36936 1.8
      vertex 4.14861 -4.6075 0
      vertex 3.1 -5.36936 0
    endloop
  endfacet
  facet normal -0.951056 0.309017 0
    outer loop
      vertex 5.66398 -2.52177 0
      vertex 6.06452 -1.28905 1.8
      vertex 6.06452 -1.28905 0
    endloop
  endfacet
  facet normal -0.951056 0.309017 0
    outer loop
      vertex 6.06452 -1.28905 1.8
      vertex 5.66398 -2.52177 0
      vertex 5.66398 -2.52177 1.8
    endloop
  endfacet
  facet normal -0.207912 -0.978148 0
    outer loop
      vertex 0.648076 6.16604 0
      vertex 1.9159 5.89655 1.8
      vertex 0.648076 6.16604 1.8
    endloop
  endfacet
  facet normal -0.207912 -0.978148 -0
    outer loop
      vertex 1.9159 5.89655 1.8
      vertex 0.648076 6.16604 0
      vertex 1.9159 5.89655 0
    endloop
  endfacet
  facet normal 0.951056 -0.309017 0
    outer loop
      vertex -6.06452 1.28905 1.8
      vertex -5.66398 2.52177 0
      vertex -5.66398 2.52177 1.8
    endloop
  endfacet
  facet normal 0.951056 -0.309017 0
    outer loop
      vertex -5.66398 2.52177 0
      vertex -6.06452 1.28905 1.8
      vertex -6.06452 1.28905 0
    endloop
  endfacet
  facet normal 0.207912 0.978148 -0
    outer loop
      vertex -0.648076 -6.16604 0
      vertex -1.9159 -5.89655 1.8
      vertex -0.648076 -6.16604 1.8
    endloop
  endfacet
  facet normal 0.207912 0.978148 0
    outer loop
      vertex -1.9159 -5.89655 1.8
      vertex -0.648076 -6.16604 0
      vertex -1.9159 -5.89655 0
    endloop
  endfacet
  facet normal 0.994522 0.104528 0
    outer loop
      vertex -6.06452 -1.28905 1.8
      vertex -6.2 0 0
      vertex -6.2 0 1.8
    endloop
  endfacet
  facet normal 0.994522 0.104528 0
    outer loop
      vertex -6.2 0 0
      vertex -6.06452 -1.28905 1.8
      vertex -6.06452 -1.28905 0
    endloop
  endfacet
  facet normal 0.866025 0.5 0
    outer loop
      vertex -5.0159 -3.64427 1.8
      vertex -5.66398 -2.52177 0
      vertex -5.66398 -2.52177 1.8
    endloop
  endfacet
  facet normal 0.866025 0.5 0
    outer loop
      vertex -5.66398 -2.52177 0
      vertex -5.0159 -3.64427 1.8
      vertex -5.0159 -3.64427 0
    endloop
  endfacet
  facet normal -0.207912 0.978148 0
    outer loop
      vertex 1.9159 -5.89655 0
      vertex 0.648076 -6.16604 1.8
      vertex 1.9159 -5.89655 1.8
    endloop
  endfacet
  facet normal -0.207912 0.978148 0
    outer loop
      vertex 0.648076 -6.16604 1.8
      vertex 1.9159 -5.89655 0
      vertex 0.648076 -6.16604 0
    endloop
  endfacet
  facet normal -0.406737 0.913545 0
    outer loop
      vertex 3.1 -5.36936 0
      vertex 1.9159 -5.89655 1.8
      vertex 3.1 -5.36936 1.8
    endloop
  endfacet
  facet normal -0.406737 0.913545 0
    outer loop
      vertex 1.9159 -5.89655 1.8
      vertex 3.1 -5.36936 0
      vertex 1.9159 -5.89655 0
    endloop
  endfacet
  facet normal -0.743145 0.669131 0
    outer loop
      vertex 4.14861 -4.6075 0
      vertex 5.0159 -3.64427 1.8
      vertex 5.0159 -3.64427 0
    endloop
  endfacet
  facet normal -0.743145 0.669131 0
    outer loop
      vertex 5.0159 -3.64427 1.8
      vertex 4.14861 -4.6075 0
      vertex 4.14861 -4.6075 1.8
    endloop
  endfacet
  facet normal -0.866025 0.5 0
    outer loop
      vertex 5.0159 -3.64427 0
      vertex 5.66398 -2.52177 1.8
      vertex 5.66398 -2.52177 0
    endloop
  endfacet
  facet normal -0.866025 0.5 0
    outer loop
      vertex 5.66398 -2.52177 1.8
      vertex 5.0159 -3.64427 0
      vertex 5.0159 -3.64427 1.8
    endloop
  endfacet
  facet normal 0.587785 0.809017 -0
    outer loop
      vertex -3.1 -5.36936 0
      vertex -4.14861 -4.6075 1.8
      vertex -3.1 -5.36936 1.8
    endloop
  endfacet
  facet normal 0.587785 0.809017 0
    outer loop
      vertex -4.14861 -4.6075 1.8
      vertex -3.1 -5.36936 0
      vertex -4.14861 -4.6075 0
    endloop
  endfacet
  facet normal 0 1 -0
    outer loop
      vertex 0.648076 -6.16604 0
      vertex -0.648076 -6.16604 1.8
      vertex 0.648076 -6.16604 1.8
    endloop
  endfacet
  facet normal 0 1 0
    outer loop
      vertex -0.648076 -6.16604 1.8
      vertex 0.648076 -6.16604 0
      vertex -0.648076 -6.16604 0
    endloop
  endfacet
  facet normal 0.406737 0.913545 -0
    outer loop
      vertex -1.9159 -5.89655 0
      vertex -3.1 -5.36936 1.8
      vertex -1.9159 -5.89655 1.8
    endloop
  endfacet
  facet normal 0.406737 0.913545 0
    outer loop
      vertex -3.1 -5.36936 1.8
      vertex -1.9159 -5.89655 0
      vertex -3.1 -5.36936 0
    endloop
  endfacet
  facet normal 0.951056 0.309017 0
    outer loop
      vertex -5.66398 -2.52177 1.8
      vertex -6.06452 -1.28905 0
      vertex -6.06452 -1.28905 1.8
    endloop
  endfacet
  facet normal 0.951056 0.309017 0
    outer loop
      vertex -6.06452 -1.28905 0
      vertex -5.66398 -2.52177 1.8
      vertex -5.66398 -2.52177 0
    endloop
  endfacet
  facet normal 0.743145 0.669131 0
    outer loop
      vertex -4.14861 -4.6075 1.8
      vertex -5.0159 -3.64427 0
      vertex -5.0159 -3.64427 1.8
    endloop
  endfacet
  facet normal 0.743145 0.669131 0
    outer loop
      vertex -5.0159 -3.64427 0
      vertex -4.14861 -4.6075 1.8
      vertex -4.14861 -4.6075 0
    endloop
  endfacet
endsolid OpenSCAD_Model
