solid OpenSCAD_Model
  facet normal 0.866025 0.5 0
    outer loop
      vertex 10.0033 4.45377 6.9
      vertex 8.85874 6.43625 0
      vertex 8.85874 6.43625 6.9
    endloop
  endfacet
  facet normal 0.866025 0.5 0
    outer loop
      vertex 8.85874 6.43625 0
      vertex 10.0033 4.45377 6.9
      vertex 10.0033 4.45377 0
    endloop
  endfacet
  facet normal 0 1 -0
    outer loop
      vertex 1.14459 10.89 0
      vertex -1.14459 10.89 6.9
      vertex 1.14459 10.89 6.9
    endloop
  endfacet
  facet normal 0 1 0
    outer loop
      vertex -1.14459 10.89 6.9
      vertex 1.14459 10.89 0
      vertex -1.14459 10.89 0
    endloop
  endfacet
  facet normal 0.743145 0.669131 0
    outer loop
      vertex 8.85874 6.43625 6.9
      vertex 7.32698 8.13743 0
      vertex 7.32698 8.13743 6.9
    endloop
  endfacet
  facet normal 0.743145 0.669131 0
    outer loop
      vertex 7.32698 8.13743 0
      vertex 8.85874 6.43625 6.9
      vertex 8.85874 6.43625 0
    endloop
  endfacet
  facet normal 0.207912 0.978148 -0
    outer loop
      vertex 3.38374 10.4141 0
      vertex 1.14459 10.89 6.9
      vertex 3.38374 10.4141 6.9
    endloop
  endfacet
  facet normal 0.207912 0.978148 0
    outer loop
      vertex 1.14459 10.89 6.9
      vertex 3.38374 10.4141 0
      vertex 1.14459 10.89 0
    endloop
  endfacet
  facet normal -0.406737 0.913546 0
    outer loop
      vertex -3.38374 10.4141 0
      vertex -5.475 9.48298 6.9
      vertex -3.38374 10.4141 6.9
    endloop
  endfacet
  facet normal -0.406737 0.913546 0
    outer loop
      vertex -5.475 9.48298 6.9
      vertex -3.38374 10.4141 0
      vertex -5.475 9.48298 0
    endloop
  endfacet
  facet normal 0.994522 -0.104529 0
    outer loop
      vertex 10.7107 -2.27663 6.9
      vertex 10.95 0 0
      vertex 10.95 0 6.9
    endloop
  endfacet
  facet normal 0.994522 -0.104529 0
    outer loop
      vertex 10.95 0 0
      vertex 10.7107 -2.27663 6.9
      vertex 10.7107 -2.27663 0
    endloop
  endfacet
  facet normal 0.207912 -0.978148 0
    outer loop
      vertex 1.14459 -10.89 0
      vertex 3.38374 -10.4141 6.9
      vertex 1.14459 -10.89 6.9
    endloop
  endfacet
  facet normal 0.207912 -0.978148 0
    outer loop
      vertex 3.38374 -10.4141 6.9
      vertex 1.14459 -10.89 0
      vertex 3.38374 -10.4141 0
    endloop
  endfacet
  facet normal 0.951057 0.309017 0
    outer loop
      vertex 10.7107 2.27663 6.9
      vertex 10.0033 4.45377 0
      vertex 10.0033 4.45377 6.9
    endloop
  endfacet
  facet normal 0.951057 0.309017 0
    outer loop
      vertex 10.0033 4.45377 0
      vertex 10.7107 2.27663 6.9
      vertex 10.7107 2.27663 0
    endloop
  endfacet
  facet normal 0.587785 0.809017 -0
    outer loop
      vertex 7.32698 8.13743 0
      vertex 5.475 9.48298 6.9
      vertex 7.32698 8.13743 6.9
    endloop
  endfacet
  facet normal 0.587785 0.809017 0
    outer loop
      vertex 5.475 9.48298 6.9
      vertex 7.32698 8.13743 0
      vertex 5.475 9.48298 0
    endloop
  endfacet
  facet normal 0.406737 0.913546 -0
    outer loop
      vertex 5.475 9.48298 0
      vertex 3.38374 10.4141 6.9
      vertex 5.475 9.48298 6.9
    endloop
  endfacet
  facet normal 0.406737 0.913546 0
    outer loop
      vertex 3.38374 10.4141 6.9
      vertex 5.475 9.48298 0
      vertex 3.38374 10.4141 0
    endloop
  endfacet
  facet normal -0.994522 0.104529 0
    outer loop
      vertex -10.95 0 0
      vertex -10.7107 2.27663 6.9
      vertex -10.7107 2.27663 0
    endloop
  endfacet
  facet normal -0.994522 0.104529 0
    outer loop
      vertex -10.7107 2.27663 6.9
      vertex -10.95 0 0
      vertex -10.95 0 6.9
    endloop
  endfacet
  facet normal -0.866025 0.5 0
    outer loop
      vertex -10.0033 4.45377 0
      vertex -8.85874 6.43625 6.9
      vertex -8.85874 6.43625 0
    endloop
  endfacet
  facet normal -0.866025 0.5 0
    outer loop
      vertex -8.85874 6.43625 6.9
      vertex -10.0033 4.45377 0
      vertex -10.0033 4.45377 6.9
    endloop
  endfacet
  facet normal -0.587785 0.809017 0
    outer loop
      vertex -5.475 9.48298 0
      vertex -7.32698 8.13743 6.9
      vertex -5.475 9.48298 6.9
    endloop
  endfacet
  facet normal -0.587785 0.809017 0
    outer loop
      vertex -7.32698 8.13743 6.9
      vertex -5.475 9.48298 0
      vertex -7.32698 8.13743 0
    endloop
  endfacet
  facet normal -0.207912 0.978148 0
    outer loop
      vertex -1.14459 10.89 0
      vertex -3.38374 10.4141 6.9
      vertex -1.14459 10.89 6.9
    endloop
  endfacet
  facet normal -0.207912 0.978148 0
    outer loop
      vertex -3.38374 10.4141 6.9
      vertex -1.14459 10.89 0
      vertex -3.38374 10.4141 0
    endloop
  endfacet
  facet normal -0.743145 0.669131 0
    outer loop
      vertex -8.85874 6.43625 0
      vertex -7.32698 8.13743 6.9
      vertex -7.32698 8.13743 0
    endloop
  endfacet
  facet normal -0.743145 0.669131 0
    outer loop
      vertex -7.32698 8.13743 6.9
      vertex -8.85874 6.43625 0
      vertex -8.85874 6.43625 6.9
    endloop
  endfacet
  facet normal 0.994522 0.104529 0
    outer loop
      vertex 10.95 0 6.9
      vertex 10.7107 2.27663 0
      vertex 10.7107 2.27663 6.9
    endloop
  endfacet
  facet normal 0.994522 0.104529 0
    outer loop
      vertex 10.7107 2.27663 0
      vertex 10.95 0 6.9
      vertex 10.95 0 0
    endloop
  endfacet
  facet normal 0.951057 -0.309017 0
    outer loop
      vertex 10.0033 -4.45377 6.9
      vertex 10.7107 -2.27663 0
      vertex 10.7107 -2.27663 6.9
    endloop
  endfacet
  facet normal 0.951057 -0.309017 0
    outer loop
      vertex 10.7107 -2.27663 0
      vertex 10.0033 -4.45377 6.9
      vertex 10.0033 -4.45377 0
    endloop
  endfacet
  facet normal -0.866025 -0.5 0
    outer loop
      vertex -8.85874 -6.43625 0
      vertex -10.0033 -4.45377 6.9
      vertex -10.0033 -4.45377 0
    endloop
  endfacet
  facet normal -0.866025 -0.5 0
    outer loop
      vertex -10.0033 -4.45377 6.9
      vertex -8.85874 -6.43625 0
      vertex -8.85874 -6.43625 6.9
    endloop
  endfacet
  facet normal 0.587785 -0.809017 0
    outer loop
      vertex 5.475 -9.48298 0
      vertex 7.32698 -8.13743 6.9
      vertex 5.475 -9.48298 6.9
    endloop
  endfacet
  facet normal 0.587785 -0.809017 0
    outer loop
      vertex 7.32698 -8.13743 6.9
      vertex 5.475 -9.48298 0
      vertex 7.32698 -8.13743 0
    endloop
  endfacet
  facet normal -0 0 1
    outer loop
      vertex 8.03613 1.0152 6.9
      vertex 10.95 0 6.9
      vertex 10.7107 2.27663 6.9
    endloop
  endfacet
  facet normal 0 0 1
    outer loop
      vertex 7.84552 2.01439 6.9
      vertex 10.7107 2.27663 6.9
      vertex 10.0033 4.45377 6.9
    endloop
  endfacet
  facet normal 0 0 1
    outer loop
      vertex 10.95 0 6.9
      vertex 8.03613 1.0152 6.9
      vertex 8.1 0 6.9
    endloop
  endfacet
  facet normal 0 0 1
    outer loop
      vertex 7.09808 3.9022 6.9
      vertex 10.0033 4.45377 6.9
      vertex 8.85874 6.43625 6.9
    endloop
  endfacet
  facet normal 0 0 1
    outer loop
      vertex 8.03613 -1.0152 6.9
      vertex 10.95 0 6.9
      vertex 8.1 0 6.9
    endloop
  endfacet
  facet normal -0 0 1
    outer loop
      vertex 7.84552 -2.01439 6.9
      vertex 10.7107 -2.27663 6.9
      vertex 8.03613 -1.0152 6.9
    endloop
  endfacet
  facet normal 0 0 1
    outer loop
      vertex 10.95 0 6.9
      vertex 8.03613 -1.0152 6.9
      vertex 10.7107 -2.27663 6.9
    endloop
  endfacet
  facet normal 0 0 1
    outer loop
      vertex 10.7107 2.27663 6.9
      vertex 7.84552 2.01439 6.9
      vertex 8.03613 1.0152 6.9
    endloop
  endfacet
  facet normal 0 0 1
    outer loop
      vertex 10.0033 4.45377 6.9
      vertex 7.53119 2.98181 6.9
      vertex 7.84552 2.01439 6.9
    endloop
  endfacet
  facet normal 0 0 1
    outer loop
      vertex 5.90464 5.54483 6.9
      vertex 8.85874 6.43625 6.9
      vertex 7.32698 8.13743 6.9
    endloop
  endfacet
  facet normal 0 0 1
    outer loop
      vertex 10.0033 4.45377 6.9
      vertex 7.09808 3.9022 6.9
      vertex 7.53119 2.98181 6.9
    endloop
  endfacet
  facet normal 0 0 1
    outer loop
      vertex 8.85874 6.43625 6.9
      vertex 6.55304 4.76106 6.9
      vertex 7.09808 3.9022 6.9
    endloop
  endfacet
  facet normal 0 0 1
    outer loop
      vertex 8.85874 6.43625 6.9
      vertex 5.90464 5.54483 6.9
      vertex 6.55304 4.76106 6.9
    endloop
  endfacet
  facet normal 0 0 1
    outer loop
      vertex 5.16313 6.24116 6.9
      vertex 7.32698 8.13743 6.9
      vertex 5.475 9.48298 6.9
    endloop
  endfacet
  facet normal 0 0 1
    outer loop
      vertex 7.32698 8.13743 6.9
      vertex 5.16313 6.24116 6.9
      vertex 5.90464 5.54483 6.9
    endloop
  endfacet
  facet normal 0 0 1
    outer loop
      vertex 5.475 9.48298 6.9
      vertex 4.3402 6.83906 6.9
      vertex 5.16313 6.24116 6.9
    endloop
  endfacet
  facet normal 0 0 1
    outer loop
      vertex 5.475 9.48298 6.9
      vertex 3.44881 7.3291 6.9
      vertex 4.3402 6.83906 6.9
    endloop
  endfacet
  facet normal 0 0 1
    outer loop
      vertex 3.38374 10.4141 6.9
      vertex 3.44881 7.3291 6.9
      vertex 5.475 9.48298 6.9
    endloop
  endfacet
  facet normal 0 0 1
    outer loop
      vertex 3.38374 10.4141 6.9
      vertex 2.50304 7.70356 6.9
      vertex 3.44881 7.3291 6.9
    endloop
  endfacet
  facet normal 0 0 1
    outer loop
      vertex 3.38374 10.4141 6.9
      vertex 1.51779 7.95653 6.9
      vertex 2.50304 7.70356 6.9
    endloop
  endfacet
  facet normal 0 0 1
    outer loop
      vertex 1.14459 10.89 6.9
      vertex 1.51779 7.95653 6.9
      vertex 3.38374 10.4141 6.9
    endloop
  endfacet
  facet normal 0 0 1
    outer loop
      vertex 1.14459 10.89 6.9
      vertex 0.508603 8.08402 6.9
      vertex 1.51779 7.95653 6.9
    endloop
  endfacet
  facet normal 0 0 1
    outer loop
      vertex 1.14459 10.89 6.9
      vertex -0.508603 8.08402 6.9
      vertex 0.508603 8.08402 6.9
    endloop
  endfacet
  facet normal -0 0 1
    outer loop
      vertex -1.14459 10.89 6.9
      vertex -0.508603 8.08402 6.9
      vertex 1.14459 10.89 6.9
    endloop
  endfacet
  facet normal 0 0 1
    outer loop
      vertex -1.14459 10.89 6.9
      vertex -1.51779 7.95653 6.9
      vertex -0.508603 8.08402 6.9
    endloop
  endfacet
  facet normal -0 0 1
    outer loop
      vertex -3.38374 10.4141 6.9
      vertex -1.51779 7.95653 6.9
      vertex -1.14459 10.89 6.9
    endloop
  endfacet
  facet normal 0 0 1
    outer loop
      vertex -1.51779 7.95653 6.9
      vertex -3.38374 10.4141 6.9
      vertex -2.50304 7.70356 6.9
    endloop
  endfacet
  facet normal 0 0 1
    outer loop
      vertex -3.38374 10.4141 6.9
      vertex -3.44881 7.3291 6.9
      vertex -2.50304 7.70356 6.9
    endloop
  endfacet
  facet normal -0 0 1
    outer loop
      vertex -5.475 9.48298 6.9
      vertex -3.44881 7.3291 6.9
      vertex -3.38374 10.4141 6.9
    endloop
  endfacet
  facet normal 0 0 1
    outer loop
      vertex -3.44881 7.3291 6.9
      vertex -5.475 9.48298 6.9
      vertex -4.3402 6.83906 6.9
    endloop
  endfacet
  facet normal 0 0 1
    outer loop
      vertex -4.3402 6.83906 6.9
      vertex -5.475 9.48298 6.9
      vertex -5.16313 6.24116 6.9
    endloop
  endfacet
  facet normal -0 0 1
    outer loop
      vertex -7.32698 8.13743 6.9
      vertex -5.16313 6.24116 6.9
      vertex -5.475 9.48298 6.9
    endloop
  endfacet
  facet normal 0 0 1
    outer loop
      vertex -5.16313 6.24116 6.9
      vertex -7.32698 8.13743 6.9
      vertex -5.90464 5.54483 6.9
    endloop
  endfacet
  facet normal -0 0 1
    outer loop
      vertex -8.85874 6.43625 6.9
      vertex -5.90464 5.54483 6.9
      vertex -7.32698 8.13743 6.9
    endloop
  endfacet
  facet normal 0 0 1
    outer loop
      vertex -5.90464 5.54483 6.9
      vertex -8.85874 6.43625 6.9
      vertex -6.55304 4.76106 6.9
    endloop
  endfacet
  facet normal 0 0 1
    outer loop
      vertex -6.55304 4.76106 6.9
      vertex -8.85874 6.43625 6.9
      vertex -7.09808 3.9022 6.9
    endloop
  endfacet
  facet normal -0 0 1
    outer loop
      vertex -10.0033 4.45377 6.9
      vertex -7.09808 3.9022 6.9
      vertex -8.85874 6.43625 6.9
    endloop
  endfacet
  facet normal 0 0 1
    outer loop
      vertex -7.09808 3.9022 6.9
      vertex -10.0033 4.45377 6.9
      vertex -7.53119 2.98181 6.9
    endloop
  endfacet
  facet normal -0 0 1
    outer loop
      vertex -10.7107 2.27663 6.9
      vertex -7.84552 2.01439 6.9
      vertex -10.0033 4.45377 6.9
    endloop
  endfacet
  facet normal 0 0 1
    outer loop
      vertex -7.53119 2.98181 6.9
      vertex -10.0033 4.45377 6.9
      vertex -7.84552 2.01439 6.9
    endloop
  endfacet
  facet normal 0 0 1
    outer loop
      vertex 10.7107 -2.27663 6.9
      vertex 7.84552 -2.01439 6.9
      vertex 10.0033 -4.45377 6.9
    endloop
  endfacet
  facet normal -0 0 1
    outer loop
      vertex 7.53119 -2.98181 6.9
      vertex 10.0033 -4.45377 6.9
      vertex 7.84552 -2.01439 6.9
    endloop
  endfacet
  facet normal -0 0 1
    outer loop
      vertex 7.09808 -3.9022 6.9
      vertex 10.0033 -4.45377 6.9
      vertex 7.53119 -2.98181 6.9
    endloop
  endfacet
  facet normal 0 0 1
    outer loop
      vertex 10.0033 -4.45377 6.9
      vertex 7.09808 -3.9022 6.9
      vertex 8.85874 -6.43625 6.9
    endloop
  endfacet
  facet normal -0 0 1
    outer loop
      vertex 6.55304 -4.76106 6.9
      vertex 8.85874 -6.43625 6.9
      vertex 7.09808 -3.9022 6.9
    endloop
  endfacet
  facet normal -0 0 1
    outer loop
      vertex 5.90464 -5.54483 6.9
      vertex 8.85874 -6.43625 6.9
      vertex 6.55304 -4.76106 6.9
    endloop
  endfacet
  facet normal 0 0 1
    outer loop
      vertex 8.85874 -6.43625 6.9
      vertex 5.90464 -5.54483 6.9
      vertex 7.32698 -8.13743 6.9
    endloop
  endfacet
  facet normal -0 0 1
    outer loop
      vertex 5.16313 -6.24116 6.9
      vertex 7.32698 -8.13743 6.9
      vertex 5.90464 -5.54483 6.9
    endloop
  endfacet
  facet normal 0 0 1
    outer loop
      vertex 7.32698 -8.13743 6.9
      vertex 5.16313 -6.24116 6.9
      vertex 5.475 -9.48298 6.9
    endloop
  endfacet
  facet normal -0 0 1
    outer loop
      vertex 4.3402 -6.83906 6.9
      vertex 5.475 -9.48298 6.9
      vertex 5.16313 -6.24116 6.9
    endloop
  endfacet
  facet normal -0 0 1
    outer loop
      vertex 3.44881 -7.3291 6.9
      vertex 5.475 -9.48298 6.9
      vertex 4.3402 -6.83906 6.9
    endloop
  endfacet
  facet normal 0 0 1
    outer loop
      vertex 3.44881 -7.3291 6.9
      vertex 3.38374 -10.4141 6.9
      vertex 5.475 -9.48298 6.9
    endloop
  endfacet
  facet normal -0 0 1
    outer loop
      vertex 2.50304 -7.70356 6.9
      vertex 3.38374 -10.4141 6.9
      vertex 3.44881 -7.3291 6.9
    endloop
  endfacet
  facet normal -0 0 1
    outer loop
      vertex 1.51779 -7.95653 6.9
      vertex 3.38374 -10.4141 6.9
      vertex 2.50304 -7.70356 6.9
    endloop
  endfacet
  facet normal 0 0 1
    outer loop
      vertex 1.51779 -7.95653 6.9
      vertex 1.14459 -10.89 6.9
      vertex 3.38374 -10.4141 6.9
    endloop
  endfacet
  facet normal -0 0 1
    outer loop
      vertex 0.508603 -8.08402 6.9
      vertex 1.14459 -10.89 6.9
      vertex 1.51779 -7.95653 6.9
    endloop
  endfacet
  facet normal -0 0 1
    outer loop
      vertex -0.508603 -8.08402 6.9
      vertex 1.14459 -10.89 6.9
      vertex 0.508603 -8.08402 6.9
    endloop
  endfacet
  facet normal 0 0 1
    outer loop
      vertex -0.508603 -8.08402 6.9
      vertex -1.14459 -10.89 6.9
      vertex 1.14459 -10.89 6.9
    endloop
  endfacet
  facet normal 0 0 1
    outer loop
      vertex -1.51779 -7.95653 6.9
      vertex -1.14459 -10.89 6.9
      vertex -0.508603 -8.08402 6.9
    endloop
  endfacet
  facet normal 0 0 1
    outer loop
      vertex -3.38374 -10.4141 6.9
      vertex -1.51779 -7.95653 6.9
      vertex -2.50304 -7.70356 6.9
    endloop
  endfacet
  facet normal 0 0 1
    outer loop
      vertex -1.51779 -7.95653 6.9
      vertex -3.38374 -10.4141 6.9
      vertex -1.14459 -10.89 6.9
    endloop
  endfacet
  facet normal 0 0 1
    outer loop
      vertex -3.44881 -7.3291 6.9
      vertex -3.38374 -10.4141 6.9
      vertex -2.50304 -7.70356 6.9
    endloop
  endfacet
  facet normal 0 0 1
    outer loop
      vertex -5.475 -9.48298 6.9
      vertex -3.44881 -7.3291 6.9
      vertex -4.3402 -6.83906 6.9
    endloop
  endfacet
  facet normal 0 0 1
    outer loop
      vertex -5.475 -9.48298 6.9
      vertex -4.3402 -6.83906 6.9
      vertex -5.16313 -6.24116 6.9
    endloop
  endfacet
  facet normal 0 0 1
    outer loop
      vertex -3.44881 -7.3291 6.9
      vertex -5.475 -9.48298 6.9
      vertex -3.38374 -10.4141 6.9
    endloop
  endfacet
  facet normal 0 0 1
    outer loop
      vertex -7.32698 -8.13743 6.9
      vertex -5.16313 -6.24116 6.9
      vertex -5.90464 -5.54483 6.9
    endloop
  endfacet
  facet normal 0 0 1
    outer loop
      vertex -8.85874 -6.43625 6.9
      vertex -5.90464 -5.54483 6.9
      vertex -6.55304 -4.76106 6.9
    endloop
  endfacet
  facet normal 0 0 1
    outer loop
      vertex -8.85874 -6.43625 6.9
      vertex -6.55304 -4.76106 6.9
      vertex -7.09808 -3.9022 6.9
    endloop
  endfacet
  facet normal 0 0 1
    outer loop
      vertex -5.16313 -6.24116 6.9
      vertex -7.32698 -8.13743 6.9
      vertex -5.475 -9.48298 6.9
    endloop
  endfacet
  facet normal 0 0 1
    outer loop
      vertex -10.0033 -4.45377 6.9
      vertex -7.09808 -3.9022 6.9
      vertex -7.53119 -2.98181 6.9
    endloop
  endfacet
  facet normal 0 0 1
    outer loop
      vertex -10.0033 -4.45377 6.9
      vertex -7.53119 -2.98181 6.9
      vertex -7.84552 -2.01439 6.9
    endloop
  endfacet
  facet normal 0 0 1
    outer loop
      vertex -10.7107 -2.27663 6.9
      vertex -7.84552 -2.01439 6.9
      vertex -8.03613 -1.0152 6.9
    endloop
  endfacet
  facet normal 0 0 1
    outer loop
      vertex -7.84552 2.01439 6.9
      vertex -10.7107 2.27663 6.9
      vertex -8.03613 1.0152 6.9
    endloop
  endfacet
  facet normal 0 0 1
    outer loop
      vertex -10.95 0 6.9
      vertex -8.03613 1.0152 6.9
      vertex -10.7107 2.27663 6.9
    endloop
  endfacet
  facet normal 0 0 1
    outer loop
      vertex -5.90464 -5.54483 6.9
      vertex -8.85874 -6.43625 6.9
      vertex -7.32698 -8.13743 6.9
    endloop
  endfacet
  facet normal 0 0 1
    outer loop
      vertex -8.03613 1.0152 6.9
      vertex -10.95 0 6.9
      vertex -8.1 0 6.9
    endloop
  endfacet
  facet normal 0 0 1
    outer loop
      vertex -7.09808 -3.9022 6.9
      vertex -10.0033 -4.45377 6.9
      vertex -8.85874 -6.43625 6.9
    endloop
  endfacet
  facet normal 0 0 1
    outer loop
      vertex -8.1 0 6.9
      vertex -10.95 0 6.9
      vertex -8.03613 -1.0152 6.9
    endloop
  endfacet
  facet normal 0 0 1
    outer loop
      vertex -7.84552 -2.01439 6.9
      vertex -10.7107 -2.27663 6.9
      vertex -10.0033 -4.45377 6.9
    endloop
  endfacet
  facet normal 0 0 1
    outer loop
      vertex -8.03613 -1.0152 6.9
      vertex -10.95 0 6.9
      vertex -10.7107 -2.27663 6.9
    endloop
  endfacet
  facet normal -0.951057 0.309017 0
    outer loop
      vertex -10.7107 2.27663 0
      vertex -10.0033 4.45377 6.9
      vertex -10.0033 4.45377 0
    endloop
  endfacet
  facet normal -0.951057 0.309017 0
    outer loop
      vertex -10.0033 4.45377 6.9
      vertex -10.7107 2.27663 0
      vertex -10.7107 2.27663 6.9
    endloop
  endfacet
  facet normal 0.866025 -0.5 0
    outer loop
      vertex 8.85874 -6.43625 6.9
      vertex 10.0033 -4.45377 0
      vertex 10.0033 -4.45377 6.9
    endloop
  endfacet
  facet normal 0.866025 -0.5 0
    outer loop
      vertex 10.0033 -4.45377 0
      vertex 8.85874 -6.43625 6.9
      vertex 8.85874 -6.43625 0
    endloop
  endfacet
  facet normal 0 -1 0
    outer loop
      vertex -1.14459 -10.89 0
      vertex 1.14459 -10.89 6.9
      vertex -1.14459 -10.89 6.9
    endloop
  endfacet
  facet normal 0 -1 -0
    outer loop
      vertex 1.14459 -10.89 6.9
      vertex -1.14459 -10.89 0
      vertex 1.14459 -10.89 0
    endloop
  endfacet
  facet normal 0 0 -1
    outer loop
      vertex 6 0 0
      vertex 10.95 0 0
      vertex 10.7107 -2.27663 0
    endloop
  endfacet
  facet normal 0 0 -1
    outer loop
      vertex 5.86889 -1.24747 0
      vertex 10.7107 -2.27663 0
      vertex 10.0033 -4.45377 0
    endloop
  endfacet
  facet normal 0 0 -1
    outer loop
      vertex 10.95 0 0
      vertex 6 0 0
      vertex 10.7107 2.27663 0
    endloop
  endfacet
  facet normal 0 0 -1
    outer loop
      vertex 5.48127 -2.44042 0
      vertex 10.0033 -4.45377 0
      vertex 8.85874 -6.43625 0
    endloop
  endfacet
  facet normal 0 0 -1
    outer loop
      vertex 5.86889 1.24747 0
      vertex 10.7107 2.27663 0
      vertex 6 0 0
    endloop
  endfacet
  facet normal 0 0 -1
    outer loop
      vertex 4.8541 -3.52671 0
      vertex 8.85874 -6.43625 0
      vertex 7.32698 -8.13743 0
    endloop
  endfacet
  facet normal -0 0 -1
    outer loop
      vertex 10.7107 2.27663 0
      vertex 5.86889 1.24747 0
      vertex 10.0033 4.45377 0
    endloop
  endfacet
  facet normal 0 0 -1
    outer loop
      vertex 5.48127 2.44042 0
      vertex 10.0033 4.45377 0
      vertex 5.86889 1.24747 0
    endloop
  endfacet
  facet normal 0 0 -1
    outer loop
      vertex 10.7107 -2.27663 0
      vertex 5.86889 -1.24747 0
      vertex 6 0 0
    endloop
  endfacet
  facet normal 0 0 -1
    outer loop
      vertex 10.0033 -4.45377 0
      vertex 5.48127 -2.44042 0
      vertex 5.86889 -1.24747 0
    endloop
  endfacet
  facet normal 0 0 -1
    outer loop
      vertex 4.01478 -4.45887 0
      vertex 7.32698 -8.13743 0
      vertex 5.475 -9.48298 0
    endloop
  endfacet
  facet normal 0 0 -1
    outer loop
      vertex 8.85874 -6.43625 0
      vertex 4.8541 -3.52671 0
      vertex 5.48127 -2.44042 0
    endloop
  endfacet
  facet normal 0 0 -1
    outer loop
      vertex 7.32698 -8.13743 0
      vertex 4.01478 -4.45887 0
      vertex 4.8541 -3.52671 0
    endloop
  endfacet
  facet normal 0 0 -1
    outer loop
      vertex 3 -5.19615 0
      vertex 5.475 -9.48298 0
      vertex 3.38374 -10.4141 0
    endloop
  endfacet
  facet normal 0 0 -1
    outer loop
      vertex 5.475 -9.48298 0
      vertex 3 -5.19615 0
      vertex 4.01478 -4.45887 0
    endloop
  endfacet
  facet normal 0 0 -1
    outer loop
      vertex 3.38374 -10.4141 0
      vertex 1.8541 -5.70634 0
      vertex 3 -5.19615 0
    endloop
  endfacet
  facet normal 0 0 -1
    outer loop
      vertex 1.14459 -10.89 0
      vertex 1.8541 -5.70634 0
      vertex 3.38374 -10.4141 0
    endloop
  endfacet
  facet normal 0 0 -1
    outer loop
      vertex 1.14459 -10.89 0
      vertex 0.627171 -5.96713 0
      vertex 1.8541 -5.70634 0
    endloop
  endfacet
  facet normal 0 0 -1
    outer loop
      vertex 1.14459 -10.89 0
      vertex -0.627171 -5.96713 0
      vertex 0.627171 -5.96713 0
    endloop
  endfacet
  facet normal 0 0 -1
    outer loop
      vertex -1.14459 -10.89 0
      vertex -0.627171 -5.96713 0
      vertex 1.14459 -10.89 0
    endloop
  endfacet
  facet normal 0 0 -1
    outer loop
      vertex -1.14459 -10.89 0
      vertex -1.8541 -5.70634 0
      vertex -0.627171 -5.96713 0
    endloop
  endfacet
  facet normal 0 0 -1
    outer loop
      vertex -3.38374 -10.4141 0
      vertex -1.8541 -5.70634 0
      vertex -1.14459 -10.89 0
    endloop
  endfacet
  facet normal -0 0 -1
    outer loop
      vertex -1.8541 -5.70634 0
      vertex -3.38374 -10.4141 0
      vertex -3 -5.19615 0
    endloop
  endfacet
  facet normal 0 0 -1
    outer loop
      vertex -5.475 -9.48298 0
      vertex -3 -5.19615 0
      vertex -3.38374 -10.4141 0
    endloop
  endfacet
  facet normal -0 0 -1
    outer loop
      vertex -3 -5.19615 0
      vertex -5.475 -9.48298 0
      vertex -4.01478 -4.45887 0
    endloop
  endfacet
  facet normal 0 0 -1
    outer loop
      vertex -7.32698 -8.13743 0
      vertex -4.01478 -4.45887 0
      vertex -5.475 -9.48298 0
    endloop
  endfacet
  facet normal -0 0 -1
    outer loop
      vertex -4.01478 -4.45887 0
      vertex -7.32698 -8.13743 0
      vertex -4.8541 -3.52671 0
    endloop
  endfacet
  facet normal 0 0 -1
    outer loop
      vertex -8.85874 -6.43625 0
      vertex -4.8541 -3.52671 0
      vertex -7.32698 -8.13743 0
    endloop
  endfacet
  facet normal -0 0 -1
    outer loop
      vertex -4.8541 -3.52671 0
      vertex -8.85874 -6.43625 0
      vertex -5.48127 -2.44042 0
    endloop
  endfacet
  facet normal 0 0 -1
    outer loop
      vertex -10.0033 -4.45377 0
      vertex -5.48127 -2.44042 0
      vertex -8.85874 -6.43625 0
    endloop
  endfacet
  facet normal -0 0 -1
    outer loop
      vertex 10.0033 4.45377 0
      vertex 5.48127 2.44042 0
      vertex 8.85874 6.43625 0
    endloop
  endfacet
  facet normal 0 0 -1
    outer loop
      vertex 4.8541 3.52671 0
      vertex 8.85874 6.43625 0
      vertex 5.48127 2.44042 0
    endloop
  endfacet
  facet normal -0 0 -1
    outer loop
      vertex 8.85874 6.43625 0
      vertex 4.8541 3.52671 0
      vertex 7.32698 8.13743 0
    endloop
  endfacet
  facet normal 0 0 -1
    outer loop
      vertex 4.01478 4.45887 0
      vertex 7.32698 8.13743 0
      vertex 4.8541 3.52671 0
    endloop
  endfacet
  facet normal -0 0 -1
    outer loop
      vertex 7.32698 8.13743 0
      vertex 4.01478 4.45887 0
      vertex 5.475 9.48298 0
    endloop
  endfacet
  facet normal 0 0 -1
    outer loop
      vertex 3 5.19615 0
      vertex 5.475 9.48298 0
      vertex 4.01478 4.45887 0
    endloop
  endfacet
  facet normal -0 0 -1
    outer loop
      vertex 5.475 9.48298 0
      vertex 3 5.19615 0
      vertex 3.38374 10.4141 0
    endloop
  endfacet
  facet normal 0 0 -1
    outer loop
      vertex 1.8541 5.70634 0
      vertex 3.38374 10.4141 0
      vertex 3 5.19615 0
    endloop
  endfacet
  facet normal 0 0 -1
    outer loop
      vertex 1.8541 5.70634 0
      vertex 1.14459 10.89 0
      vertex 3.38374 10.4141 0
    endloop
  endfacet
  facet normal 0 0 -1
    outer loop
      vertex 0.627171 5.96713 0
      vertex 1.14459 10.89 0
      vertex 1.8541 5.70634 0
    endloop
  endfacet
  facet normal 0 0 -1
    outer loop
      vertex -0.627171 5.96713 0
      vertex 1.14459 10.89 0
      vertex 0.627171 5.96713 0
    endloop
  endfacet
  facet normal 0 0 -1
    outer loop
      vertex -0.627171 5.96713 0
      vertex -1.14459 10.89 0
      vertex 1.14459 10.89 0
    endloop
  endfacet
  facet normal 0 0 -1
    outer loop
      vertex -1.8541 5.70634 0
      vertex -1.14459 10.89 0
      vertex -0.627171 5.96713 0
    endloop
  endfacet
  facet normal 0 0 -1
    outer loop
      vertex -3.38374 10.4141 0
      vertex -1.8541 5.70634 0
      vertex -3 5.19615 0
    endloop
  endfacet
  facet normal 0 0 -1
    outer loop
      vertex -1.8541 5.70634 0
      vertex -3.38374 10.4141 0
      vertex -1.14459 10.89 0
    endloop
  endfacet
  facet normal 0 0 -1
    outer loop
      vertex -5.475 9.48298 0
      vertex -3 5.19615 0
      vertex -4.01478 4.45887 0
    endloop
  endfacet
  facet normal 0 0 -1
    outer loop
      vertex -7.32698 8.13743 0
      vertex -4.01478 4.45887 0
      vertex -4.8541 3.52671 0
    endloop
  endfacet
  facet normal 0 0 -1
    outer loop
      vertex -3 5.19615 0
      vertex -5.475 9.48298 0
      vertex -3.38374 10.4141 0
    endloop
  endfacet
  facet normal 0 0 -1
    outer loop
      vertex -8.85874 6.43625 0
      vertex -4.8541 3.52671 0
      vertex -5.48127 2.44042 0
    endloop
  endfacet
  facet normal 0 0 -1
    outer loop
      vertex -10.0033 4.45377 0
      vertex -5.48127 2.44042 0
      vertex -5.86889 1.24747 0
    endloop
  endfacet
  facet normal 0 0 -1
    outer loop
      vertex -10.7107 2.27663 0
      vertex -5.86889 1.24747 0
      vertex -6 0 0
    endloop
  endfacet
  facet normal -0 0 -1
    outer loop
      vertex -5.48127 -2.44042 0
      vertex -10.0033 -4.45377 0
      vertex -5.86889 -1.24747 0
    endloop
  endfacet
  facet normal 0 0 -1
    outer loop
      vertex -4.01478 4.45887 0
      vertex -7.32698 8.13743 0
      vertex -5.475 9.48298 0
    endloop
  endfacet
  facet normal 0 0 -1
    outer loop
      vertex -10.7107 -2.27663 0
      vertex -5.86889 -1.24747 0
      vertex -10.0033 -4.45377 0
    endloop
  endfacet
  facet normal 0 0 -1
    outer loop
      vertex -4.8541 3.52671 0
      vertex -8.85874 6.43625 0
      vertex -7.32698 8.13743 0
    endloop
  endfacet
  facet normal -0 0 -1
    outer loop
      vertex -5.86889 -1.24747 0
      vertex -10.7107 -2.27663 0
      vertex -6 0 0
    endloop
  endfacet
  facet normal 0 0 -1
    outer loop
      vertex -5.48127 2.44042 0
      vertex -10.0033 4.45377 0
      vertex -8.85874 6.43625 0
    endloop
  endfacet
  facet normal 0 0 -1
    outer loop
      vertex -10.95 0 0
      vertex -6 0 0
      vertex -10.7107 -2.27663 0
    endloop
  endfacet
  facet normal 0 0 -1
    outer loop
      vertex -5.86889 1.24747 0
      vertex -10.7107 2.27663 0
      vertex -10.0033 4.45377 0
    endloop
  endfacet
  facet normal 0 0 -1
    outer loop
      vertex -6 0 0
      vertex -10.95 0 0
      vertex -10.7107 2.27663 0
    endloop
  endfacet
  facet normal 0.406737 -0.913546 0
    outer loop
      vertex 3.38374 -10.4141 0
      vertex 5.475 -9.48298 6.9
      vertex 3.38374 -10.4141 6.9
    endloop
  endfacet
  facet normal 0.406737 -0.913546 0
    outer loop
      vertex 5.475 -9.48298 6.9
      vertex 3.38374 -10.4141 0
      vertex 5.475 -9.48298 0
    endloop
  endfacet
  facet normal -0.951057 -0.309017 0
    outer loop
      vertex -10.0033 -4.45377 0
      vertex -10.7107 -2.27663 6.9
      vertex -10.7107 -2.27663 0
    endloop
  endfacet
  facet normal -0.951057 -0.309017 0
    outer loop
      vertex -10.7107 -2.27663 6.9
      vertex -10.0033 -4.45377 0
      vertex -10.0033 -4.45377 6.9
    endloop
  endfacet
  facet normal -0.994522 -0.104529 0
    outer loop
      vertex -10.7107 -2.27663 0
      vertex -10.95 0 6.9
      vertex -10.95 0 0
    endloop
  endfacet
  facet normal -0.994522 -0.104529 0
    outer loop
      vertex -10.95 0 6.9
      vertex -10.7107 -2.27663 0
      vertex -10.7107 -2.27663 6.9
    endloop
  endfacet
  facet normal -0.743145 -0.669131 0
    outer loop
      vertex -7.32698 -8.13743 0
      vertex -8.85874 -6.43625 6.9
      vertex -8.85874 -6.43625 0
    endloop
  endfacet
  facet normal -0.743145 -0.669131 0
    outer loop
      vertex -8.85874 -6.43625 6.9
      vertex -7.32698 -8.13743 0
      vertex -7.32698 -8.13743 6.9
    endloop
  endfacet
  facet normal 0.743145 -0.669131 0
    outer loop
      vertex 7.32698 -8.13743 6.9
      vertex 8.85874 -6.43625 0
      vertex 8.85874 -6.43625 6.9
    endloop
  endfacet
  facet normal 0.743145 -0.669131 0
    outer loop
      vertex 8.85874 -6.43625 0
      vertex 7.32698 -8.13743 6.9
      vertex 7.32698 -8.13743 0
    endloop
  endfacet
  facet normal -0.587785 -0.809017 0
    outer loop
      vertex -7.32698 -8.13743 0
      vertex -5.475 -9.48298 6.9
      vertex -7.32698 -8.13743 6.9
    endloop
  endfacet
  facet normal -0.587785 -0.809017 -0
    outer loop
      vertex -5.475 -9.48298 6.9
      vertex -7.32698 -8.13743 0
      vertex -5.475 -9.48298 0
    endloop
  endfacet
  facet normal -0.406737 -0.913546 0
    outer loop
      vertex -5.475 -9.48298 0
      vertex -3.38374 -10.4141 6.9
      vertex -5.475 -9.48298 6.9
    endloop
  endfacet
  facet normal -0.406737 -0.913546 -0
    outer loop
      vertex -3.38374 -10.4141 6.9
      vertex -5.475 -9.48298 0
      vertex -3.38374 -10.4141 0
    endloop
  endfacet
  facet normal -0.207912 -0.978148 0
    outer loop
      vertex -3.38374 -10.4141 0
      vertex -1.14459 -10.89 6.9
      vertex -3.38374 -10.4141 6.9
    endloop
  endfacet
  facet normal -0.207912 -0.978148 -0
    outer loop
      vertex -1.14459 -10.89 6.9
      vertex -3.38374 -10.4141 0
      vertex -1.14459 -10.89 0
    endloop
  endfacet
  facet normal -0.904827 -0.425779 0
    outer loop
      vertex 7.53119 2.98181 1.8
      vertex 7.09808 3.9022 6.9
      vertex 7.09808 3.9022 1.8
    endloop
  endfacet
  facet normal -0.904827 -0.425779 0
    outer loop
      vertex 7.09808 3.9022 6.9
      vertex 7.53119 2.98181 1.8
      vertex 7.53119 2.98181 6.9
    endloop
  endfacet
  facet normal -0.844328 -0.535827 0
    outer loop
      vertex 7.09808 3.9022 1.8
      vertex 6.55304 4.76106 6.9
      vertex 6.55304 4.76106 1.8
    endloop
  endfacet
  facet normal -0.844328 -0.535827 0
    outer loop
      vertex 6.55304 4.76106 6.9
      vertex 7.09808 3.9022 1.8
      vertex 7.09808 3.9022 6.9
    endloop
  endfacet
  facet normal -0.368124 -0.929777 0
    outer loop
      vertex 2.50304 7.70356 1.8
      vertex 3.44881 7.3291 6.9
      vertex 2.50304 7.70356 6.9
    endloop
  endfacet
  facet normal -0.368124 -0.929777 -0
    outer loop
      vertex 3.44881 7.3291 6.9
      vertex 2.50304 7.70356 1.8
      vertex 3.44881 7.3291 1.8
    endloop
  endfacet
  facet normal 0.368124 -0.929777 0
    outer loop
      vertex -3.44881 7.3291 1.8
      vertex -2.50304 7.70356 6.9
      vertex -3.44881 7.3291 6.9
    endloop
  endfacet
  facet normal 0.368124 -0.929777 0
    outer loop
      vertex -2.50304 7.70356 6.9
      vertex -3.44881 7.3291 1.8
      vertex -2.50304 7.70356 1.8
    endloop
  endfacet
  facet normal 0.904827 -0.425779 0
    outer loop
      vertex -7.53119 2.98181 6.9
      vertex -7.09808 3.9022 1.8
      vertex -7.09808 3.9022 6.9
    endloop
  endfacet
  facet normal 0.904827 -0.425779 0
    outer loop
      vertex -7.09808 3.9022 1.8
      vertex -7.53119 2.98181 6.9
      vertex -7.53119 2.98181 1.8
    endloop
  endfacet
  facet normal -0.982287 0.187382 0
    outer loop
      vertex 7.84552 -2.01439 1.8
      vertex 8.03613 -1.0152 6.9
      vertex 8.03613 -1.0152 1.8
    endloop
  endfacet
  facet normal -0.982287 0.187382 0
    outer loop
      vertex 8.03613 -1.0152 6.9
      vertex 7.84552 -2.01439 1.8
      vertex 7.84552 -2.01439 6.9
    endloop
  endfacet
  facet normal 0 -1 0
    outer loop
      vertex -0.508603 8.08402 1.8
      vertex 0.508603 8.08402 6.9
      vertex -0.508603 8.08402 6.9
    endloop
  endfacet
  facet normal 0 -1 -0
    outer loop
      vertex 0.508603 8.08402 6.9
      vertex -0.508603 8.08402 1.8
      vertex 0.508603 8.08402 1.8
    endloop
  endfacet
  facet normal -0.587786 -0.809017 0
    outer loop
      vertex 4.3402 6.83906 1.8
      vertex 5.16313 6.24116 6.9
      vertex 4.3402 6.83906 6.9
    endloop
  endfacet
  facet normal -0.587786 -0.809017 -0
    outer loop
      vertex 5.16313 6.24116 6.9
      vertex 4.3402 6.83906 1.8
      vertex 5.16313 6.24116 1.8
    endloop
  endfacet
  facet normal 0.998027 -0.0627901 0
    outer loop
      vertex -8.1 0 6.9
      vertex -8.03613 1.0152 1.8
      vertex -8.03613 1.0152 6.9
    endloop
  endfacet
  facet normal 0.998027 -0.0627901 0
    outer loop
      vertex -8.03613 1.0152 1.8
      vertex -8.1 0 6.9
      vertex -8.1 0 1.8
    endloop
  endfacet
  facet normal 0.770513 -0.637424 0
    outer loop
      vertex -6.55304 4.76106 6.9
      vertex -5.90464 5.54483 1.8
      vertex -5.90464 5.54483 6.9
    endloop
  endfacet
  facet normal 0.770513 -0.637424 0
    outer loop
      vertex -5.90464 5.54483 1.8
      vertex -6.55304 4.76106 6.9
      vertex -6.55304 4.76106 1.8
    endloop
  endfacet
  facet normal 0.481753 -0.876307 0
    outer loop
      vertex -4.3402 6.83906 1.8
      vertex -3.44881 7.3291 6.9
      vertex -4.3402 6.83906 6.9
    endloop
  endfacet
  facet normal 0.481753 -0.876307 0
    outer loop
      vertex -3.44881 7.3291 6.9
      vertex -4.3402 6.83906 1.8
      vertex -3.44881 7.3291 1.8
    endloop
  endfacet
  facet normal 0.24869 -0.968583 0
    outer loop
      vertex -2.50304 7.70356 1.8
      vertex -1.51779 7.95653 6.9
      vertex -2.50304 7.70356 6.9
    endloop
  endfacet
  facet normal 0.24869 -0.968583 0
    outer loop
      vertex -1.51779 7.95653 6.9
      vertex -2.50304 7.70356 1.8
      vertex -1.51779 7.95653 1.8
    endloop
  endfacet
  facet normal -0.998027 0.0627901 0
    outer loop
      vertex 8.03613 -1.0152 1.8
      vertex 8.1 0 6.9
      vertex 8.1 0 1.8
    endloop
  endfacet
  facet normal -0.998027 0.0627901 0
    outer loop
      vertex 8.1 0 6.9
      vertex 8.03613 -1.0152 1.8
      vertex 8.03613 -1.0152 6.9
    endloop
  endfacet
  facet normal -0.951057 0.309017 0
    outer loop
      vertex 7.53119 -2.98181 1.8
      vertex 7.84552 -2.01439 6.9
      vertex 7.84552 -2.01439 1.8
    endloop
  endfacet
  facet normal -0.951057 0.309017 0
    outer loop
      vertex 7.84552 -2.01439 6.9
      vertex 7.53119 -2.98181 1.8
      vertex 7.53119 -2.98181 6.9
    endloop
  endfacet
  facet normal 0.684547 0.728969 -0
    outer loop
      vertex -5.16313 -6.24116 1.8
      vertex -5.90464 -5.54483 6.9
      vertex -5.16313 -6.24116 6.9
    endloop
  endfacet
  facet normal 0.684547 0.728969 0
    outer loop
      vertex -5.90464 -5.54483 6.9
      vertex -5.16313 -6.24116 1.8
      vertex -5.90464 -5.54483 1.8
    endloop
  endfacet
  facet normal -0.587786 0.809017 0
    outer loop
      vertex 5.16313 -6.24116 1.8
      vertex 4.3402 -6.83906 6.9
      vertex 5.16313 -6.24116 6.9
    endloop
  endfacet
  facet normal -0.587786 0.809017 0
    outer loop
      vertex 4.3402 -6.83906 6.9
      vertex 5.16313 -6.24116 1.8
      vertex 4.3402 -6.83906 1.8
    endloop
  endfacet
  facet normal -0.982287 -0.187382 0
    outer loop
      vertex 8.03613 1.0152 1.8
      vertex 7.84552 2.01439 6.9
      vertex 7.84552 2.01439 1.8
    endloop
  endfacet
  facet normal -0.982287 -0.187382 0
    outer loop
      vertex 7.84552 2.01439 6.9
      vertex 8.03613 1.0152 1.8
      vertex 8.03613 1.0152 6.9
    endloop
  endfacet
  facet normal -0.951057 -0.309017 0
    outer loop
      vertex 7.84552 2.01439 1.8
      vertex 7.53119 2.98181 6.9
      vertex 7.53119 2.98181 1.8
    endloop
  endfacet
  facet normal -0.951057 -0.309017 0
    outer loop
      vertex 7.53119 2.98181 6.9
      vertex 7.84552 2.01439 1.8
      vertex 7.84552 2.01439 6.9
    endloop
  endfacet
  facet normal -0.684547 -0.728969 0
    outer loop
      vertex 5.16313 6.24116 1.8
      vertex 5.90464 5.54483 6.9
      vertex 5.16313 6.24116 6.9
    endloop
  endfacet
  facet normal -0.684547 -0.728969 -0
    outer loop
      vertex 5.90464 5.54483 6.9
      vertex 5.16313 6.24116 1.8
      vertex 5.90464 5.54483 1.8
    endloop
  endfacet
  facet normal -0.770513 -0.637424 0
    outer loop
      vertex 6.55304 4.76106 1.8
      vertex 5.90464 5.54483 6.9
      vertex 5.90464 5.54483 1.8
    endloop
  endfacet
  facet normal -0.770513 -0.637424 0
    outer loop
      vertex 5.90464 5.54483 6.9
      vertex 6.55304 4.76106 1.8
      vertex 6.55304 4.76106 6.9
    endloop
  endfacet
  facet normal -0.24869 -0.968583 0
    outer loop
      vertex 1.51779 7.95653 1.8
      vertex 2.50304 7.70356 6.9
      vertex 1.51779 7.95653 6.9
    endloop
  endfacet
  facet normal -0.24869 -0.968583 -0
    outer loop
      vertex 2.50304 7.70356 6.9
      vertex 1.51779 7.95653 1.8
      vertex 2.50304 7.70356 1.8
    endloop
  endfacet
  facet normal -0.125334 -0.992115 0
    outer loop
      vertex 0.508603 8.08402 1.8
      vertex 1.51779 7.95653 6.9
      vertex 0.508603 8.08402 6.9
    endloop
  endfacet
  facet normal -0.125334 -0.992115 -0
    outer loop
      vertex 1.51779 7.95653 6.9
      vertex 0.508603 8.08402 1.8
      vertex 1.51779 7.95653 1.8
    endloop
  endfacet
  facet normal -0.481753 -0.876307 0
    outer loop
      vertex 3.44881 7.3291 1.8
      vertex 4.3402 6.83906 6.9
      vertex 3.44881 7.3291 6.9
    endloop
  endfacet
  facet normal -0.481753 -0.876307 -0
    outer loop
      vertex 4.3402 6.83906 6.9
      vertex 3.44881 7.3291 1.8
      vertex 4.3402 6.83906 1.8
    endloop
  endfacet
  facet normal 0.951057 -0.309017 0
    outer loop
      vertex -7.84552 2.01439 6.9
      vertex -7.53119 2.98181 1.8
      vertex -7.53119 2.98181 6.9
    endloop
  endfacet
  facet normal 0.951057 -0.309017 0
    outer loop
      vertex -7.53119 2.98181 1.8
      vertex -7.84552 2.01439 6.9
      vertex -7.84552 2.01439 1.8
    endloop
  endfacet
  facet normal 0.982287 -0.187382 0
    outer loop
      vertex -8.03613 1.0152 6.9
      vertex -7.84552 2.01439 1.8
      vertex -7.84552 2.01439 6.9
    endloop
  endfacet
  facet normal 0.982287 -0.187382 0
    outer loop
      vertex -7.84552 2.01439 1.8
      vertex -8.03613 1.0152 6.9
      vertex -8.03613 1.0152 1.8
    endloop
  endfacet
  facet normal 0.844328 -0.535827 0
    outer loop
      vertex -7.09808 3.9022 6.9
      vertex -6.55304 4.76106 1.8
      vertex -6.55304 4.76106 6.9
    endloop
  endfacet
  facet normal 0.844328 -0.535827 0
    outer loop
      vertex -6.55304 4.76106 1.8
      vertex -7.09808 3.9022 6.9
      vertex -7.09808 3.9022 1.8
    endloop
  endfacet
  facet normal 0.125334 -0.992115 0
    outer loop
      vertex -1.51779 7.95653 1.8
      vertex -0.508603 8.08402 6.9
      vertex -1.51779 7.95653 6.9
    endloop
  endfacet
  facet normal 0.125334 -0.992115 0
    outer loop
      vertex -0.508603 8.08402 6.9
      vertex -1.51779 7.95653 1.8
      vertex -0.508603 8.08402 1.8
    endloop
  endfacet
  facet normal 0.587786 -0.809017 0
    outer loop
      vertex -5.16313 6.24116 1.8
      vertex -4.3402 6.83906 6.9
      vertex -5.16313 6.24116 6.9
    endloop
  endfacet
  facet normal 0.587786 -0.809017 0
    outer loop
      vertex -4.3402 6.83906 6.9
      vertex -5.16313 6.24116 1.8
      vertex -4.3402 6.83906 1.8
    endloop
  endfacet
  facet normal 0.684547 -0.728969 0
    outer loop
      vertex -5.90464 5.54483 1.8
      vertex -5.16313 6.24116 6.9
      vertex -5.90464 5.54483 6.9
    endloop
  endfacet
  facet normal 0.684547 -0.728969 0
    outer loop
      vertex -5.16313 6.24116 6.9
      vertex -5.90464 5.54483 1.8
      vertex -5.16313 6.24116 1.8
    endloop
  endfacet
  facet normal -0.998027 -0.0627901 0
    outer loop
      vertex 8.1 0 1.8
      vertex 8.03613 1.0152 6.9
      vertex 8.03613 1.0152 1.8
    endloop
  endfacet
  facet normal -0.998027 -0.0627901 0
    outer loop
      vertex 8.03613 1.0152 6.9
      vertex 8.1 0 1.8
      vertex 8.1 0 6.9
    endloop
  endfacet
  facet normal 0 1 -0
    outer loop
      vertex 0.508603 -8.08402 1.8
      vertex -0.508603 -8.08402 6.9
      vertex 0.508603 -8.08402 6.9
    endloop
  endfacet
  facet normal 0 1 0
    outer loop
      vertex -0.508603 -8.08402 6.9
      vertex 0.508603 -8.08402 1.8
      vertex -0.508603 -8.08402 1.8
    endloop
  endfacet
  facet normal 0 0 1
    outer loop
      vertex 6 0 1.8
      vertex 8.1 0 1.8
      vertex 8.03613 1.0152 1.8
    endloop
  endfacet
  facet normal -0 0 1
    outer loop
      vertex 5.86889 1.24747 1.8
      vertex 8.03613 1.0152 1.8
      vertex 7.84552 2.01439 1.8
    endloop
  endfacet
  facet normal 0 0 1
    outer loop
      vertex 8.1 0 1.8
      vertex 6 0 1.8
      vertex 8.03613 -1.0152 1.8
    endloop
  endfacet
  facet normal 0 0 1
    outer loop
      vertex 5.86889 1.24747 1.8
      vertex 7.84552 2.01439 1.8
      vertex 7.53119 2.98181 1.8
    endloop
  endfacet
  facet normal 0 0 1
    outer loop
      vertex 5.86889 -1.24747 1.8
      vertex 8.03613 -1.0152 1.8
      vertex 6 0 1.8
    endloop
  endfacet
  facet normal 0 0 1
    outer loop
      vertex 5.48127 2.44042 1.8
      vertex 7.53119 2.98181 1.8
      vertex 7.09808 3.9022 1.8
    endloop
  endfacet
  facet normal 0 0 1
    outer loop
      vertex 8.03613 -1.0152 1.8
      vertex 5.86889 -1.24747 1.8
      vertex 7.84552 -2.01439 1.8
    endloop
  endfacet
  facet normal 0 0 1
    outer loop
      vertex 4.8541 3.52671 1.8
      vertex 7.09808 3.9022 1.8
      vertex 6.55304 4.76106 1.8
    endloop
  endfacet
  facet normal 0 0 1
    outer loop
      vertex 7.84552 -2.01439 1.8
      vertex 5.86889 -1.24747 1.8
      vertex 7.53119 -2.98181 1.8
    endloop
  endfacet
  facet normal -0 0 1
    outer loop
      vertex 5.48127 -2.44042 1.8
      vertex 7.53119 -2.98181 1.8
      vertex 5.86889 -1.24747 1.8
    endloop
  endfacet
  facet normal 0 0 1
    outer loop
      vertex 4.8541 3.52671 1.8
      vertex 6.55304 4.76106 1.8
      vertex 5.90464 5.54483 1.8
    endloop
  endfacet
  facet normal 0 0 1
    outer loop
      vertex 8.03613 1.0152 1.8
      vertex 5.86889 1.24747 1.8
      vertex 6 0 1.8
    endloop
  endfacet
  facet normal 0 0 1
    outer loop
      vertex 7.53119 2.98181 1.8
      vertex 5.48127 2.44042 1.8
      vertex 5.86889 1.24747 1.8
    endloop
  endfacet
  facet normal 0 0 1
    outer loop
      vertex 4.01478 4.45887 1.8
      vertex 5.90464 5.54483 1.8
      vertex 5.16313 6.24116 1.8
    endloop
  endfacet
  facet normal 0 0 1
    outer loop
      vertex 7.09808 3.9022 1.8
      vertex 4.8541 3.52671 1.8
      vertex 5.48127 2.44042 1.8
    endloop
  endfacet
  facet normal 0 0 1
    outer loop
      vertex 4.01478 4.45887 1.8
      vertex 5.16313 6.24116 1.8
      vertex 4.3402 6.83906 1.8
    endloop
  endfacet
  facet normal 0 0 1
    outer loop
      vertex 5.90464 5.54483 1.8
      vertex 4.01478 4.45887 1.8
      vertex 4.8541 3.52671 1.8
    endloop
  endfacet
  facet normal 0 0 1
    outer loop
      vertex 3 5.19615 1.8
      vertex 4.3402 6.83906 1.8
      vertex 3.44881 7.3291 1.8
    endloop
  endfacet
  facet normal 0 0 1
    outer loop
      vertex 4.3402 6.83906 1.8
      vertex 3 5.19615 1.8
      vertex 4.01478 4.45887 1.8
    endloop
  endfacet
  facet normal 0 0 1
    outer loop
      vertex 1.8541 5.70634 1.8
      vertex 3.44881 7.3291 1.8
      vertex 2.50304 7.70356 1.8
    endloop
  endfacet
  facet normal 0 0 1
    outer loop
      vertex 3.44881 7.3291 1.8
      vertex 1.8541 5.70634 1.8
      vertex 3 5.19615 1.8
    endloop
  endfacet
  facet normal 0 0 1
    outer loop
      vertex 1.51779 7.95653 1.8
      vertex 1.8541 5.70634 1.8
      vertex 2.50304 7.70356 1.8
    endloop
  endfacet
  facet normal 0 0 1
    outer loop
      vertex 1.51779 7.95653 1.8
      vertex 0.627171 5.96713 1.8
      vertex 1.8541 5.70634 1.8
    endloop
  endfacet
  facet normal 0 0 1
    outer loop
      vertex 0.508603 8.08402 1.8
      vertex 0.627171 5.96713 1.8
      vertex 1.51779 7.95653 1.8
    endloop
  endfacet
  facet normal -0 0 1
    outer loop
      vertex -0.508603 8.08402 1.8
      vertex 0.627171 5.96713 1.8
      vertex 0.508603 8.08402 1.8
    endloop
  endfacet
  facet normal 0 0 1
    outer loop
      vertex -0.508603 8.08402 1.8
      vertex -0.627171 5.96713 1.8
      vertex 0.627171 5.96713 1.8
    endloop
  endfacet
  facet normal -0 0 1
    outer loop
      vertex -1.51779 7.95653 1.8
      vertex -0.627171 5.96713 1.8
      vertex -0.508603 8.08402 1.8
    endloop
  endfacet
  facet normal 0 0 1
    outer loop
      vertex -1.51779 7.95653 1.8
      vertex -1.8541 5.70634 1.8
      vertex -0.627171 5.96713 1.8
    endloop
  endfacet
  facet normal -0 0 1
    outer loop
      vertex -2.50304 7.70356 1.8
      vertex -1.8541 5.70634 1.8
      vertex -1.51779 7.95653 1.8
    endloop
  endfacet
  facet normal -0 0 1
    outer loop
      vertex -3.44881 7.3291 1.8
      vertex -1.8541 5.70634 1.8
      vertex -2.50304 7.70356 1.8
    endloop
  endfacet
  facet normal 0 0 1
    outer loop
      vertex -1.8541 5.70634 1.8
      vertex -3.44881 7.3291 1.8
      vertex -3 5.19615 1.8
    endloop
  endfacet
  facet normal -0 0 1
    outer loop
      vertex -4.3402 6.83906 1.8
      vertex -3 5.19615 1.8
      vertex -3.44881 7.3291 1.8
    endloop
  endfacet
  facet normal 0 0 1
    outer loop
      vertex -3 5.19615 1.8
      vertex -4.3402 6.83906 1.8
      vertex -4.01478 4.45887 1.8
    endloop
  endfacet
  facet normal -0 0 1
    outer loop
      vertex -5.16313 6.24116 1.8
      vertex -4.01478 4.45887 1.8
      vertex -4.3402 6.83906 1.8
    endloop
  endfacet
  facet normal -0 0 1
    outer loop
      vertex -5.90464 5.54483 1.8
      vertex -4.01478 4.45887 1.8
      vertex -5.16313 6.24116 1.8
    endloop
  endfacet
  facet normal 0 0 1
    outer loop
      vertex -4.01478 4.45887 1.8
      vertex -5.90464 5.54483 1.8
      vertex -4.8541 3.52671 1.8
    endloop
  endfacet
  facet normal -0 0 1
    outer loop
      vertex -6.55304 4.76106 1.8
      vertex -4.8541 3.52671 1.8
      vertex -5.90464 5.54483 1.8
    endloop
  endfacet
  facet normal -0 0 1
    outer loop
      vertex -7.09808 3.9022 1.8
      vertex -4.8541 3.52671 1.8
      vertex -6.55304 4.76106 1.8
    endloop
  endfacet
  facet normal 0 0 1
    outer loop
      vertex -4.8541 3.52671 1.8
      vertex -7.09808 3.9022 1.8
      vertex -5.48127 2.44042 1.8
    endloop
  endfacet
  facet normal -0 0 1
    outer loop
      vertex -7.53119 2.98181 1.8
      vertex -5.48127 2.44042 1.8
      vertex -7.09808 3.9022 1.8
    endloop
  endfacet
  facet normal 0 0 1
    outer loop
      vertex 7.53119 -2.98181 1.8
      vertex 5.48127 -2.44042 1.8
      vertex 7.09808 -3.9022 1.8
    endloop
  endfacet
  facet normal -0 0 1
    outer loop
      vertex 4.8541 -3.52671 1.8
      vertex 7.09808 -3.9022 1.8
      vertex 5.48127 -2.44042 1.8
    endloop
  endfacet
  facet normal 0 0 1
    outer loop
      vertex 7.09808 -3.9022 1.8
      vertex 4.8541 -3.52671 1.8
      vertex 6.55304 -4.76106 1.8
    endloop
  endfacet
  facet normal 0 0 1
    outer loop
      vertex 6.55304 -4.76106 1.8
      vertex 4.8541 -3.52671 1.8
      vertex 5.90464 -5.54483 1.8
    endloop
  endfacet
  facet normal -0 0 1
    outer loop
      vertex 4.01478 -4.45887 1.8
      vertex 5.90464 -5.54483 1.8
      vertex 4.8541 -3.52671 1.8
    endloop
  endfacet
  facet normal 0 0 1
    outer loop
      vertex 5.90464 -5.54483 1.8
      vertex 4.01478 -4.45887 1.8
      vertex 5.16313 -6.24116 1.8
    endloop
  endfacet
  facet normal 0 0 1
    outer loop
      vertex 5.16313 -6.24116 1.8
      vertex 4.01478 -4.45887 1.8
      vertex 4.3402 -6.83906 1.8
    endloop
  endfacet
  facet normal -0 0 1
    outer loop
      vertex 3 -5.19615 1.8
      vertex 4.3402 -6.83906 1.8
      vertex 4.01478 -4.45887 1.8
    endloop
  endfacet
  facet normal 0 0 1
    outer loop
      vertex 4.3402 -6.83906 1.8
      vertex 3 -5.19615 1.8
      vertex 3.44881 -7.3291 1.8
    endloop
  endfacet
  facet normal -0 0 1
    outer loop
      vertex 1.8541 -5.70634 1.8
      vertex 3.44881 -7.3291 1.8
      vertex 3 -5.19615 1.8
    endloop
  endfacet
  facet normal 0 0 1
    outer loop
      vertex 3.44881 -7.3291 1.8
      vertex 1.8541 -5.70634 1.8
      vertex 2.50304 -7.70356 1.8
    endloop
  endfacet
  facet normal 0 0 1
    outer loop
      vertex 1.8541 -5.70634 1.8
      vertex 1.51779 -7.95653 1.8
      vertex 2.50304 -7.70356 1.8
    endloop
  endfacet
  facet normal -0 0 1
    outer loop
      vertex 0.627171 -5.96713 1.8
      vertex 1.51779 -7.95653 1.8
      vertex 1.8541 -5.70634 1.8
    endloop
  endfacet
  facet normal 0 0 1
    outer loop
      vertex 0.627171 -5.96713 1.8
      vertex 0.508603 -8.08402 1.8
      vertex 1.51779 -7.95653 1.8
    endloop
  endfacet
  facet normal 0 0 1
    outer loop
      vertex 0.627171 -5.96713 1.8
      vertex -0.508603 -8.08402 1.8
      vertex 0.508603 -8.08402 1.8
    endloop
  endfacet
  facet normal -0 0 1
    outer loop
      vertex -0.627171 -5.96713 1.8
      vertex -0.508603 -8.08402 1.8
      vertex 0.627171 -5.96713 1.8
    endloop
  endfacet
  facet normal 0 0 1
    outer loop
      vertex -0.627171 -5.96713 1.8
      vertex -1.51779 -7.95653 1.8
      vertex -0.508603 -8.08402 1.8
    endloop
  endfacet
  facet normal 0 0 1
    outer loop
      vertex -1.8541 -5.70634 1.8
      vertex -1.51779 -7.95653 1.8
      vertex -0.627171 -5.96713 1.8
    endloop
  endfacet
  facet normal 0 0 1
    outer loop
      vertex -1.8541 -5.70634 1.8
      vertex -2.50304 -7.70356 1.8
      vertex -1.51779 -7.95653 1.8
    endloop
  endfacet
  facet normal 0 0 1
    outer loop
      vertex -3.44881 -7.3291 1.8
      vertex -1.8541 -5.70634 1.8
      vertex -3 -5.19615 1.8
    endloop
  endfacet
  facet normal 0 0 1
    outer loop
      vertex -1.8541 -5.70634 1.8
      vertex -3.44881 -7.3291 1.8
      vertex -2.50304 -7.70356 1.8
    endloop
  endfacet
  facet normal 0 0 1
    outer loop
      vertex -4.3402 -6.83906 1.8
      vertex -3 -5.19615 1.8
      vertex -4.01478 -4.45887 1.8
    endloop
  endfacet
  facet normal 0 0 1
    outer loop
      vertex -3 -5.19615 1.8
      vertex -4.3402 -6.83906 1.8
      vertex -3.44881 -7.3291 1.8
    endloop
  endfacet
  facet normal 0 0 1
    outer loop
      vertex -5.90464 -5.54483 1.8
      vertex -4.01478 -4.45887 1.8
      vertex -4.8541 -3.52671 1.8
    endloop
  endfacet
  facet normal 0 0 1
    outer loop
      vertex -4.01478 -4.45887 1.8
      vertex -5.16313 -6.24116 1.8
      vertex -4.3402 -6.83906 1.8
    endloop
  endfacet
  facet normal 0 0 1
    outer loop
      vertex -7.09808 -3.9022 1.8
      vertex -4.8541 -3.52671 1.8
      vertex -5.48127 -2.44042 1.8
    endloop
  endfacet
  facet normal 0 0 1
    outer loop
      vertex -7.53119 -2.98181 1.8
      vertex -5.48127 -2.44042 1.8
      vertex -5.86889 -1.24747 1.8
    endloop
  endfacet
  facet normal 0 0 1
    outer loop
      vertex -4.01478 -4.45887 1.8
      vertex -5.90464 -5.54483 1.8
      vertex -5.16313 -6.24116 1.8
    endloop
  endfacet
  facet normal -0 0 1
    outer loop
      vertex -8.03613 -1.0152 1.8
      vertex -5.86889 -1.24747 1.8
      vertex -6 0 1.8
    endloop
  endfacet
  facet normal 0 0 1
    outer loop
      vertex -5.48127 2.44042 1.8
      vertex -7.53119 2.98181 1.8
      vertex -5.86889 1.24747 1.8
    endloop
  endfacet
  facet normal 0 0 1
    outer loop
      vertex -4.8541 -3.52671 1.8
      vertex -6.55304 -4.76106 1.8
      vertex -5.90464 -5.54483 1.8
    endloop
  endfacet
  facet normal -0 0 1
    outer loop
      vertex -7.84552 2.01439 1.8
      vertex -5.86889 1.24747 1.8
      vertex -7.53119 2.98181 1.8
    endloop
  endfacet
  facet normal 0 0 1
    outer loop
      vertex -4.8541 -3.52671 1.8
      vertex -7.09808 -3.9022 1.8
      vertex -6.55304 -4.76106 1.8
    endloop
  endfacet
  facet normal 0 0 1
    outer loop
      vertex -8.03613 1.0152 1.8
      vertex -5.86889 1.24747 1.8
      vertex -7.84552 2.01439 1.8
    endloop
  endfacet
  facet normal 0 0 1
    outer loop
      vertex -5.48127 -2.44042 1.8
      vertex -7.53119 -2.98181 1.8
      vertex -7.09808 -3.9022 1.8
    endloop
  endfacet
  facet normal 0 0 1
    outer loop
      vertex -5.86889 1.24747 1.8
      vertex -8.03613 1.0152 1.8
      vertex -6 0 1.8
    endloop
  endfacet
  facet normal 0 0 1
    outer loop
      vertex -5.86889 -1.24747 1.8
      vertex -7.84552 -2.01439 1.8
      vertex -7.53119 -2.98181 1.8
    endloop
  endfacet
  facet normal 0 0 1
    outer loop
      vertex -8.1 0 1.8
      vertex -6 0 1.8
      vertex -8.03613 1.0152 1.8
    endloop
  endfacet
  facet normal 0 0 1
    outer loop
      vertex -5.86889 -1.24747 1.8
      vertex -8.03613 -1.0152 1.8
      vertex -7.84552 -2.01439 1.8
    endloop
  endfacet
  facet normal 0 0 1
    outer loop
      vertex -6 0 1.8
      vertex -8.1 0 1.8
      vertex -8.03613 -1.0152 1.8
    endloop
  endfacet
  facet normal 0.770513 0.637424 0
    outer loop
      vertex -5.90464 -5.54483 6.9
      vertex -6.55304 -4.76106 1.8
      vertex -6.55304 -4.76106 6.9
    endloop
  endfacet
  facet normal 0.770513 0.637424 0
    outer loop
      vertex -6.55304 -4.76106 1.8
      vertex -5.90464 -5.54483 6.9
      vertex -5.90464 -5.54483 1.8
    endloop
  endfacet
  facet normal 0.368124 0.929777 -0
    outer loop
      vertex -2.50304 -7.70356 1.8
      vertex -3.44881 -7.3291 6.9
      vertex -2.50304 -7.70356 6.9
    endloop
  endfacet
  facet normal 0.368124 0.929777 0
    outer loop
      vertex -3.44881 -7.3291 6.9
      vertex -2.50304 -7.70356 1.8
      vertex -3.44881 -7.3291 1.8
    endloop
  endfacet
  facet normal 0.951057 0.309017 0
    outer loop
      vertex -7.53119 -2.98181 6.9
      vertex -7.84552 -2.01439 1.8
      vertex -7.84552 -2.01439 6.9
    endloop
  endfacet
  facet normal 0.951057 0.309017 0
    outer loop
      vertex -7.84552 -2.01439 1.8
      vertex -7.53119 -2.98181 6.9
      vertex -7.53119 -2.98181 1.8
    endloop
  endfacet
  facet normal 0.982287 0.187382 0
    outer loop
      vertex -7.84552 -2.01439 6.9
      vertex -8.03613 -1.0152 1.8
      vertex -8.03613 -1.0152 6.9
    endloop
  endfacet
  facet normal 0.982287 0.187382 0
    outer loop
      vertex -8.03613 -1.0152 1.8
      vertex -7.84552 -2.01439 6.9
      vertex -7.84552 -2.01439 1.8
    endloop
  endfacet
  facet normal 0.998027 0.0627901 0
    outer loop
      vertex -8.03613 -1.0152 6.9
      vertex -8.1 0 1.8
      vertex -8.1 0 6.9
    endloop
  endfacet
  facet normal 0.998027 0.0627901 0
    outer loop
      vertex -8.1 0 1.8
      vertex -8.03613 -1.0152 6.9
      vertex -8.03613 -1.0152 1.8
    endloop
  endfacet
  facet normal -0.481753 0.876307 0
    outer loop
      vertex 4.3402 -6.83906 1.8
      vertex 3.44881 -7.3291 6.9
      vertex 4.3402 -6.83906 6.9
    endloop
  endfacet
  facet normal -0.481753 0.876307 0
    outer loop
      vertex 3.44881 -7.3291 6.9
      vertex 4.3402 -6.83906 1.8
      vertex 3.44881 -7.3291 1.8
    endloop
  endfacet
  facet normal -0.368124 0.929777 0
    outer loop
      vertex 3.44881 -7.3291 1.8
      vertex 2.50304 -7.70356 6.9
      vertex 3.44881 -7.3291 6.9
    endloop
  endfacet
  facet normal -0.368124 0.929777 0
    outer loop
      vertex 2.50304 -7.70356 6.9
      vertex 3.44881 -7.3291 1.8
      vertex 2.50304 -7.70356 1.8
    endloop
  endfacet
  facet normal -0.770513 0.637424 0
    outer loop
      vertex 5.90464 -5.54483 1.8
      vertex 6.55304 -4.76106 6.9
      vertex 6.55304 -4.76106 1.8
    endloop
  endfacet
  facet normal -0.770513 0.637424 0
    outer loop
      vertex 6.55304 -4.76106 6.9
      vertex 5.90464 -5.54483 1.8
      vertex 5.90464 -5.54483 6.9
    endloop
  endfacet
  facet normal -0.904827 0.425779 0
    outer loop
      vertex 7.09808 -3.9022 1.8
      vertex 7.53119 -2.98181 6.9
      vertex 7.53119 -2.98181 1.8
    endloop
  endfacet
  facet normal -0.904827 0.425779 0
    outer loop
      vertex 7.53119 -2.98181 6.9
      vertex 7.09808 -3.9022 1.8
      vertex 7.09808 -3.9022 6.9
    endloop
  endfacet
  facet normal -0.844328 0.535827 0
    outer loop
      vertex 6.55304 -4.76106 1.8
      vertex 7.09808 -3.9022 6.9
      vertex 7.09808 -3.9022 1.8
    endloop
  endfacet
  facet normal -0.844328 0.535827 0
    outer loop
      vertex 7.09808 -3.9022 6.9
      vertex 6.55304 -4.76106 1.8
      vertex 6.55304 -4.76106 6.9
    endloop
  endfacet
  facet normal 0.125334 0.992115 -0
    outer loop
      vertex -0.508603 -8.08402 1.8
      vertex -1.51779 -7.95653 6.9
      vertex -0.508603 -8.08402 6.9
    endloop
  endfacet
  facet normal 0.125334 0.992115 0
    outer loop
      vertex -1.51779 -7.95653 6.9
      vertex -0.508603 -8.08402 1.8
      vertex -1.51779 -7.95653 1.8
    endloop
  endfacet
  facet normal 0.481753 0.876307 -0
    outer loop
      vertex -3.44881 -7.3291 1.8
      vertex -4.3402 -6.83906 6.9
      vertex -3.44881 -7.3291 6.9
    endloop
  endfacet
  facet normal 0.481753 0.876307 0
    outer loop
      vertex -4.3402 -6.83906 6.9
      vertex -3.44881 -7.3291 1.8
      vertex -4.3402 -6.83906 1.8
    endloop
  endfacet
  facet normal 0.844328 0.535827 0
    outer loop
      vertex -6.55304 -4.76106 6.9
      vertex -7.09808 -3.9022 1.8
      vertex -7.09808 -3.9022 6.9
    endloop
  endfacet
  facet normal 0.844328 0.535827 0
    outer loop
      vertex -7.09808 -3.9022 1.8
      vertex -6.55304 -4.76106 6.9
      vertex -6.55304 -4.76106 1.8
    endloop
  endfacet
  facet normal 0.904827 0.425779 0
    outer loop
      vertex -7.09808 -3.9022 6.9
      vertex -7.53119 -2.98181 1.8
      vertex -7.53119 -2.98181 6.9
    endloop
  endfacet
  facet normal 0.904827 0.425779 0
    outer loop
      vertex -7.53119 -2.98181 1.8
      vertex -7.09808 -3.9022 6.9
      vertex -7.09808 -3.9022 1.8
    endloop
  endfacet
  facet normal -0.24869 0.968583 0
    outer loop
      vertex 2.50304 -7.70356 1.8
      vertex 1.51779 -7.95653 6.9
      vertex 2.50304 -7.70356 6.9
    endloop
  endfacet
  facet normal -0.24869 0.968583 0
    outer loop
      vertex 1.51779 -7.95653 6.9
      vertex 2.50304 -7.70356 1.8
      vertex 1.51779 -7.95653 1.8
    endloop
  endfacet
  facet normal -0.125334 0.992115 0
    outer loop
      vertex 1.51779 -7.95653 1.8
      vertex 0.508603 -8.08402 6.9
      vertex 1.51779 -7.95653 6.9
    endloop
  endfacet
  facet normal -0.125334 0.992115 0
    outer loop
      vertex 0.508603 -8.08402 6.9
      vertex 1.51779 -7.95653 1.8
      vertex 0.508603 -8.08402 1.8
    endloop
  endfacet
  facet normal -0.684547 0.728969 0
    outer loop
      vertex 5.90464 -5.54483 1.8
      vertex 5.16313 -6.24116 6.9
      vertex 5.90464 -5.54483 6.9
    endloop
  endfacet
  facet normal -0.684547 0.728969 0
    outer loop
      vertex 5.16313 -6.24116 6.9
      vertex 5.90464 -5.54483 1.8
      vertex 5.16313 -6.24116 1.8
    endloop
  endfacet
  facet normal 0.587786 0.809017 -0
    outer loop
      vertex -4.3402 -6.83906 1.8
      vertex -5.16313 -6.24116 6.9
      vertex -4.3402 -6.83906 6.9
    endloop
  endfacet
  facet normal 0.587786 0.809017 0
    outer loop
      vertex -5.16313 -6.24116 6.9
      vertex -4.3402 -6.83906 1.8
      vertex -5.16313 -6.24116 1.8
    endloop
  endfacet
  facet normal 0.24869 0.968583 -0
    outer loop
      vertex -1.51779 -7.95653 1.8
      vertex -2.50304 -7.70356 6.9
      vertex -1.51779 -7.95653 6.9
    endloop
  endfacet
  facet normal 0.24869 0.968583 0
    outer loop
      vertex -2.50304 -7.70356 6.9
      vertex -1.51779 -7.95653 1.8
      vertex -2.50304 -7.70356 1.8
    endloop
  endfacet
  facet normal -0.994522 -0.104529 0
    outer loop
      vertex 6 0 0
      vertex 5.86889 1.24747 1.8
      vertex 5.86889 1.24747 0
    endloop
  endfacet
  facet normal -0.994522 -0.104529 0
    outer loop
      vertex 5.86889 1.24747 1.8
      vertex 6 0 0
      vertex 6 0 1.8
    endloop
  endfacet
  facet normal 0.994522 -0.104529 0
    outer loop
      vertex -6 0 1.8
      vertex -5.86889 1.24747 0
      vertex -5.86889 1.24747 1.8
    endloop
  endfacet
  facet normal 0.994522 -0.104529 0
    outer loop
      vertex -5.86889 1.24747 0
      vertex -6 0 1.8
      vertex -6 0 0
    endloop
  endfacet
  facet normal 0 -1 0
    outer loop
      vertex -0.627171 5.96713 0
      vertex 0.627171 5.96713 1.8
      vertex -0.627171 5.96713 1.8
    endloop
  endfacet
  facet normal 0 -1 -0
    outer loop
      vertex 0.627171 5.96713 1.8
      vertex -0.627171 5.96713 0
      vertex 0.627171 5.96713 0
    endloop
  endfacet
  facet normal 0 1 -0
    outer loop
      vertex 0.627171 -5.96713 0
      vertex -0.627171 -5.96713 1.8
      vertex 0.627171 -5.96713 1.8
    endloop
  endfacet
  facet normal 0 1 0
    outer loop
      vertex -0.627171 -5.96713 1.8
      vertex 0.627171 -5.96713 0
      vertex -0.627171 -5.96713 0
    endloop
  endfacet
  facet normal -0.587786 -0.809017 0
    outer loop
      vertex 3 5.19615 0
      vertex 4.01478 4.45887 1.8
      vertex 3 5.19615 1.8
    endloop
  endfacet
  facet normal -0.587786 -0.809017 -0
    outer loop
      vertex 4.01478 4.45887 1.8
      vertex 3 5.19615 0
      vertex 4.01478 4.45887 0
    endloop
  endfacet
  facet normal -0.406737 -0.913545 0
    outer loop
      vertex 1.8541 5.70634 0
      vertex 3 5.19615 1.8
      vertex 1.8541 5.70634 1.8
    endloop
  endfacet
  facet normal -0.406737 -0.913545 -0
    outer loop
      vertex 3 5.19615 1.8
      vertex 1.8541 5.70634 0
      vertex 3 5.19615 0
    endloop
  endfacet
  facet normal 0.743145 -0.669131 0
    outer loop
      vertex -4.8541 3.52671 1.8
      vertex -4.01478 4.45887 0
      vertex -4.01478 4.45887 1.8
    endloop
  endfacet
  facet normal 0.743145 -0.669131 0
    outer loop
      vertex -4.01478 4.45887 0
      vertex -4.8541 3.52671 1.8
      vertex -4.8541 3.52671 0
    endloop
  endfacet
  facet normal 0.866025 -0.5 0
    outer loop
      vertex -5.48127 2.44042 1.8
      vertex -4.8541 3.52671 0
      vertex -4.8541 3.52671 1.8
    endloop
  endfacet
  facet normal 0.866025 -0.5 0
    outer loop
      vertex -4.8541 3.52671 0
      vertex -5.48127 2.44042 1.8
      vertex -5.48127 2.44042 0
    endloop
  endfacet
  facet normal 0.406737 -0.913545 0
    outer loop
      vertex -3 5.19615 0
      vertex -1.8541 5.70634 1.8
      vertex -3 5.19615 1.8
    endloop
  endfacet
  facet normal 0.406737 -0.913545 0
    outer loop
      vertex -1.8541 5.70634 1.8
      vertex -3 5.19615 0
      vertex -1.8541 5.70634 0
    endloop
  endfacet
  facet normal -0.866025 -0.5 0
    outer loop
      vertex 5.48127 2.44042 0
      vertex 4.8541 3.52671 1.8
      vertex 4.8541 3.52671 0
    endloop
  endfacet
  facet normal -0.866025 -0.5 0
    outer loop
      vertex 4.8541 3.52671 1.8
      vertex 5.48127 2.44042 0
      vertex 5.48127 2.44042 1.8
    endloop
  endfacet
  facet normal -0.951057 -0.309017 0
    outer loop
      vertex 5.86889 1.24747 0
      vertex 5.48127 2.44042 1.8
      vertex 5.48127 2.44042 0
    endloop
  endfacet
  facet normal -0.951057 -0.309017 0
    outer loop
      vertex 5.48127 2.44042 1.8
      vertex 5.86889 1.24747 0
      vertex 5.86889 1.24747 1.8
    endloop
  endfacet
  facet normal -0.743145 -0.669131 0
    outer loop
      vertex 4.8541 3.52671 0
      vertex 4.01478 4.45887 1.8
      vertex 4.01478 4.45887 0
    endloop
  endfacet
  facet normal -0.743145 -0.669131 0
    outer loop
      vertex 4.01478 4.45887 1.8
      vertex 4.8541 3.52671 0
      vertex 4.8541 3.52671 1.8
    endloop
  endfacet
  facet normal -0.207911 -0.978148 0
    outer loop
      vertex 0.627171 5.96713 0
      vertex 1.8541 5.70634 1.8
      vertex 0.627171 5.96713 1.8
    endloop
  endfacet
  facet normal -0.207911 -0.978148 -0
    outer loop
      vertex 1.8541 5.70634 1.8
      vertex 0.627171 5.96713 0
      vertex 1.8541 5.70634 0
    endloop
  endfacet
  facet normal 0.951057 -0.309017 0
    outer loop
      vertex -5.86889 1.24747 1.8
      vertex -5.48127 2.44042 0
      vertex -5.48127 2.44042 1.8
    endloop
  endfacet
  facet normal 0.951057 -0.309017 0
    outer loop
      vertex -5.48127 2.44042 0
      vertex -5.86889 1.24747 1.8
      vertex -5.86889 1.24747 0
    endloop
  endfacet
  facet normal 0.587785 -0.809017 0
    outer loop
      vertex -4.01478 4.45887 0
      vertex -3 5.19615 1.8
      vertex -4.01478 4.45887 1.8
    endloop
  endfacet
  facet normal 0.587785 -0.809017 0
    outer loop
      vertex -3 5.19615 1.8
      vertex -4.01478 4.45887 0
      vertex -3 5.19615 0
    endloop
  endfacet
  facet normal 0.207911 -0.978148 0
    outer loop
      vertex -1.8541 5.70634 0
      vertex -0.627171 5.96713 1.8
      vertex -1.8541 5.70634 1.8
    endloop
  endfacet
  facet normal 0.207911 -0.978148 0
    outer loop
      vertex -0.627171 5.96713 1.8
      vertex -1.8541 5.70634 0
      vertex -0.627171 5.96713 0
    endloop
  endfacet
  facet normal -0.994522 0.104529 0
    outer loop
      vertex 5.86889 -1.24747 0
      vertex 6 0 1.8
      vertex 6 0 0
    endloop
  endfacet
  facet normal -0.994522 0.104529 0
    outer loop
      vertex 6 0 1.8
      vertex 5.86889 -1.24747 0
      vertex 5.86889 -1.24747 1.8
    endloop
  endfacet
  facet normal -0.207911 0.978148 0
    outer loop
      vertex 1.8541 -5.70634 0
      vertex 0.627171 -5.96713 1.8
      vertex 1.8541 -5.70634 1.8
    endloop
  endfacet
  facet normal -0.207911 0.978148 0
    outer loop
      vertex 0.627171 -5.96713 1.8
      vertex 1.8541 -5.70634 0
      vertex 0.627171 -5.96713 0
    endloop
  endfacet
  facet normal -0.866025 0.5 0
    outer loop
      vertex 4.8541 -3.52671 0
      vertex 5.48127 -2.44042 1.8
      vertex 5.48127 -2.44042 0
    endloop
  endfacet
  facet normal -0.866025 0.5 0
    outer loop
      vertex 5.48127 -2.44042 1.8
      vertex 4.8541 -3.52671 0
      vertex 4.8541 -3.52671 1.8
    endloop
  endfacet
  facet normal 0.866025 0.5 0
    outer loop
      vertex -4.8541 -3.52671 1.8
      vertex -5.48127 -2.44042 0
      vertex -5.48127 -2.44042 1.8
    endloop
  endfacet
  facet normal 0.866025 0.5 0
    outer loop
      vertex -5.48127 -2.44042 0
      vertex -4.8541 -3.52671 1.8
      vertex -4.8541 -3.52671 0
    endloop
  endfacet
  facet normal 0.994522 0.104529 0
    outer loop
      vertex -5.86889 -1.24747 1.8
      vertex -6 0 0
      vertex -6 0 1.8
    endloop
  endfacet
  facet normal 0.994522 0.104529 0
    outer loop
      vertex -6 0 0
      vertex -5.86889 -1.24747 1.8
      vertex -5.86889 -1.24747 0
    endloop
  endfacet
  facet normal -0.587786 0.809017 0
    outer loop
      vertex 4.01478 -4.45887 0
      vertex 3 -5.19615 1.8
      vertex 4.01478 -4.45887 1.8
    endloop
  endfacet
  facet normal -0.587786 0.809017 0
    outer loop
      vertex 3 -5.19615 1.8
      vertex 4.01478 -4.45887 0
      vertex 3 -5.19615 0
    endloop
  endfacet
  facet normal -0.406737 0.913545 0
    outer loop
      vertex 3 -5.19615 0
      vertex 1.8541 -5.70634 1.8
      vertex 3 -5.19615 1.8
    endloop
  endfacet
  facet normal -0.406737 0.913545 0
    outer loop
      vertex 1.8541 -5.70634 1.8
      vertex 3 -5.19615 0
      vertex 1.8541 -5.70634 0
    endloop
  endfacet
  facet normal -0.951057 0.309017 0
    outer loop
      vertex 5.48127 -2.44042 0
      vertex 5.86889 -1.24747 1.8
      vertex 5.86889 -1.24747 0
    endloop
  endfacet
  facet normal -0.951057 0.309017 0
    outer loop
      vertex 5.86889 -1.24747 1.8
      vertex 5.48127 -2.44042 0
      vertex 5.48127 -2.44042 1.8
    endloop
  endfacet
  facet normal 0.743145 0.669131 0
    outer loop
      vertex -4.01478 -4.45887 1.8
      vertex -4.8541 -3.52671 0
      vertex -4.8541 -3.52671 1.8
    endloop
  endfacet
  facet normal 0.743145 0.669131 0
    outer loop
      vertex -4.8541 -3.52671 0
      vertex -4.01478 -4.45887 1.8
      vertex -4.01478 -4.45887 0
    endloop
  endfacet
  facet normal 0.951057 0.309017 0
    outer loop
      vertex -5.48127 -2.44042 1.8
      vertex -5.86889 -1.24747 0
      vertex -5.86889 -1.24747 1.8
    endloop
  endfacet
  facet normal 0.951057 0.309017 0
    outer loop
      vertex -5.86889 -1.24747 0
      vertex -5.48127 -2.44042 1.8
      vertex -5.48127 -2.44042 0
    endloop
  endfacet
  facet normal -0.743145 0.669131 0
    outer loop
      vertex 4.01478 -4.45887 0
      vertex 4.8541 -3.52671 1.8
      vertex 4.8541 -3.52671 0
    endloop
  endfacet
  facet normal -0.743145 0.669131 0
    outer loop
      vertex 4.8541 -3.52671 1.8
      vertex 4.01478 -4.45887 0
      vertex 4.01478 -4.45887 1.8
    endloop
  endfacet
  facet normal 0.587786 0.809017 -0
    outer loop
      vertex -3 -5.19615 0
      vertex -4.01478 -4.45887 1.8
      vertex -3 -5.19615 1.8
    endloop
  endfacet
  facet normal 0.587786 0.809017 0
    outer loop
      vertex -4.01478 -4.45887 1.8
      vertex -3 -5.19615 0
      vertex -4.01478 -4.45887 0
    endloop
  endfacet
  facet normal 0.406737 0.913545 -0
    outer loop
      vertex -1.8541 -5.70634 0
      vertex -3 -5.19615 1.8
      vertex -1.8541 -5.70634 1.8
    endloop
  endfacet
  facet normal 0.406737 0.913545 0
    outer loop
      vertex -3 -5.19615 1.8
      vertex -1.8541 -5.70634 0
      vertex -3 -5.19615 0
    endloop
  endfacet
  facet normal 0.207911 0.978148 -0
    outer loop
      vertex -0.627171 -5.96713 0
      vertex -1.8541 -5.70634 1.8
      vertex -0.627171 -5.96713 1.8
    endloop
  endfacet
  facet normal 0.207911 0.978148 0
    outer loop
      vertex -1.8541 -5.70634 1.8
      vertex -0.627171 -5.96713 0
      vertex -1.8541 -5.70634 0
    endloop
  endfacet
endsolid OpenSCAD_Model
