solid OpenSCAD_Model
  facet normal 0.904827 0.425779 0
    outer loop
      vertex 15.8062 6.25812 8.33
      vertex 14.8972 8.18981 0
      vertex 14.8972 8.18981 8.33
    endloop
  endfacet
  facet normal 0.904827 0.425779 0
    outer loop
      vertex 14.8972 8.18981 0
      vertex 15.8062 6.25812 8.33
      vertex 15.8062 6.25812 0
    endloop
  endfacet
  facet normal 0.844328 0.535827 0
    outer loop
      vertex 14.8972 8.18981 8.33
      vertex 13.7533 9.99235 0
      vertex 13.7533 9.99235 8.33
    endloop
  endfacet
  facet normal 0.844328 0.535827 0
    outer loop
      vertex 13.7533 9.99235 0
      vertex 14.8972 8.18981 8.33
      vertex 14.8972 8.18981 0
    endloop
  endfacet
  facet normal 0.24869 0.968583 -0
    outer loop
      vertex 5.25329 16.168 0
      vertex 3.18548 16.6989 8.33
      vertex 5.25329 16.168 8.33
    endloop
  endfacet
  facet normal 0.24869 0.968583 0
    outer loop
      vertex 3.18548 16.6989 8.33
      vertex 5.25329 16.168 0
      vertex 3.18548 16.6989 0
    endloop
  endfacet
  facet normal 0.368125 0.929776 -0
    outer loop
      vertex 7.23825 15.3821 0
      vertex 5.25329 16.168 8.33
      vertex 7.23825 15.3821 8.33
    endloop
  endfacet
  facet normal 0.368125 0.929776 0
    outer loop
      vertex 5.25329 16.168 8.33
      vertex 7.23825 15.3821 0
      vertex 5.25329 16.168 0
    endloop
  endfacet
  facet normal -0.368125 0.929776 0
    outer loop
      vertex -5.25329 16.168 0
      vertex -7.23825 15.3821 8.33
      vertex -5.25329 16.168 8.33
    endloop
  endfacet
  facet normal -0.368125 0.929776 0
    outer loop
      vertex -7.23825 15.3821 8.33
      vertex -5.25329 16.168 0
      vertex -7.23825 15.3821 0
    endloop
  endfacet
  facet normal -0.904827 0.425779 0
    outer loop
      vertex -15.8062 6.25812 0
      vertex -14.8972 8.18981 8.33
      vertex -14.8972 8.18981 0
    endloop
  endfacet
  facet normal -0.904827 0.425779 0
    outer loop
      vertex -14.8972 8.18981 8.33
      vertex -15.8062 6.25812 0
      vertex -15.8062 6.25812 8.33
    endloop
  endfacet
  facet normal 0.684547 0.728969 -0
    outer loop
      vertex 12.3925 11.6373 0
      vertex 10.8362 13.0987 8.33
      vertex 12.3925 11.6373 8.33
    endloop
  endfacet
  facet normal 0.684547 0.728969 0
    outer loop
      vertex 10.8362 13.0987 8.33
      vertex 12.3925 11.6373 0
      vertex 10.8362 13.0987 0
    endloop
  endfacet
  facet normal 0.481754 0.876307 -0
    outer loop
      vertex 9.10905 14.3536 0
      vertex 7.23825 15.3821 8.33
      vertex 9.10905 14.3536 8.33
    endloop
  endfacet
  facet normal 0.481754 0.876307 0
    outer loop
      vertex 7.23825 15.3821 8.33
      vertex 9.10905 14.3536 0
      vertex 7.23825 15.3821 0
    endloop
  endfacet
  facet normal -0.770513 0.637424 0
    outer loop
      vertex -13.7533 9.99235 0
      vertex -12.3925 11.6373 8.33
      vertex -12.3925 11.6373 0
    endloop
  endfacet
  facet normal -0.770513 0.637424 0
    outer loop
      vertex -12.3925 11.6373 8.33
      vertex -13.7533 9.99235 0
      vertex -13.7533 9.99235 8.33
    endloop
  endfacet
  facet normal -0.125333 0.992115 0
    outer loop
      vertex -1.06744 16.9665 0
      vertex -3.18548 16.6989 8.33
      vertex -1.06744 16.9665 8.33
    endloop
  endfacet
  facet normal -0.125333 0.992115 0
    outer loop
      vertex -3.18548 16.6989 8.33
      vertex -1.06744 16.9665 0
      vertex -3.18548 16.6989 0
    endloop
  endfacet
  facet normal -0.684547 0.728969 0
    outer loop
      vertex -10.8362 13.0987 0
      vertex -12.3925 11.6373 8.33
      vertex -10.8362 13.0987 8.33
    endloop
  endfacet
  facet normal -0.684547 0.728969 0
    outer loop
      vertex -12.3925 11.6373 8.33
      vertex -10.8362 13.0987 0
      vertex -12.3925 11.6373 0
    endloop
  endfacet
  facet normal 0.904827 -0.425779 0
    outer loop
      vertex 14.8972 -8.18981 8.33
      vertex 15.8062 -6.25812 0
      vertex 15.8062 -6.25812 8.33
    endloop
  endfacet
  facet normal 0.904827 -0.425779 0
    outer loop
      vertex 15.8062 -6.25812 0
      vertex 14.8972 -8.18981 8.33
      vertex 14.8972 -8.18981 0
    endloop
  endfacet
  facet normal -0.684547 -0.728969 0
    outer loop
      vertex -12.3925 -11.6373 0
      vertex -10.8362 -13.0987 8.33
      vertex -12.3925 -11.6373 8.33
    endloop
  endfacet
  facet normal -0.684547 -0.728969 -0
    outer loop
      vertex -10.8362 -13.0987 8.33
      vertex -12.3925 -11.6373 0
      vertex -10.8362 -13.0987 0
    endloop
  endfacet
  facet normal -0.904827 -0.425779 0
    outer loop
      vertex -14.8972 -8.18981 0
      vertex -15.8062 -6.25812 8.33
      vertex -15.8062 -6.25812 0
    endloop
  endfacet
  facet normal -0.904827 -0.425779 0
    outer loop
      vertex -15.8062 -6.25812 8.33
      vertex -14.8972 -8.18981 0
      vertex -14.8972 -8.18981 8.33
    endloop
  endfacet
  facet normal 0.481754 -0.876307 0
    outer loop
      vertex 7.23825 -15.3821 0
      vertex 9.10905 -14.3536 8.33
      vertex 7.23825 -15.3821 8.33
    endloop
  endfacet
  facet normal 0.481754 -0.876307 0
    outer loop
      vertex 9.10905 -14.3536 8.33
      vertex 7.23825 -15.3821 0
      vertex 9.10905 -14.3536 0
    endloop
  endfacet
  facet normal 0.951057 0.309017 0
    outer loop
      vertex 16.1825 5.1 8.33
      vertex 15.8062 6.25812 0
      vertex 15.8062 6.25812 8.33
    endloop
  endfacet
  facet normal 0.951057 0.309017 0
    outer loop
      vertex 15.8062 6.25812 0
      vertex 16.1825 5.1 8.33
      vertex 16.1825 5.1 0
    endloop
  endfacet
  facet normal 0.770513 0.637424 0
    outer loop
      vertex 13.7533 9.99235 8.33
      vertex 12.3925 11.6373 0
      vertex 12.3925 11.6373 8.33
    endloop
  endfacet
  facet normal 0.770513 0.637424 0
    outer loop
      vertex 12.3925 11.6373 0
      vertex 13.7533 9.99235 8.33
      vertex 13.7533 9.99235 0
    endloop
  endfacet
  facet normal 0 1 -0
    outer loop
      vertex 1.06744 16.9665 0
      vertex -1.06744 16.9665 8.33
      vertex 1.06744 16.9665 8.33
    endloop
  endfacet
  facet normal 0 1 0
    outer loop
      vertex -1.06744 16.9665 8.33
      vertex 1.06744 16.9665 0
      vertex -1.06744 16.9665 0
    endloop
  endfacet
  facet normal 0.587785 0.809017 -0
    outer loop
      vertex 10.8362 13.0987 0
      vertex 9.10905 14.3536 8.33
      vertex 10.8362 13.0987 8.33
    endloop
  endfacet
  facet normal 0.587785 0.809017 0
    outer loop
      vertex 9.10905 14.3536 8.33
      vertex 10.8362 13.0987 0
      vertex 9.10905 14.3536 0
    endloop
  endfacet
  facet normal 0 0 1
    outer loop
      vertex 13 5.1 8.33
      vertex 15.8062 6.25812 8.33
      vertex 14.8972 8.18981 8.33
    endloop
  endfacet
  facet normal 0 0 1
    outer loop
      vertex 13 5.1 8.33
      vertex 14.8972 8.18981 8.33
      vertex 13.7533 9.99235 8.33
    endloop
  endfacet
  facet normal 0 0 1
    outer loop
      vertex 15.8062 6.25812 8.33
      vertex 13 5.1 8.33
      vertex 16.1825 5.1 8.33
    endloop
  endfacet
  facet normal 0 0 1
    outer loop
      vertex 13.7533 9.99235 8.33
      vertex 8.98009 6.52442 8.33
      vertex 13 5.1 8.33
    endloop
  endfacet
  facet normal 0 0 1
    outer loop
      vertex 8.98009 6.52442 8.33
      vertex 13.7533 9.99235 8.33
      vertex 12.3925 11.6373 8.33
    endloop
  endfacet
  facet normal -0 0 1
    outer loop
      vertex 13 -5.1 8.33
      vertex 15.8062 -6.25812 8.33
      vertex 16.1825 -5.1 8.33
    endloop
  endfacet
  facet normal 0 0 1
    outer loop
      vertex 15.8062 -6.25812 8.33
      vertex 13 -5.1 8.33
      vertex 14.8972 -8.18981 8.33
    endloop
  endfacet
  facet normal 0 0 1
    outer loop
      vertex 14.8972 -8.18981 8.33
      vertex 13 -5.1 8.33
      vertex 13.7533 -9.99235 8.33
    endloop
  endfacet
  facet normal -0 0 1
    outer loop
      vertex 8.98009 -6.52442 8.33
      vertex 13.7533 -9.99235 8.33
      vertex 13 -5.1 8.33
    endloop
  endfacet
  facet normal 0 -0 1
    outer loop
      vertex 11.1 0 8.33
      vertex 13 5.1 8.33
      vertex 10.8574 2.30782 8.33
    endloop
  endfacet
  facet normal -0 0 1
    outer loop
      vertex 10.8574 -2.30782 8.33
      vertex 13 -5.1 8.33
      vertex 11.1 0 8.33
    endloop
  endfacet
  facet normal 0 0 1
    outer loop
      vertex 13 5.1 8.33
      vertex 11.1 0 8.33
      vertex 13 -5.1 8.33
    endloop
  endfacet
  facet normal 0 0 1
    outer loop
      vertex 7.42735 8.24891 8.33
      vertex 12.3925 11.6373 8.33
      vertex 10.8362 13.0987 8.33
    endloop
  endfacet
  facet normal 0 0 1
    outer loop
      vertex 13 5.1 8.33
      vertex 10.1404 4.51478 8.33
      vertex 10.8574 2.30782 8.33
    endloop
  endfacet
  facet normal 0 0 1
    outer loop
      vertex 7.42735 8.24891 8.33
      vertex 10.8362 13.0987 8.33
      vertex 9.10905 14.3536 8.33
    endloop
  endfacet
  facet normal 0 0 1
    outer loop
      vertex 13 5.1 8.33
      vertex 8.98009 6.52442 8.33
      vertex 10.1404 4.51478 8.33
    endloop
  endfacet
  facet normal 0 0 1
    outer loop
      vertex 12.3925 11.6373 8.33
      vertex 7.42735 8.24891 8.33
      vertex 8.98009 6.52442 8.33
    endloop
  endfacet
  facet normal 0 0 1
    outer loop
      vertex 5.55 9.61288 8.33
      vertex 9.10905 14.3536 8.33
      vertex 7.23825 15.3821 8.33
    endloop
  endfacet
  facet normal 0 0 1
    outer loop
      vertex 9.10905 14.3536 8.33
      vertex 5.55 9.61288 8.33
      vertex 7.42735 8.24891 8.33
    endloop
  endfacet
  facet normal 0 0 1
    outer loop
      vertex 3.43009 10.5567 8.33
      vertex 7.23825 15.3821 8.33
      vertex 5.25329 16.168 8.33
    endloop
  endfacet
  facet normal 0 0 1
    outer loop
      vertex 7.23825 15.3821 8.33
      vertex 3.43009 10.5567 8.33
      vertex 5.55 9.61288 8.33
    endloop
  endfacet
  facet normal 0 0 1
    outer loop
      vertex 3.18548 16.6989 8.33
      vertex 3.43009 10.5567 8.33
      vertex 5.25329 16.168 8.33
    endloop
  endfacet
  facet normal 0 0 1
    outer loop
      vertex 3.18548 16.6989 8.33
      vertex 1.16027 11.0392 8.33
      vertex 3.43009 10.5567 8.33
    endloop
  endfacet
  facet normal 0 0 1
    outer loop
      vertex 1.06744 16.9665 8.33
      vertex 1.16027 11.0392 8.33
      vertex 3.18548 16.6989 8.33
    endloop
  endfacet
  facet normal -0 0 1
    outer loop
      vertex -1.06744 16.9665 8.33
      vertex 1.16027 11.0392 8.33
      vertex 1.06744 16.9665 8.33
    endloop
  endfacet
  facet normal 0 0 1
    outer loop
      vertex -1.06744 16.9665 8.33
      vertex -1.16027 11.0392 8.33
      vertex 1.16027 11.0392 8.33
    endloop
  endfacet
  facet normal -0 0 1
    outer loop
      vertex -3.18548 16.6989 8.33
      vertex -1.16027 11.0392 8.33
      vertex -1.06744 16.9665 8.33
    endloop
  endfacet
  facet normal 0 0 1
    outer loop
      vertex -3.18548 16.6989 8.33
      vertex -3.43009 10.5567 8.33
      vertex -1.16027 11.0392 8.33
    endloop
  endfacet
  facet normal -0 0 1
    outer loop
      vertex -5.25329 16.168 8.33
      vertex -3.43009 10.5567 8.33
      vertex -3.18548 16.6989 8.33
    endloop
  endfacet
  facet normal -0 0 1
    outer loop
      vertex -7.23825 15.3821 8.33
      vertex -3.43009 10.5567 8.33
      vertex -5.25329 16.168 8.33
    endloop
  endfacet
  facet normal 0 0 1
    outer loop
      vertex -3.43009 10.5567 8.33
      vertex -7.23825 15.3821 8.33
      vertex -5.55 9.61288 8.33
    endloop
  endfacet
  facet normal -0 0 1
    outer loop
      vertex -9.10905 14.3536 8.33
      vertex -5.55 9.61288 8.33
      vertex -7.23825 15.3821 8.33
    endloop
  endfacet
  facet normal 0 0 1
    outer loop
      vertex -5.55 9.61288 8.33
      vertex -9.10905 14.3536 8.33
      vertex -7.42735 8.24891 8.33
    endloop
  endfacet
  facet normal -0 0 1
    outer loop
      vertex -10.8362 13.0987 8.33
      vertex -7.42735 8.24891 8.33
      vertex -9.10905 14.3536 8.33
    endloop
  endfacet
  facet normal -0 0 1
    outer loop
      vertex -12.3925 11.6373 8.33
      vertex -7.42735 8.24891 8.33
      vertex -10.8362 13.0987 8.33
    endloop
  endfacet
  facet normal 0 0 1
    outer loop
      vertex -7.42735 8.24891 8.33
      vertex -12.3925 11.6373 8.33
      vertex -8.98009 6.52442 8.33
    endloop
  endfacet
  facet normal -0 0 1
    outer loop
      vertex -13.7533 9.99235 8.33
      vertex -8.98009 6.52442 8.33
      vertex -12.3925 11.6373 8.33
    endloop
  endfacet
  facet normal 0 0 1
    outer loop
      vertex -10.1404 4.51478 8.33
      vertex -13 5.1 8.33
      vertex -10.8574 2.30782 8.33
    endloop
  endfacet
  facet normal 0 -0 1
    outer loop
      vertex -13 5.1 8.33
      vertex -8.98009 6.52442 8.33
      vertex -13.7533 9.99235 8.33
    endloop
  endfacet
  facet normal 0 0 1
    outer loop
      vertex -13.7533 -9.99235 8.33
      vertex -8.98009 -6.52442 8.33
      vertex -13 -5.1 8.33
    endloop
  endfacet
  facet normal 0 0 1
    outer loop
      vertex -8.98009 -6.52442 8.33
      vertex -13.7533 -9.99235 8.33
      vertex -12.3925 -11.6373 8.33
    endloop
  endfacet
  facet normal 0 0 1
    outer loop
      vertex -13 -5.1 8.33
      vertex -14.8972 -8.18981 8.33
      vertex -13.7533 -9.99235 8.33
    endloop
  endfacet
  facet normal 0 0 1
    outer loop
      vertex -13 -5.1 8.33
      vertex -15.8062 -6.25812 8.33
      vertex -14.8972 -8.18981 8.33
    endloop
  endfacet
  facet normal 0 -0 1
    outer loop
      vertex -15.8062 -6.25812 8.33
      vertex -13 -5.1 8.33
      vertex -16.1825 -5.1 8.33
    endloop
  endfacet
  facet normal -0 0 1
    outer loop
      vertex 10.1404 -4.51478 8.33
      vertex 13 -5.1 8.33
      vertex 10.8574 -2.30782 8.33
    endloop
  endfacet
  facet normal 0 0 1
    outer loop
      vertex 8.98009 -6.52442 8.33
      vertex 13 -5.1 8.33
      vertex 10.1404 -4.51478 8.33
    endloop
  endfacet
  facet normal 0 0 1
    outer loop
      vertex 13.7533 -9.99235 8.33
      vertex 8.98009 -6.52442 8.33
      vertex 12.3925 -11.6373 8.33
    endloop
  endfacet
  facet normal -0 0 1
    outer loop
      vertex 7.42735 -8.24891 8.33
      vertex 12.3925 -11.6373 8.33
      vertex 8.98009 -6.52442 8.33
    endloop
  endfacet
  facet normal 0 0 1
    outer loop
      vertex 12.3925 -11.6373 8.33
      vertex 7.42735 -8.24891 8.33
      vertex 10.8362 -13.0987 8.33
    endloop
  endfacet
  facet normal 0 0 1
    outer loop
      vertex 10.8362 -13.0987 8.33
      vertex 7.42735 -8.24891 8.33
      vertex 9.10905 -14.3536 8.33
    endloop
  endfacet
  facet normal -0 0 1
    outer loop
      vertex 5.55 -9.61288 8.33
      vertex 9.10905 -14.3536 8.33
      vertex 7.42735 -8.24891 8.33
    endloop
  endfacet
  facet normal 0 0 1
    outer loop
      vertex 9.10905 -14.3536 8.33
      vertex 5.55 -9.61288 8.33
      vertex 7.23825 -15.3821 8.33
    endloop
  endfacet
  facet normal -0 0 1
    outer loop
      vertex 3.43009 -10.5567 8.33
      vertex 7.23825 -15.3821 8.33
      vertex 5.55 -9.61288 8.33
    endloop
  endfacet
  facet normal 0 0 1
    outer loop
      vertex 7.23825 -15.3821 8.33
      vertex 3.43009 -10.5567 8.33
      vertex 5.25329 -16.168 8.33
    endloop
  endfacet
  facet normal 0 0 1
    outer loop
      vertex 3.43009 -10.5567 8.33
      vertex 3.18548 -16.6989 8.33
      vertex 5.25329 -16.168 8.33
    endloop
  endfacet
  facet normal -0 0 1
    outer loop
      vertex 1.16027 -11.0392 8.33
      vertex 3.18548 -16.6989 8.33
      vertex 3.43009 -10.5567 8.33
    endloop
  endfacet
  facet normal 0 0 1
    outer loop
      vertex 1.16027 -11.0392 8.33
      vertex 1.06744 -16.9665 8.33
      vertex 3.18548 -16.6989 8.33
    endloop
  endfacet
  facet normal 0 0 1
    outer loop
      vertex 1.16027 -11.0392 8.33
      vertex -1.06744 -16.9665 8.33
      vertex 1.06744 -16.9665 8.33
    endloop
  endfacet
  facet normal -0 0 1
    outer loop
      vertex -1.16027 -11.0392 8.33
      vertex -1.06744 -16.9665 8.33
      vertex 1.16027 -11.0392 8.33
    endloop
  endfacet
  facet normal 0 0 1
    outer loop
      vertex -1.16027 -11.0392 8.33
      vertex -3.18548 -16.6989 8.33
      vertex -1.06744 -16.9665 8.33
    endloop
  endfacet
  facet normal 0 0 1
    outer loop
      vertex -3.43009 -10.5567 8.33
      vertex -3.18548 -16.6989 8.33
      vertex -1.16027 -11.0392 8.33
    endloop
  endfacet
  facet normal 0 0 1
    outer loop
      vertex -3.43009 -10.5567 8.33
      vertex -5.25329 -16.168 8.33
      vertex -3.18548 -16.6989 8.33
    endloop
  endfacet
  facet normal 0 0 1
    outer loop
      vertex -7.23825 -15.3821 8.33
      vertex -3.43009 -10.5567 8.33
      vertex -5.55 -9.61288 8.33
    endloop
  endfacet
  facet normal 0 0 1
    outer loop
      vertex -3.43009 -10.5567 8.33
      vertex -7.23825 -15.3821 8.33
      vertex -5.25329 -16.168 8.33
    endloop
  endfacet
  facet normal 0 0 1
    outer loop
      vertex -9.10905 -14.3536 8.33
      vertex -5.55 -9.61288 8.33
      vertex -7.42735 -8.24891 8.33
    endloop
  endfacet
  facet normal 0 0 1
    outer loop
      vertex -12.3925 -11.6373 8.33
      vertex -7.42735 -8.24891 8.33
      vertex -8.98009 -6.52442 8.33
    endloop
  endfacet
  facet normal 0 0 1
    outer loop
      vertex -5.55 -9.61288 8.33
      vertex -9.10905 -14.3536 8.33
      vertex -7.23825 -15.3821 8.33
    endloop
  endfacet
  facet normal -0 0 1
    outer loop
      vertex -13 -5.1 8.33
      vertex -8.98009 -6.52442 8.33
      vertex -10.1404 -4.51478 8.33
    endloop
  endfacet
  facet normal 0 0 1
    outer loop
      vertex -7.42735 -8.24891 8.33
      vertex -10.8362 -13.0987 8.33
      vertex -9.10905 -14.3536 8.33
    endloop
  endfacet
  facet normal 0 0 1
    outer loop
      vertex -13 -5.1 8.33
      vertex -10.1404 -4.51478 8.33
      vertex -10.8574 -2.30782 8.33
    endloop
  endfacet
  facet normal 0 0 1
    outer loop
      vertex -13 -5.1 8.33
      vertex -11.1 0 8.33
      vertex -13 5.1 8.33
    endloop
  endfacet
  facet normal 0 0 1
    outer loop
      vertex -10.8574 2.30782 8.33
      vertex -13 5.1 8.33
      vertex -11.1 0 8.33
    endloop
  endfacet
  facet normal 0 0 1
    outer loop
      vertex -11.1 0 8.33
      vertex -13 -5.1 8.33
      vertex -10.8574 -2.30782 8.33
    endloop
  endfacet
  facet normal 0 0 1
    outer loop
      vertex -7.42735 -8.24891 8.33
      vertex -12.3925 -11.6373 8.33
      vertex -10.8362 -13.0987 8.33
    endloop
  endfacet
  facet normal 0 0 1
    outer loop
      vertex -8.98009 6.52442 8.33
      vertex -13 5.1 8.33
      vertex -10.1404 4.51478 8.33
    endloop
  endfacet
  facet normal -0 0 1
    outer loop
      vertex -14.8972 8.18981 8.33
      vertex -13 5.1 8.33
      vertex -13.7533 9.99235 8.33
    endloop
  endfacet
  facet normal -0 0 1
    outer loop
      vertex -15.8062 6.25812 8.33
      vertex -13 5.1 8.33
      vertex -14.8972 8.18981 8.33
    endloop
  endfacet
  facet normal 0 0 1
    outer loop
      vertex -13 5.1 8.33
      vertex -15.8062 6.25812 8.33
      vertex -16.1825 5.1 8.33
    endloop
  endfacet
  facet normal -0.951057 0.309017 0
    outer loop
      vertex -16.1825 5.1 0
      vertex -15.8062 6.25812 8.33
      vertex -15.8062 6.25812 0
    endloop
  endfacet
  facet normal -0.951057 0.309017 0
    outer loop
      vertex -15.8062 6.25812 8.33
      vertex -16.1825 5.1 0
      vertex -16.1825 5.1 8.33
    endloop
  endfacet
  facet normal -0.844328 0.535827 0
    outer loop
      vertex -14.8972 8.18981 0
      vertex -13.7533 9.99235 8.33
      vertex -13.7533 9.99235 0
    endloop
  endfacet
  facet normal -0.844328 0.535827 0
    outer loop
      vertex -13.7533 9.99235 8.33
      vertex -14.8972 8.18981 0
      vertex -14.8972 8.18981 8.33
    endloop
  endfacet
  facet normal -0.24869 0.968583 0
    outer loop
      vertex -3.18548 16.6989 0
      vertex -5.25329 16.168 8.33
      vertex -3.18548 16.6989 8.33
    endloop
  endfacet
  facet normal -0.24869 0.968583 0
    outer loop
      vertex -5.25329 16.168 8.33
      vertex -3.18548 16.6989 0
      vertex -5.25329 16.168 0
    endloop
  endfacet
  facet normal -0.587785 0.809017 0
    outer loop
      vertex -9.10905 14.3536 0
      vertex -10.8362 13.0987 8.33
      vertex -9.10905 14.3536 8.33
    endloop
  endfacet
  facet normal -0.587785 0.809017 0
    outer loop
      vertex -10.8362 13.0987 8.33
      vertex -9.10905 14.3536 0
      vertex -10.8362 13.0987 0
    endloop
  endfacet
  facet normal -0.481754 0.876307 0
    outer loop
      vertex -7.23825 15.3821 0
      vertex -9.10905 14.3536 8.33
      vertex -7.23825 15.3821 8.33
    endloop
  endfacet
  facet normal -0.481754 0.876307 0
    outer loop
      vertex -9.10905 14.3536 8.33
      vertex -7.23825 15.3821 0
      vertex -9.10905 14.3536 0
    endloop
  endfacet
  facet normal 0.951057 -0.309017 0
    outer loop
      vertex 15.8062 -6.25812 8.33
      vertex 16.1825 -5.1 0
      vertex 16.1825 -5.1 8.33
    endloop
  endfacet
  facet normal 0.951057 -0.309017 0
    outer loop
      vertex 16.1825 -5.1 0
      vertex 15.8062 -6.25812 8.33
      vertex 15.8062 -6.25812 0
    endloop
  endfacet
  facet normal 0.770513 -0.637424 0
    outer loop
      vertex 12.3925 -11.6373 8.33
      vertex 13.7533 -9.99235 0
      vertex 13.7533 -9.99235 8.33
    endloop
  endfacet
  facet normal 0.770513 -0.637424 0
    outer loop
      vertex 13.7533 -9.99235 0
      vertex 12.3925 -11.6373 8.33
      vertex 12.3925 -11.6373 0
    endloop
  endfacet
  facet normal 0 -1 0
    outer loop
      vertex -1.06744 -16.9665 0
      vertex 1.06744 -16.9665 8.33
      vertex -1.06744 -16.9665 8.33
    endloop
  endfacet
  facet normal 0 -1 -0
    outer loop
      vertex 1.06744 -16.9665 8.33
      vertex -1.06744 -16.9665 0
      vertex 1.06744 -16.9665 0
    endloop
  endfacet
  facet normal 0 0 -1
    outer loop
      vertex 13 -5.1 0
      vertex 15.8062 -6.25812 0
      vertex 14.8972 -8.18981 0
    endloop
  endfacet
  facet normal 0 0 -1
    outer loop
      vertex 13 -5.1 0
      vertex 14.8972 -8.18981 0
      vertex 13.7533 -9.99235 0
    endloop
  endfacet
  facet normal 0 0 -1
    outer loop
      vertex 15.8062 -6.25812 0
      vertex 13 -5.1 0
      vertex 16.1825 -5.1 0
    endloop
  endfacet
  facet normal 0 0 -1
    outer loop
      vertex 13.7533 -9.99235 0
      vertex 8.98009 -6.52442 0
      vertex 13 -5.1 0
    endloop
  endfacet
  facet normal 0 0 -1
    outer loop
      vertex 8.98009 -6.52442 0
      vertex 13.7533 -9.99235 0
      vertex 12.3925 -11.6373 0
    endloop
  endfacet
  facet normal 0 0 -1
    outer loop
      vertex 13 5.1 0
      vertex 15.8062 6.25812 0
      vertex 16.1825 5.1 0
    endloop
  endfacet
  facet normal -0 0 -1
    outer loop
      vertex 15.8062 6.25812 0
      vertex 13 5.1 0
      vertex 14.8972 8.18981 0
    endloop
  endfacet
  facet normal -0 0 -1
    outer loop
      vertex 14.8972 8.18981 0
      vertex 13 5.1 0
      vertex 13.7533 9.99235 0
    endloop
  endfacet
  facet normal 0 0 -1
    outer loop
      vertex 8.98009 6.52442 0
      vertex 13.7533 9.99235 0
      vertex 13 5.1 0
    endloop
  endfacet
  facet normal 0 -0 -1
    outer loop
      vertex 11.1 0 0
      vertex 13 -5.1 0
      vertex 10.8574 -2.30782 0
    endloop
  endfacet
  facet normal 0 0 -1
    outer loop
      vertex 10.8574 2.30782 0
      vertex 13 5.1 0
      vertex 11.1 0 0
    endloop
  endfacet
  facet normal 0 0 -1
    outer loop
      vertex 13 -5.1 0
      vertex 11.1 0 0
      vertex 13 5.1 0
    endloop
  endfacet
  facet normal 0 0 -1
    outer loop
      vertex 7.42735 -8.24891 0
      vertex 12.3925 -11.6373 0
      vertex 10.8362 -13.0987 0
    endloop
  endfacet
  facet normal 0 0 -1
    outer loop
      vertex 13 -5.1 0
      vertex 10.1404 -4.51478 0
      vertex 10.8574 -2.30782 0
    endloop
  endfacet
  facet normal 0 0 -1
    outer loop
      vertex 7.42735 -8.24891 0
      vertex 10.8362 -13.0987 0
      vertex 9.10905 -14.3536 0
    endloop
  endfacet
  facet normal -0 0 -1
    outer loop
      vertex 13 -5.1 0
      vertex 8.98009 -6.52442 0
      vertex 10.1404 -4.51478 0
    endloop
  endfacet
  facet normal 0 0 -1
    outer loop
      vertex 12.3925 -11.6373 0
      vertex 7.42735 -8.24891 0
      vertex 8.98009 -6.52442 0
    endloop
  endfacet
  facet normal 0 0 -1
    outer loop
      vertex 5.55 -9.61288 0
      vertex 9.10905 -14.3536 0
      vertex 7.23825 -15.3821 0
    endloop
  endfacet
  facet normal 0 0 -1
    outer loop
      vertex 9.10905 -14.3536 0
      vertex 5.55 -9.61288 0
      vertex 7.42735 -8.24891 0
    endloop
  endfacet
  facet normal 0 0 -1
    outer loop
      vertex 3.43009 -10.5567 0
      vertex 7.23825 -15.3821 0
      vertex 5.25329 -16.168 0
    endloop
  endfacet
  facet normal 0 0 -1
    outer loop
      vertex 7.23825 -15.3821 0
      vertex 3.43009 -10.5567 0
      vertex 5.55 -9.61288 0
    endloop
  endfacet
  facet normal 0 0 -1
    outer loop
      vertex 3.18548 -16.6989 0
      vertex 3.43009 -10.5567 0
      vertex 5.25329 -16.168 0
    endloop
  endfacet
  facet normal 0 0 -1
    outer loop
      vertex 3.18548 -16.6989 0
      vertex 1.16027 -11.0392 0
      vertex 3.43009 -10.5567 0
    endloop
  endfacet
  facet normal 0 0 -1
    outer loop
      vertex 1.06744 -16.9665 0
      vertex 1.16027 -11.0392 0
      vertex 3.18548 -16.6989 0
    endloop
  endfacet
  facet normal 0 0 -1
    outer loop
      vertex -1.06744 -16.9665 0
      vertex 1.16027 -11.0392 0
      vertex 1.06744 -16.9665 0
    endloop
  endfacet
  facet normal 0 0 -1
    outer loop
      vertex -1.06744 -16.9665 0
      vertex -1.16027 -11.0392 0
      vertex 1.16027 -11.0392 0
    endloop
  endfacet
  facet normal 0 0 -1
    outer loop
      vertex -3.18548 -16.6989 0
      vertex -1.16027 -11.0392 0
      vertex -1.06744 -16.9665 0
    endloop
  endfacet
  facet normal 0 0 -1
    outer loop
      vertex -3.18548 -16.6989 0
      vertex -3.43009 -10.5567 0
      vertex -1.16027 -11.0392 0
    endloop
  endfacet
  facet normal 0 0 -1
    outer loop
      vertex -5.25329 -16.168 0
      vertex -3.43009 -10.5567 0
      vertex -3.18548 -16.6989 0
    endloop
  endfacet
  facet normal 0 0 -1
    outer loop
      vertex -7.23825 -15.3821 0
      vertex -3.43009 -10.5567 0
      vertex -5.25329 -16.168 0
    endloop
  endfacet
  facet normal -0 0 -1
    outer loop
      vertex -3.43009 -10.5567 0
      vertex -7.23825 -15.3821 0
      vertex -5.55 -9.61288 0
    endloop
  endfacet
  facet normal 0 0 -1
    outer loop
      vertex -9.10905 -14.3536 0
      vertex -5.55 -9.61288 0
      vertex -7.23825 -15.3821 0
    endloop
  endfacet
  facet normal -0 0 -1
    outer loop
      vertex -5.55 -9.61288 0
      vertex -9.10905 -14.3536 0
      vertex -7.42735 -8.24891 0
    endloop
  endfacet
  facet normal 0 0 -1
    outer loop
      vertex -10.8362 -13.0987 0
      vertex -7.42735 -8.24891 0
      vertex -9.10905 -14.3536 0
    endloop
  endfacet
  facet normal 0 0 -1
    outer loop
      vertex -12.3925 -11.6373 0
      vertex -7.42735 -8.24891 0
      vertex -10.8362 -13.0987 0
    endloop
  endfacet
  facet normal -0 0 -1
    outer loop
      vertex -7.42735 -8.24891 0
      vertex -12.3925 -11.6373 0
      vertex -8.98009 -6.52442 0
    endloop
  endfacet
  facet normal 0 0 -1
    outer loop
      vertex -13.7533 -9.99235 0
      vertex -8.98009 -6.52442 0
      vertex -12.3925 -11.6373 0
    endloop
  endfacet
  facet normal -0 0 -1
    outer loop
      vertex -10.1404 -4.51478 0
      vertex -13 -5.1 0
      vertex -10.8574 -2.30782 0
    endloop
  endfacet
  facet normal 0 -0 -1
    outer loop
      vertex -13 -5.1 0
      vertex -8.98009 -6.52442 0
      vertex -13.7533 -9.99235 0
    endloop
  endfacet
  facet normal 0 0 -1
    outer loop
      vertex -13.7533 9.99235 0
      vertex -8.98009 6.52442 0
      vertex -13 5.1 0
    endloop
  endfacet
  facet normal 0 0 -1
    outer loop
      vertex -8.98009 6.52442 0
      vertex -13.7533 9.99235 0
      vertex -12.3925 11.6373 0
    endloop
  endfacet
  facet normal 0 0 -1
    outer loop
      vertex -13 5.1 0
      vertex -14.8972 8.18981 0
      vertex -13.7533 9.99235 0
    endloop
  endfacet
  facet normal 0 0 -1
    outer loop
      vertex -13 5.1 0
      vertex -15.8062 6.25812 0
      vertex -14.8972 8.18981 0
    endloop
  endfacet
  facet normal 0 -0 -1
    outer loop
      vertex -15.8062 6.25812 0
      vertex -13 5.1 0
      vertex -16.1825 5.1 0
    endloop
  endfacet
  facet normal 0 0 -1
    outer loop
      vertex 10.1404 4.51478 0
      vertex 13 5.1 0
      vertex 10.8574 2.30782 0
    endloop
  endfacet
  facet normal 0 0 -1
    outer loop
      vertex 8.98009 6.52442 0
      vertex 13 5.1 0
      vertex 10.1404 4.51478 0
    endloop
  endfacet
  facet normal -0 0 -1
    outer loop
      vertex 13.7533 9.99235 0
      vertex 8.98009 6.52442 0
      vertex 12.3925 11.6373 0
    endloop
  endfacet
  facet normal 0 0 -1
    outer loop
      vertex 7.42735 8.24891 0
      vertex 12.3925 11.6373 0
      vertex 8.98009 6.52442 0
    endloop
  endfacet
  facet normal -0 0 -1
    outer loop
      vertex 12.3925 11.6373 0
      vertex 7.42735 8.24891 0
      vertex 10.8362 13.0987 0
    endloop
  endfacet
  facet normal -0 0 -1
    outer loop
      vertex 10.8362 13.0987 0
      vertex 7.42735 8.24891 0
      vertex 9.10905 14.3536 0
    endloop
  endfacet
  facet normal 0 0 -1
    outer loop
      vertex 5.55 9.61288 0
      vertex 9.10905 14.3536 0
      vertex 7.42735 8.24891 0
    endloop
  endfacet
  facet normal -0 0 -1
    outer loop
      vertex 9.10905 14.3536 0
      vertex 5.55 9.61288 0
      vertex 7.23825 15.3821 0
    endloop
  endfacet
  facet normal 0 0 -1
    outer loop
      vertex 3.43009 10.5567 0
      vertex 7.23825 15.3821 0
      vertex 5.55 9.61288 0
    endloop
  endfacet
  facet normal -0 0 -1
    outer loop
      vertex 7.23825 15.3821 0
      vertex 3.43009 10.5567 0
      vertex 5.25329 16.168 0
    endloop
  endfacet
  facet normal 0 0 -1
    outer loop
      vertex 3.43009 10.5567 0
      vertex 3.18548 16.6989 0
      vertex 5.25329 16.168 0
    endloop
  endfacet
  facet normal 0 0 -1
    outer loop
      vertex 1.16027 11.0392 0
      vertex 3.18548 16.6989 0
      vertex 3.43009 10.5567 0
    endloop
  endfacet
  facet normal 0 0 -1
    outer loop
      vertex 1.16027 11.0392 0
      vertex 1.06744 16.9665 0
      vertex 3.18548 16.6989 0
    endloop
  endfacet
  facet normal 0 0 -1
    outer loop
      vertex 1.16027 11.0392 0
      vertex -1.06744 16.9665 0
      vertex 1.06744 16.9665 0
    endloop
  endfacet
  facet normal 0 0 -1
    outer loop
      vertex -1.16027 11.0392 0
      vertex -1.06744 16.9665 0
      vertex 1.16027 11.0392 0
    endloop
  endfacet
  facet normal 0 0 -1
    outer loop
      vertex -1.16027 11.0392 0
      vertex -3.18548 16.6989 0
      vertex -1.06744 16.9665 0
    endloop
  endfacet
  facet normal 0 0 -1
    outer loop
      vertex -3.43009 10.5567 0
      vertex -3.18548 16.6989 0
      vertex -1.16027 11.0392 0
    endloop
  endfacet
  facet normal 0 0 -1
    outer loop
      vertex -3.43009 10.5567 0
      vertex -5.25329 16.168 0
      vertex -3.18548 16.6989 0
    endloop
  endfacet
  facet normal 0 0 -1
    outer loop
      vertex -7.23825 15.3821 0
      vertex -3.43009 10.5567 0
      vertex -5.55 9.61288 0
    endloop
  endfacet
  facet normal 0 0 -1
    outer loop
      vertex -3.43009 10.5567 0
      vertex -7.23825 15.3821 0
      vertex -5.25329 16.168 0
    endloop
  endfacet
  facet normal 0 0 -1
    outer loop
      vertex -9.10905 14.3536 0
      vertex -5.55 9.61288 0
      vertex -7.42735 8.24891 0
    endloop
  endfacet
  facet normal 0 0 -1
    outer loop
      vertex -12.3925 11.6373 0
      vertex -7.42735 8.24891 0
      vertex -8.98009 6.52442 0
    endloop
  endfacet
  facet normal 0 0 -1
    outer loop
      vertex -5.55 9.61288 0
      vertex -9.10905 14.3536 0
      vertex -7.23825 15.3821 0
    endloop
  endfacet
  facet normal 0 0 -1
    outer loop
      vertex -13 5.1 0
      vertex -8.98009 6.52442 0
      vertex -10.1404 4.51478 0
    endloop
  endfacet
  facet normal 0 0 -1
    outer loop
      vertex -7.42735 8.24891 0
      vertex -10.8362 13.0987 0
      vertex -9.10905 14.3536 0
    endloop
  endfacet
  facet normal 0 0 -1
    outer loop
      vertex -13 5.1 0
      vertex -10.1404 4.51478 0
      vertex -10.8574 2.30782 0
    endloop
  endfacet
  facet normal 0 0 -1
    outer loop
      vertex -13 5.1 0
      vertex -11.1 0 0
      vertex -13 -5.1 0
    endloop
  endfacet
  facet normal -0 0 -1
    outer loop
      vertex -10.8574 -2.30782 0
      vertex -13 -5.1 0
      vertex -11.1 0 0
    endloop
  endfacet
  facet normal 0 0 -1
    outer loop
      vertex -11.1 0 0
      vertex -13 5.1 0
      vertex -10.8574 2.30782 0
    endloop
  endfacet
  facet normal 0 0 -1
    outer loop
      vertex -7.42735 8.24891 0
      vertex -12.3925 11.6373 0
      vertex -10.8362 13.0987 0
    endloop
  endfacet
  facet normal 0 0 -1
    outer loop
      vertex -8.98009 -6.52442 0
      vertex -13 -5.1 0
      vertex -10.1404 -4.51478 0
    endloop
  endfacet
  facet normal 0 0 -1
    outer loop
      vertex -14.8972 -8.18981 0
      vertex -13 -5.1 0
      vertex -13.7533 -9.99235 0
    endloop
  endfacet
  facet normal 0 0 -1
    outer loop
      vertex -15.8062 -6.25812 0
      vertex -13 -5.1 0
      vertex -14.8972 -8.18981 0
    endloop
  endfacet
  facet normal -0 0 -1
    outer loop
      vertex -13 -5.1 0
      vertex -15.8062 -6.25812 0
      vertex -16.1825 -5.1 0
    endloop
  endfacet
  facet normal -0.844328 -0.535827 0
    outer loop
      vertex -13.7533 -9.99235 0
      vertex -14.8972 -8.18981 8.33
      vertex -14.8972 -8.18981 0
    endloop
  endfacet
  facet normal -0.844328 -0.535827 0
    outer loop
      vertex -14.8972 -8.18981 8.33
      vertex -13.7533 -9.99235 0
      vertex -13.7533 -9.99235 8.33
    endloop
  endfacet
  facet normal 0.125333 -0.992115 0
    outer loop
      vertex 1.06744 -16.9665 0
      vertex 3.18548 -16.6989 8.33
      vertex 1.06744 -16.9665 8.33
    endloop
  endfacet
  facet normal 0.125333 -0.992115 0
    outer loop
      vertex 3.18548 -16.6989 8.33
      vertex 1.06744 -16.9665 0
      vertex 3.18548 -16.6989 0
    endloop
  endfacet
  facet normal 0.125333 0.992115 -0
    outer loop
      vertex 3.18548 16.6989 0
      vertex 1.06744 16.9665 8.33
      vertex 3.18548 16.6989 8.33
    endloop
  endfacet
  facet normal 0.125333 0.992115 0
    outer loop
      vertex 1.06744 16.9665 8.33
      vertex 3.18548 16.6989 0
      vertex 1.06744 16.9665 0
    endloop
  endfacet
  facet normal -0.587785 -0.809017 0
    outer loop
      vertex -10.8362 -13.0987 0
      vertex -9.10905 -14.3536 8.33
      vertex -10.8362 -13.0987 8.33
    endloop
  endfacet
  facet normal -0.587785 -0.809017 -0
    outer loop
      vertex -9.10905 -14.3536 8.33
      vertex -10.8362 -13.0987 0
      vertex -9.10905 -14.3536 0
    endloop
  endfacet
  facet normal -0.951057 -0.309017 0
    outer loop
      vertex -15.8062 -6.25812 0
      vertex -16.1825 -5.1 8.33
      vertex -16.1825 -5.1 0
    endloop
  endfacet
  facet normal -0.951057 -0.309017 0
    outer loop
      vertex -16.1825 -5.1 8.33
      vertex -15.8062 -6.25812 0
      vertex -15.8062 -6.25812 8.33
    endloop
  endfacet
  facet normal -0.770513 -0.637424 0
    outer loop
      vertex -12.3925 -11.6373 0
      vertex -13.7533 -9.99235 8.33
      vertex -13.7533 -9.99235 0
    endloop
  endfacet
  facet normal -0.770513 -0.637424 0
    outer loop
      vertex -13.7533 -9.99235 8.33
      vertex -12.3925 -11.6373 0
      vertex -12.3925 -11.6373 8.33
    endloop
  endfacet
  facet normal 0.368125 -0.929776 0
    outer loop
      vertex 5.25329 -16.168 0
      vertex 7.23825 -15.3821 8.33
      vertex 5.25329 -16.168 8.33
    endloop
  endfacet
  facet normal 0.368125 -0.929776 0
    outer loop
      vertex 7.23825 -15.3821 8.33
      vertex 5.25329 -16.168 0
      vertex 7.23825 -15.3821 0
    endloop
  endfacet
  facet normal 0.24869 -0.968583 0
    outer loop
      vertex 3.18548 -16.6989 0
      vertex 5.25329 -16.168 8.33
      vertex 3.18548 -16.6989 8.33
    endloop
  endfacet
  facet normal 0.24869 -0.968583 0
    outer loop
      vertex 5.25329 -16.168 8.33
      vertex 3.18548 -16.6989 0
      vertex 5.25329 -16.168 0
    endloop
  endfacet
  facet normal 0.684547 -0.728969 0
    outer loop
      vertex 10.8362 -13.0987 0
      vertex 12.3925 -11.6373 8.33
      vertex 10.8362 -13.0987 8.33
    endloop
  endfacet
  facet normal 0.684547 -0.728969 0
    outer loop
      vertex 12.3925 -11.6373 8.33
      vertex 10.8362 -13.0987 0
      vertex 12.3925 -11.6373 0
    endloop
  endfacet
  facet normal 0.844328 -0.535827 0
    outer loop
      vertex 13.7533 -9.99235 8.33
      vertex 14.8972 -8.18981 0
      vertex 14.8972 -8.18981 8.33
    endloop
  endfacet
  facet normal 0.844328 -0.535827 0
    outer loop
      vertex 14.8972 -8.18981 0
      vertex 13.7533 -9.99235 8.33
      vertex 13.7533 -9.99235 0
    endloop
  endfacet
  facet normal -0.125333 -0.992115 0
    outer loop
      vertex -3.18548 -16.6989 0
      vertex -1.06744 -16.9665 8.33
      vertex -3.18548 -16.6989 8.33
    endloop
  endfacet
  facet normal -0.125333 -0.992115 -0
    outer loop
      vertex -1.06744 -16.9665 8.33
      vertex -3.18548 -16.6989 0
      vertex -1.06744 -16.9665 0
    endloop
  endfacet
  facet normal -0.368125 -0.929776 0
    outer loop
      vertex -7.23825 -15.3821 0
      vertex -5.25329 -16.168 8.33
      vertex -7.23825 -15.3821 8.33
    endloop
  endfacet
  facet normal -0.368125 -0.929776 -0
    outer loop
      vertex -5.25329 -16.168 8.33
      vertex -7.23825 -15.3821 0
      vertex -5.25329 -16.168 0
    endloop
  endfacet
  facet normal -0.24869 -0.968583 0
    outer loop
      vertex -5.25329 -16.168 0
      vertex -3.18548 -16.6989 8.33
      vertex -5.25329 -16.168 8.33
    endloop
  endfacet
  facet normal -0.24869 -0.968583 -0
    outer loop
      vertex -3.18548 -16.6989 8.33
      vertex -5.25329 -16.168 0
      vertex -3.18548 -16.6989 0
    endloop
  endfacet
  facet normal 0.587785 -0.809017 0
    outer loop
      vertex 9.10905 -14.3536 0
      vertex 10.8362 -13.0987 8.33
      vertex 9.10905 -14.3536 8.33
    endloop
  endfacet
  facet normal 0.587785 -0.809017 0
    outer loop
      vertex 10.8362 -13.0987 8.33
      vertex 9.10905 -14.3536 0
      vertex 10.8362 -13.0987 0
    endloop
  endfacet
  facet normal -0.481754 -0.876307 0
    outer loop
      vertex -9.10905 -14.3536 0
      vertex -7.23825 -15.3821 8.33
      vertex -9.10905 -14.3536 8.33
    endloop
  endfacet
  facet normal -0.481754 -0.876307 -0
    outer loop
      vertex -7.23825 -15.3821 8.33
      vertex -9.10905 -14.3536 0
      vertex -7.23825 -15.3821 0
    endloop
  endfacet
  facet normal 1 -0 0
    outer loop
      vertex 13 -5.1 8.33
      vertex 13 5.1 0
      vertex 13 5.1 8.33
    endloop
  endfacet
  facet normal 1 0 0
    outer loop
      vertex 13 5.1 0
      vertex 13 -5.1 8.33
      vertex 13 -5.1 0
    endloop
  endfacet
  facet normal 0 1 -0
    outer loop
      vertex 16.1825 -5.1 0
      vertex 13 -5.1 8.33
      vertex 16.1825 -5.1 8.33
    endloop
  endfacet
  facet normal 0 1 0
    outer loop
      vertex 13 -5.1 8.33
      vertex 16.1825 -5.1 0
      vertex 13 -5.1 0
    endloop
  endfacet
  facet normal 0 -1 0
    outer loop
      vertex 13 5.1 0
      vertex 16.1825 5.1 8.33
      vertex 13 5.1 8.33
    endloop
  endfacet
  facet normal 0 -1 -0
    outer loop
      vertex 16.1825 5.1 8.33
      vertex 13 5.1 0
      vertex 16.1825 5.1 0
    endloop
  endfacet
  facet normal -1 0 0
    outer loop
      vertex -13 -5.1 0
      vertex -13 5.1 8.33
      vertex -13 5.1 0
    endloop
  endfacet
  facet normal -1 -0 0
    outer loop
      vertex -13 5.1 8.33
      vertex -13 -5.1 0
      vertex -13 -5.1 8.33
    endloop
  endfacet
  facet normal 0 1 -0
    outer loop
      vertex -13 -5.1 0
      vertex -16.1825 -5.1 8.33
      vertex -13 -5.1 8.33
    endloop
  endfacet
  facet normal 0 1 0
    outer loop
      vertex -16.1825 -5.1 8.33
      vertex -13 -5.1 0
      vertex -16.1825 -5.1 0
    endloop
  endfacet
  facet normal 0 -1 0
    outer loop
      vertex -16.1825 5.1 0
      vertex -13 5.1 8.33
      vertex -16.1825 5.1 8.33
    endloop
  endfacet
  facet normal 0 -1 -0
    outer loop
      vertex -13 5.1 8.33
      vertex -16.1825 5.1 0
      vertex -13 5.1 0
    endloop
  endfacet
  facet normal -0.866025 -0.5 0
    outer loop
      vertex 10.1404 4.51478 0
      vertex 8.98009 6.52442 8.33
      vertex 8.98009 6.52442 0
    endloop
  endfacet
  facet normal -0.866025 -0.5 0
    outer loop
      vertex 8.98009 6.52442 8.33
      vertex 10.1404 4.51478 0
      vertex 10.1404 4.51478 8.33
    endloop
  endfacet
  facet normal 0.994522 -0.104528 0
    outer loop
      vertex -11.1 0 8.33
      vertex -10.8574 2.30782 0
      vertex -10.8574 2.30782 8.33
    endloop
  endfacet
  facet normal 0.994522 -0.104528 0
    outer loop
      vertex -10.8574 2.30782 0
      vertex -11.1 0 8.33
      vertex -11.1 0 0
    endloop
  endfacet
  facet normal 0 -1 0
    outer loop
      vertex -1.16027 11.0392 0
      vertex 1.16027 11.0392 8.33
      vertex -1.16027 11.0392 8.33
    endloop
  endfacet
  facet normal 0 -1 -0
    outer loop
      vertex 1.16027 11.0392 8.33
      vertex -1.16027 11.0392 0
      vertex 1.16027 11.0392 0
    endloop
  endfacet
  facet normal -0.743145 -0.669131 0
    outer loop
      vertex 8.98009 6.52442 0
      vertex 7.42735 8.24891 8.33
      vertex 7.42735 8.24891 0
    endloop
  endfacet
  facet normal -0.743145 -0.669131 0
    outer loop
      vertex 7.42735 8.24891 8.33
      vertex 8.98009 6.52442 0
      vertex 8.98009 6.52442 8.33
    endloop
  endfacet
  facet normal -0.207912 -0.978148 0
    outer loop
      vertex 1.16027 11.0392 0
      vertex 3.43009 10.5567 8.33
      vertex 1.16027 11.0392 8.33
    endloop
  endfacet
  facet normal -0.207912 -0.978148 -0
    outer loop
      vertex 3.43009 10.5567 8.33
      vertex 1.16027 11.0392 0
      vertex 3.43009 10.5567 0
    endloop
  endfacet
  facet normal 0.406736 -0.913546 0
    outer loop
      vertex -5.55 9.61288 0
      vertex -3.43009 10.5567 8.33
      vertex -5.55 9.61288 8.33
    endloop
  endfacet
  facet normal 0.406736 -0.913546 0
    outer loop
      vertex -3.43009 10.5567 8.33
      vertex -5.55 9.61288 0
      vertex -3.43009 10.5567 0
    endloop
  endfacet
  facet normal 0.951056 -0.309017 0
    outer loop
      vertex -10.8574 2.30782 8.33
      vertex -10.1404 4.51478 0
      vertex -10.1404 4.51478 8.33
    endloop
  endfacet
  facet normal 0.951056 -0.309017 0
    outer loop
      vertex -10.1404 4.51478 0
      vertex -10.8574 2.30782 8.33
      vertex -10.8574 2.30782 0
    endloop
  endfacet
  facet normal -0.994522 0.104528 0
    outer loop
      vertex 10.8574 -2.30782 0
      vertex 11.1 0 8.33
      vertex 11.1 0 0
    endloop
  endfacet
  facet normal -0.994522 0.104528 0
    outer loop
      vertex 11.1 0 8.33
      vertex 10.8574 -2.30782 0
      vertex 10.8574 -2.30782 8.33
    endloop
  endfacet
  facet normal -0.207912 0.978148 0
    outer loop
      vertex 3.43009 -10.5567 0
      vertex 1.16027 -11.0392 8.33
      vertex 3.43009 -10.5567 8.33
    endloop
  endfacet
  facet normal -0.207912 0.978148 0
    outer loop
      vertex 1.16027 -11.0392 8.33
      vertex 3.43009 -10.5567 0
      vertex 1.16027 -11.0392 0
    endloop
  endfacet
  facet normal -0.951056 -0.309017 0
    outer loop
      vertex 10.8574 2.30782 0
      vertex 10.1404 4.51478 8.33
      vertex 10.1404 4.51478 0
    endloop
  endfacet
  facet normal -0.951056 -0.309017 0
    outer loop
      vertex 10.1404 4.51478 8.33
      vertex 10.8574 2.30782 0
      vertex 10.8574 2.30782 8.33
    endloop
  endfacet
  facet normal -0.587785 -0.809017 0
    outer loop
      vertex 5.55 9.61288 0
      vertex 7.42735 8.24891 8.33
      vertex 5.55 9.61288 8.33
    endloop
  endfacet
  facet normal -0.587785 -0.809017 -0
    outer loop
      vertex 7.42735 8.24891 8.33
      vertex 5.55 9.61288 0
      vertex 7.42735 8.24891 0
    endloop
  endfacet
  facet normal -0.406736 -0.913546 0
    outer loop
      vertex 3.43009 10.5567 0
      vertex 5.55 9.61288 8.33
      vertex 3.43009 10.5567 8.33
    endloop
  endfacet
  facet normal -0.406736 -0.913546 -0
    outer loop
      vertex 5.55 9.61288 8.33
      vertex 3.43009 10.5567 0
      vertex 5.55 9.61288 0
    endloop
  endfacet
  facet normal 0.866025 -0.5 0
    outer loop
      vertex -10.1404 4.51478 8.33
      vertex -8.98009 6.52442 0
      vertex -8.98009 6.52442 8.33
    endloop
  endfacet
  facet normal 0.866025 -0.5 0
    outer loop
      vertex -8.98009 6.52442 0
      vertex -10.1404 4.51478 8.33
      vertex -10.1404 4.51478 0
    endloop
  endfacet
  facet normal 0.587785 -0.809017 0
    outer loop
      vertex -7.42735 8.24891 0
      vertex -5.55 9.61288 8.33
      vertex -7.42735 8.24891 8.33
    endloop
  endfacet
  facet normal 0.587785 -0.809017 0
    outer loop
      vertex -5.55 9.61288 8.33
      vertex -7.42735 8.24891 0
      vertex -5.55 9.61288 0
    endloop
  endfacet
  facet normal 0.207912 -0.978148 0
    outer loop
      vertex -3.43009 10.5567 0
      vertex -1.16027 11.0392 8.33
      vertex -3.43009 10.5567 8.33
    endloop
  endfacet
  facet normal 0.207912 -0.978148 0
    outer loop
      vertex -1.16027 11.0392 8.33
      vertex -3.43009 10.5567 0
      vertex -1.16027 11.0392 0
    endloop
  endfacet
  facet normal 0.743145 -0.669131 0
    outer loop
      vertex -8.98009 6.52442 8.33
      vertex -7.42735 8.24891 0
      vertex -7.42735 8.24891 8.33
    endloop
  endfacet
  facet normal 0.743145 -0.669131 0
    outer loop
      vertex -7.42735 8.24891 0
      vertex -8.98009 6.52442 8.33
      vertex -8.98009 6.52442 0
    endloop
  endfacet
  facet normal -0.994522 -0.104528 0
    outer loop
      vertex 11.1 0 0
      vertex 10.8574 2.30782 8.33
      vertex 10.8574 2.30782 0
    endloop
  endfacet
  facet normal -0.994522 -0.104528 0
    outer loop
      vertex 10.8574 2.30782 8.33
      vertex 11.1 0 0
      vertex 11.1 0 8.33
    endloop
  endfacet
  facet normal -0.951056 0.309017 0
    outer loop
      vertex 10.1404 -4.51478 0
      vertex 10.8574 -2.30782 8.33
      vertex 10.8574 -2.30782 0
    endloop
  endfacet
  facet normal -0.951056 0.309017 0
    outer loop
      vertex 10.8574 -2.30782 8.33
      vertex 10.1404 -4.51478 0
      vertex 10.1404 -4.51478 8.33
    endloop
  endfacet
  facet normal 0.994522 0.104528 0
    outer loop
      vertex -10.8574 -2.30782 8.33
      vertex -11.1 0 0
      vertex -11.1 0 8.33
    endloop
  endfacet
  facet normal 0.994522 0.104528 0
    outer loop
      vertex -11.1 0 0
      vertex -10.8574 -2.30782 8.33
      vertex -10.8574 -2.30782 0
    endloop
  endfacet
  facet normal -0.587785 0.809017 0
    outer loop
      vertex 7.42735 -8.24891 0
      vertex 5.55 -9.61288 8.33
      vertex 7.42735 -8.24891 8.33
    endloop
  endfacet
  facet normal -0.587785 0.809017 0
    outer loop
      vertex 5.55 -9.61288 8.33
      vertex 7.42735 -8.24891 0
      vertex 5.55 -9.61288 0
    endloop
  endfacet
  facet normal -0.866025 0.5 0
    outer loop
      vertex 8.98009 -6.52442 0
      vertex 10.1404 -4.51478 8.33
      vertex 10.1404 -4.51478 0
    endloop
  endfacet
  facet normal -0.866025 0.5 0
    outer loop
      vertex 10.1404 -4.51478 8.33
      vertex 8.98009 -6.52442 0
      vertex 8.98009 -6.52442 8.33
    endloop
  endfacet
  facet normal 0 1 -0
    outer loop
      vertex 1.16027 -11.0392 0
      vertex -1.16027 -11.0392 8.33
      vertex 1.16027 -11.0392 8.33
    endloop
  endfacet
  facet normal 0 1 0
    outer loop
      vertex -1.16027 -11.0392 8.33
      vertex 1.16027 -11.0392 0
      vertex -1.16027 -11.0392 0
    endloop
  endfacet
  facet normal -0.406736 0.913546 0
    outer loop
      vertex 5.55 -9.61288 0
      vertex 3.43009 -10.5567 8.33
      vertex 5.55 -9.61288 8.33
    endloop
  endfacet
  facet normal -0.406736 0.913546 0
    outer loop
      vertex 3.43009 -10.5567 8.33
      vertex 5.55 -9.61288 0
      vertex 3.43009 -10.5567 0
    endloop
  endfacet
  facet normal 0.866025 0.5 0
    outer loop
      vertex -8.98009 -6.52442 8.33
      vertex -10.1404 -4.51478 0
      vertex -10.1404 -4.51478 8.33
    endloop
  endfacet
  facet normal 0.866025 0.5 0
    outer loop
      vertex -10.1404 -4.51478 0
      vertex -8.98009 -6.52442 8.33
      vertex -8.98009 -6.52442 0
    endloop
  endfacet
  facet normal 0.951056 0.309017 0
    outer loop
      vertex -10.1404 -4.51478 8.33
      vertex -10.8574 -2.30782 0
      vertex -10.8574 -2.30782 8.33
    endloop
  endfacet
  facet normal 0.951056 0.309017 0
    outer loop
      vertex -10.8574 -2.30782 0
      vertex -10.1404 -4.51478 8.33
      vertex -10.1404 -4.51478 0
    endloop
  endfacet
  facet normal 0.743145 0.669131 0
    outer loop
      vertex -7.42735 -8.24891 8.33
      vertex -8.98009 -6.52442 0
      vertex -8.98009 -6.52442 8.33
    endloop
  endfacet
  facet normal 0.743145 0.669131 0
    outer loop
      vertex -8.98009 -6.52442 0
      vertex -7.42735 -8.24891 8.33
      vertex -7.42735 -8.24891 0
    endloop
  endfacet
  facet normal 0.207912 0.978148 -0
    outer loop
      vertex -1.16027 -11.0392 0
      vertex -3.43009 -10.5567 8.33
      vertex -1.16027 -11.0392 8.33
    endloop
  endfacet
  facet normal 0.207912 0.978148 0
    outer loop
      vertex -3.43009 -10.5567 8.33
      vertex -1.16027 -11.0392 0
      vertex -3.43009 -10.5567 0
    endloop
  endfacet
  facet normal 0.587785 0.809017 -0
    outer loop
      vertex -5.55 -9.61288 0
      vertex -7.42735 -8.24891 8.33
      vertex -5.55 -9.61288 8.33
    endloop
  endfacet
  facet normal 0.587785 0.809017 0
    outer loop
      vertex -7.42735 -8.24891 8.33
      vertex -5.55 -9.61288 0
      vertex -7.42735 -8.24891 0
    endloop
  endfacet
  facet normal -0.743145 0.669131 0
    outer loop
      vertex 7.42735 -8.24891 0
      vertex 8.98009 -6.52442 8.33
      vertex 8.98009 -6.52442 0
    endloop
  endfacet
  facet normal -0.743145 0.669131 0
    outer loop
      vertex 8.98009 -6.52442 8.33
      vertex 7.42735 -8.24891 0
      vertex 7.42735 -8.24891 8.33
    endloop
  endfacet
  facet normal 0.406736 0.913546 -0
    outer loop
      vertex -3.43009 -10.5567 0
      vertex -5.55 -9.61288 8.33
      vertex -3.43009 -10.5567 8.33
    endloop
  endfacet
  facet normal 0.406736 0.913546 0
    outer loop
      vertex -5.55 -9.61288 8.33
      vertex -3.43009 -10.5567 0
      vertex -5.55 -9.61288 0
    endloop
  endfacet
endsolid OpenSCAD_Model
