solid OpenSCAD_Model
  facet normal 0.994522 0.104529 0
    outer loop
      vertex 3 0 1
      vertex 2.93444 0.623734 0
      vertex 2.93444 0.623734 1
    endloop
  endfacet
  facet normal 0.994522 0.104529 0
    outer loop
      vertex 2.93444 0.623734 0
      vertex 3 0 1
      vertex 3 0 0
    endloop
  endfacet
  facet normal -0.994522 0.104529 0
    outer loop
      vertex -3 0 0
      vertex -2.93444 0.623734 1
      vertex -2.93444 0.623734 0
    endloop
  endfacet
  facet normal -0.994522 0.104529 0
    outer loop
      vertex -2.93444 0.623734 1
      vertex -3 0 0
      vertex -3 0 1
    endloop
  endfacet
  facet normal 0 1 -0
    outer loop
      vertex 0.313585 2.98357 0
      vertex -0.313585 2.98357 1
      vertex 0.313585 2.98357 1
    endloop
  endfacet
  facet normal 0 1 0
    outer loop
      vertex -0.313585 2.98357 1
      vertex 0.313585 2.98357 0
      vertex -0.313585 2.98357 0
    endloop
  endfacet
  facet normal 0 -1 0
    outer loop
      vertex -0.313585 -2.98357 0
      vertex 0.313585 -2.98357 1
      vertex -0.313585 -2.98357 1
    endloop
  endfacet
  facet normal 0 -1 -0
    outer loop
      vertex 0.313585 -2.98357 1
      vertex -0.313585 -2.98357 0
      vertex 0.313585 -2.98357 0
    endloop
  endfacet
  facet normal 0.587786 0.809016 -0
    outer loop
      vertex 2.00739 2.22943 0
      vertex 1.5 2.59808 1
      vertex 2.00739 2.22943 1
    endloop
  endfacet
  facet normal 0.587786 0.809016 0
    outer loop
      vertex 1.5 2.59808 1
      vertex 2.00739 2.22943 0
      vertex 1.5 2.59808 0
    endloop
  endfacet
  facet normal 0.406737 0.913545 -0
    outer loop
      vertex 1.5 2.59808 0
      vertex 0.927051 2.85317 1
      vertex 1.5 2.59808 1
    endloop
  endfacet
  facet normal 0.406737 0.913545 0
    outer loop
      vertex 0.927051 2.85317 1
      vertex 1.5 2.59808 0
      vertex 0.927051 2.85317 0
    endloop
  endfacet
  facet normal -0.743144 0.669131 0
    outer loop
      vertex -2.42705 1.76336 0
      vertex -2.00739 2.22943 1
      vertex -2.00739 2.22943 0
    endloop
  endfacet
  facet normal -0.743144 0.669131 0
    outer loop
      vertex -2.00739 2.22943 1
      vertex -2.42705 1.76336 0
      vertex -2.42705 1.76336 1
    endloop
  endfacet
  facet normal -0.406737 0.913545 0
    outer loop
      vertex -0.927051 2.85317 0
      vertex -1.5 2.59808 1
      vertex -0.927051 2.85317 1
    endloop
  endfacet
  facet normal -0.406737 0.913545 0
    outer loop
      vertex -1.5 2.59808 1
      vertex -0.927051 2.85317 0
      vertex -1.5 2.59808 0
    endloop
  endfacet
  facet normal 0.951056 -0.309017 0
    outer loop
      vertex 2.74064 -1.22021 1
      vertex 2.93444 -0.623734 0
      vertex 2.93444 -0.623734 1
    endloop
  endfacet
  facet normal 0.951056 -0.309017 0
    outer loop
      vertex 2.93444 -0.623734 0
      vertex 2.74064 -1.22021 1
      vertex 2.74064 -1.22021 0
    endloop
  endfacet
  facet normal 0.866026 0.5 0
    outer loop
      vertex 2.74064 1.22021 1
      vertex 2.42705 1.76336 0
      vertex 2.42705 1.76336 1
    endloop
  endfacet
  facet normal 0.866026 0.5 0
    outer loop
      vertex 2.42705 1.76336 0
      vertex 2.74064 1.22021 1
      vertex 2.74064 1.22021 0
    endloop
  endfacet
  facet normal 0.951056 0.309017 0
    outer loop
      vertex 2.93444 0.623734 1
      vertex 2.74064 1.22021 0
      vertex 2.74064 1.22021 1
    endloop
  endfacet
  facet normal 0.951056 0.309017 0
    outer loop
      vertex 2.74064 1.22021 0
      vertex 2.93444 0.623734 1
      vertex 2.93444 0.623734 0
    endloop
  endfacet
  facet normal 0.743144 0.669131 0
    outer loop
      vertex 2.42705 1.76336 1
      vertex 2.00739 2.22943 0
      vertex 2.00739 2.22943 1
    endloop
  endfacet
  facet normal 0.743144 0.669131 0
    outer loop
      vertex 2.00739 2.22943 0
      vertex 2.42705 1.76336 1
      vertex 2.42705 1.76336 0
    endloop
  endfacet
  facet normal 0.207911 0.978148 -0
    outer loop
      vertex 0.927051 2.85317 0
      vertex 0.313585 2.98357 1
      vertex 0.927051 2.85317 1
    endloop
  endfacet
  facet normal 0.207911 0.978148 0
    outer loop
      vertex 0.313585 2.98357 1
      vertex 0.927051 2.85317 0
      vertex 0.313585 2.98357 0
    endloop
  endfacet
  facet normal -0.866026 0.5 0
    outer loop
      vertex -2.74064 1.22021 0
      vertex -2.42705 1.76336 1
      vertex -2.42705 1.76336 0
    endloop
  endfacet
  facet normal -0.866026 0.5 0
    outer loop
      vertex -2.42705 1.76336 1
      vertex -2.74064 1.22021 0
      vertex -2.74064 1.22021 1
    endloop
  endfacet
  facet normal -0.951056 0.309017 0
    outer loop
      vertex -2.93444 0.623734 0
      vertex -2.74064 1.22021 1
      vertex -2.74064 1.22021 0
    endloop
  endfacet
  facet normal -0.951056 0.309017 0
    outer loop
      vertex -2.74064 1.22021 1
      vertex -2.93444 0.623734 0
      vertex -2.93444 0.623734 1
    endloop
  endfacet
  facet normal -0.587785 0.809017 0
    outer loop
      vertex -1.5 2.59808 0
      vertex -2.00739 2.22943 1
      vertex -1.5 2.59808 1
    endloop
  endfacet
  facet normal -0.587785 0.809017 0
    outer loop
      vertex -2.00739 2.22943 1
      vertex -1.5 2.59808 0
      vertex -2.00739 2.22943 0
    endloop
  endfacet
  facet normal -0.207911 0.978148 0
    outer loop
      vertex -0.313585 2.98357 0
      vertex -0.927051 2.85317 1
      vertex -0.313585 2.98357 1
    endloop
  endfacet
  facet normal -0.207911 0.978148 0
    outer loop
      vertex -0.927051 2.85317 1
      vertex -0.313585 2.98357 0
      vertex -0.927051 2.85317 0
    endloop
  endfacet
  facet normal 0.994522 -0.104529 0
    outer loop
      vertex 2.93444 -0.623734 1
      vertex 3 0 0
      vertex 3 0 1
    endloop
  endfacet
  facet normal 0.994522 -0.104529 0
    outer loop
      vertex 3 0 0
      vertex 2.93444 -0.623734 1
      vertex 2.93444 -0.623734 0
    endloop
  endfacet
  facet normal 0.207911 -0.978148 0
    outer loop
      vertex 0.313585 -2.98357 0
      vertex 0.927051 -2.85317 1
      vertex 0.313585 -2.98357 1
    endloop
  endfacet
  facet normal 0.207911 -0.978148 0
    outer loop
      vertex 0.927051 -2.85317 1
      vertex 0.313585 -2.98357 0
      vertex 0.927051 -2.85317 0
    endloop
  endfacet
  facet normal 0.866026 -0.5 0
    outer loop
      vertex 2.42705 -1.76336 1
      vertex 2.74064 -1.22021 0
      vertex 2.74064 -1.22021 1
    endloop
  endfacet
  facet normal 0.866026 -0.5 0
    outer loop
      vertex 2.74064 -1.22021 0
      vertex 2.42705 -1.76336 1
      vertex 2.42705 -1.76336 0
    endloop
  endfacet
  facet normal 0 0 -1
    outer loop
      vertex 1.25 0 0
      vertex 3 0 0
      vertex 2.93444 -0.623734 0
    endloop
  endfacet
  facet normal 0 0 -1
    outer loop
      vertex 1.22268 -0.25989 0
      vertex 2.93444 -0.623734 0
      vertex 2.74064 -1.22021 0
    endloop
  endfacet
  facet normal 0 0 -1
    outer loop
      vertex 3 0 0
      vertex 1.25 0 0
      vertex 2.93444 0.623734 0
    endloop
  endfacet
  facet normal 0 0 -1
    outer loop
      vertex 1.14193 -0.50842 0
      vertex 2.74064 -1.22021 0
      vertex 2.42705 -1.76336 0
    endloop
  endfacet
  facet normal 0 0 -1
    outer loop
      vertex 1.22268 0.25989 0
      vertex 2.93444 0.623734 0
      vertex 1.25 0 0
    endloop
  endfacet
  facet normal 0 0 -1
    outer loop
      vertex 1.01127 -0.734731 0
      vertex 2.42705 -1.76336 0
      vertex 2.00739 -2.22943 0
    endloop
  endfacet
  facet normal -0 0 -1
    outer loop
      vertex 2.93444 0.623734 0
      vertex 1.22268 0.25989 0
      vertex 2.74064 1.22021 0
    endloop
  endfacet
  facet normal 0 0 -1
    outer loop
      vertex 0.836412 -0.92893 0
      vertex 2.00739 -2.22943 0
      vertex 1.5 -2.59808 0
    endloop
  endfacet
  facet normal 0 0 -1
    outer loop
      vertex 1.14193 0.50842 0
      vertex 2.74064 1.22021 0
      vertex 1.22268 0.25989 0
    endloop
  endfacet
  facet normal -0 0 -1
    outer loop
      vertex 2.74064 1.22021 0
      vertex 1.14193 0.50842 0
      vertex 2.42705 1.76336 0
    endloop
  endfacet
  facet normal 0 0 -1
    outer loop
      vertex 2.93444 -0.623734 0
      vertex 1.22268 -0.25989 0
      vertex 1.25 0 0
    endloop
  endfacet
  facet normal 0 0 -1
    outer loop
      vertex 2.74064 -1.22021 0
      vertex 1.14193 -0.50842 0
      vertex 1.22268 -0.25989 0
    endloop
  endfacet
  facet normal 0 0 -1
    outer loop
      vertex 2.42705 -1.76336 0
      vertex 1.01127 -0.734731 0
      vertex 1.14193 -0.50842 0
    endloop
  endfacet
  facet normal 0 0 -1
    outer loop
      vertex 0.625 -1.08253 0
      vertex 1.5 -2.59808 0
      vertex 0.927051 -2.85317 0
    endloop
  endfacet
  facet normal 0 0 -1
    outer loop
      vertex 2.00739 -2.22943 0
      vertex 0.836412 -0.92893 0
      vertex 1.01127 -0.734731 0
    endloop
  endfacet
  facet normal 0 0 -1
    outer loop
      vertex 1.5 -2.59808 0
      vertex 0.625 -1.08253 0
      vertex 0.836412 -0.92893 0
    endloop
  endfacet
  facet normal 0 0 -1
    outer loop
      vertex 0.927051 -2.85317 0
      vertex 0.386271 -1.18882 0
      vertex 0.625 -1.08253 0
    endloop
  endfacet
  facet normal 0 0 -1
    outer loop
      vertex 0.313585 -2.98357 0
      vertex 0.386271 -1.18882 0
      vertex 0.927051 -2.85317 0
    endloop
  endfacet
  facet normal 0 0 -1
    outer loop
      vertex 0.313585 -2.98357 0
      vertex 0.13066 -1.24315 0
      vertex 0.386271 -1.18882 0
    endloop
  endfacet
  facet normal 0 0 -1
    outer loop
      vertex 0.313585 -2.98357 0
      vertex -0.13066 -1.24315 0
      vertex 0.13066 -1.24315 0
    endloop
  endfacet
  facet normal 0 0 -1
    outer loop
      vertex -0.313585 -2.98357 0
      vertex -0.13066 -1.24315 0
      vertex 0.313585 -2.98357 0
    endloop
  endfacet
  facet normal 0 0 -1
    outer loop
      vertex -0.313585 -2.98357 0
      vertex -0.386271 -1.18882 0
      vertex -0.13066 -1.24315 0
    endloop
  endfacet
  facet normal 0 0 -1
    outer loop
      vertex -0.927051 -2.85317 0
      vertex -0.386271 -1.18882 0
      vertex -0.313585 -2.98357 0
    endloop
  endfacet
  facet normal -0 0 -1
    outer loop
      vertex -0.386271 -1.18882 0
      vertex -0.927051 -2.85317 0
      vertex -0.625 -1.08253 0
    endloop
  endfacet
  facet normal 0 0 -1
    outer loop
      vertex -1.5 -2.59808 0
      vertex -0.625 -1.08253 0
      vertex -0.927051 -2.85317 0
    endloop
  endfacet
  facet normal -0 0 -1
    outer loop
      vertex -0.625 -1.08253 0
      vertex -1.5 -2.59808 0
      vertex -0.836412 -0.92893 0
    endloop
  endfacet
  facet normal 0 0 -1
    outer loop
      vertex -2.00739 -2.22943 0
      vertex -0.836412 -0.92893 0
      vertex -1.5 -2.59808 0
    endloop
  endfacet
  facet normal -0 0 -1
    outer loop
      vertex -0.836412 -0.92893 0
      vertex -2.00739 -2.22943 0
      vertex -1.01127 -0.734731 0
    endloop
  endfacet
  facet normal 0 0 -1
    outer loop
      vertex -2.42705 -1.76336 0
      vertex -1.01127 -0.734731 0
      vertex -2.00739 -2.22943 0
    endloop
  endfacet
  facet normal -0 0 -1
    outer loop
      vertex -1.01127 -0.734731 0
      vertex -2.42705 -1.76336 0
      vertex -1.14193 -0.50842 0
    endloop
  endfacet
  facet normal 0 0 -1
    outer loop
      vertex -2.74064 -1.22021 0
      vertex -1.14193 -0.50842 0
      vertex -2.42705 -1.76336 0
    endloop
  endfacet
  facet normal -0 0 -1
    outer loop
      vertex -1.14193 -0.50842 0
      vertex -2.74064 -1.22021 0
      vertex -1.22268 -0.25989 0
    endloop
  endfacet
  facet normal 0 0 -1
    outer loop
      vertex -1.25 0 0
      vertex -2.00739 2.22943 0
      vertex -1.5 2.59808 0
    endloop
  endfacet
  facet normal 0 0 -1
    outer loop
      vertex -2.93444 -0.623734 0
      vertex -1.22268 -0.25989 0
      vertex -2.74064 -1.22021 0
    endloop
  endfacet
  facet normal 0 0 -1
    outer loop
      vertex -1.25 0 0
      vertex -2.42705 1.76336 0
      vertex -2.00739 2.22943 0
    endloop
  endfacet
  facet normal -0 0 -1
    outer loop
      vertex -1.22268 -0.25989 0
      vertex -2.93444 -0.623734 0
      vertex -1.25 0 0
    endloop
  endfacet
  facet normal 0 0 -1
    outer loop
      vertex -1.25 0 0
      vertex -2.74064 1.22021 0
      vertex -2.42705 1.76336 0
    endloop
  endfacet
  facet normal 0 0 -1
    outer loop
      vertex -3 0 0
      vertex -1.25 0 0
      vertex -2.93444 -0.623734 0
    endloop
  endfacet
  facet normal 0 0 -1
    outer loop
      vertex -1.25 0 0
      vertex -2.93444 0.623734 0
      vertex -2.74064 1.22021 0
    endloop
  endfacet
  facet normal 0 0 -1
    outer loop
      vertex -1.25 0 0
      vertex -3 0 0
      vertex -2.93444 0.623734 0
    endloop
  endfacet
  facet normal 0 0 -1
    outer loop
      vertex 1.01127 0.734731 0
      vertex 2.42705 1.76336 0
      vertex 1.14193 0.50842 0
    endloop
  endfacet
  facet normal -0 0 -1
    outer loop
      vertex 2.42705 1.76336 0
      vertex 1.01127 0.734731 0
      vertex 2.00739 2.22943 0
    endloop
  endfacet
  facet normal 0 0 -1
    outer loop
      vertex 0.836412 0.92893 0
      vertex 2.00739 2.22943 0
      vertex 1.01127 0.734731 0
    endloop
  endfacet
  facet normal -0 0 -1
    outer loop
      vertex 2.00739 2.22943 0
      vertex 0.836412 0.92893 0
      vertex 1.5 2.59808 0
    endloop
  endfacet
  facet normal 0 0 -1
    outer loop
      vertex 0.625 1.08253 0
      vertex 1.5 2.59808 0
      vertex 0.836412 0.92893 0
    endloop
  endfacet
  facet normal -0 0 -1
    outer loop
      vertex 1.5 2.59808 0
      vertex 0.625 1.08253 0
      vertex 0.927051 2.85317 0
    endloop
  endfacet
  facet normal 0 0 -1
    outer loop
      vertex 0.386271 1.18882 0
      vertex 0.927051 2.85317 0
      vertex 0.625 1.08253 0
    endloop
  endfacet
  facet normal 0 0 -1
    outer loop
      vertex 0.386271 1.18882 0
      vertex 0.313585 2.98357 0
      vertex 0.927051 2.85317 0
    endloop
  endfacet
  facet normal 0 0 -1
    outer loop
      vertex 0.13066 1.24315 0
      vertex 0.313585 2.98357 0
      vertex 0.386271 1.18882 0
    endloop
  endfacet
  facet normal 0 0 -1
    outer loop
      vertex -0.13066 1.24315 0
      vertex 0.313585 2.98357 0
      vertex 0.13066 1.24315 0
    endloop
  endfacet
  facet normal 0 0 -1
    outer loop
      vertex -0.13066 1.24315 0
      vertex -0.313585 2.98357 0
      vertex 0.313585 2.98357 0
    endloop
  endfacet
  facet normal 0 0 -1
    outer loop
      vertex -0.386271 1.18882 0
      vertex -0.313585 2.98357 0
      vertex -0.13066 1.24315 0
    endloop
  endfacet
  facet normal 0 0 -1
    outer loop
      vertex -0.927051 2.85317 0
      vertex -0.386271 1.18882 0
      vertex -0.624999 1.08253 0
    endloop
  endfacet
  facet normal 0 0 -1
    outer loop
      vertex -1.5 2.59808 0
      vertex -0.624999 1.08253 0
      vertex -0.836412 0.92893 0
    endloop
  endfacet
  facet normal 0 0 -1
    outer loop
      vertex -0.386271 1.18882 0
      vertex -0.927051 2.85317 0
      vertex -0.313585 2.98357 0
    endloop
  endfacet
  facet normal 0 0 -1
    outer loop
      vertex -1.5 2.59808 0
      vertex -0.836412 0.92893 0
      vertex -1.01127 0.734731 0
    endloop
  endfacet
  facet normal 0 0 -1
    outer loop
      vertex -1.5 2.59808 0
      vertex -1.01127 0.734731 0
      vertex -1.14193 0.50842 0
    endloop
  endfacet
  facet normal 0 0 -1
    outer loop
      vertex -1.5 2.59808 0
      vertex -1.14193 0.50842 0
      vertex -1.22268 0.25989 0
    endloop
  endfacet
  facet normal 0 0 -1
    outer loop
      vertex -0.624999 1.08253 0
      vertex -1.5 2.59808 0
      vertex -0.927051 2.85317 0
    endloop
  endfacet
  facet normal 0 0 -1
    outer loop
      vertex -1.5 2.59808 0
      vertex -1.22268 0.25989 0
      vertex -1.25 0 0
    endloop
  endfacet
  facet normal 0.587786 -0.809016 0
    outer loop
      vertex 1.5 -2.59808 0
      vertex 2.00739 -2.22943 1
      vertex 1.5 -2.59808 1
    endloop
  endfacet
  facet normal 0.587786 -0.809016 0
    outer loop
      vertex 2.00739 -2.22943 1
      vertex 1.5 -2.59808 0
      vertex 2.00739 -2.22943 0
    endloop
  endfacet
  facet normal 0.406737 -0.913545 0
    outer loop
      vertex 0.927051 -2.85317 0
      vertex 1.5 -2.59808 1
      vertex 0.927051 -2.85317 1
    endloop
  endfacet
  facet normal 0.406737 -0.913545 0
    outer loop
      vertex 1.5 -2.59808 1
      vertex 0.927051 -2.85317 0
      vertex 1.5 -2.59808 0
    endloop
  endfacet
  facet normal -0.207911 -0.978148 0
    outer loop
      vertex -0.927051 -2.85317 0
      vertex -0.313585 -2.98357 1
      vertex -0.927051 -2.85317 1
    endloop
  endfacet
  facet normal -0.207911 -0.978148 -0
    outer loop
      vertex -0.313585 -2.98357 1
      vertex -0.927051 -2.85317 0
      vertex -0.313585 -2.98357 0
    endloop
  endfacet
  facet normal -0.743144 -0.669131 0
    outer loop
      vertex -2.00739 -2.22943 0
      vertex -2.42705 -1.76336 1
      vertex -2.42705 -1.76336 0
    endloop
  endfacet
  facet normal -0.743144 -0.669131 0
    outer loop
      vertex -2.42705 -1.76336 1
      vertex -2.00739 -2.22943 0
      vertex -2.00739 -2.22943 1
    endloop
  endfacet
  facet normal -0.866026 -0.5 0
    outer loop
      vertex -2.42705 -1.76336 0
      vertex -2.74064 -1.22021 1
      vertex -2.74064 -1.22021 0
    endloop
  endfacet
  facet normal -0.866026 -0.5 0
    outer loop
      vertex -2.74064 -1.22021 1
      vertex -2.42705 -1.76336 0
      vertex -2.42705 -1.76336 1
    endloop
  endfacet
  facet normal -0.951056 -0.309017 0
    outer loop
      vertex -2.74064 -1.22021 0
      vertex -2.93444 -0.623734 1
      vertex -2.93444 -0.623734 0
    endloop
  endfacet
  facet normal -0.951056 -0.309017 0
    outer loop
      vertex -2.93444 -0.623734 1
      vertex -2.74064 -1.22021 0
      vertex -2.74064 -1.22021 1
    endloop
  endfacet
  facet normal -0.994522 -0.104529 0
    outer loop
      vertex -2.93444 -0.623734 0
      vertex -3 0 1
      vertex -3 0 0
    endloop
  endfacet
  facet normal -0.994522 -0.104529 0
    outer loop
      vertex -3 0 1
      vertex -2.93444 -0.623734 0
      vertex -2.93444 -0.623734 1
    endloop
  endfacet
  facet normal 0.743144 -0.669131 0
    outer loop
      vertex 2.00739 -2.22943 1
      vertex 2.42705 -1.76336 0
      vertex 2.42705 -1.76336 1
    endloop
  endfacet
  facet normal 0.743144 -0.669131 0
    outer loop
      vertex 2.42705 -1.76336 0
      vertex 2.00739 -2.22943 1
      vertex 2.00739 -2.22943 0
    endloop
  endfacet
  facet normal -0.406737 -0.913545 0
    outer loop
      vertex -1.5 -2.59808 0
      vertex -0.927051 -2.85317 1
      vertex -1.5 -2.59808 1
    endloop
  endfacet
  facet normal -0.406737 -0.913545 -0
    outer loop
      vertex -0.927051 -2.85317 1
      vertex -1.5 -2.59808 0
      vertex -0.927051 -2.85317 0
    endloop
  endfacet
  facet normal -0.587786 -0.809016 0
    outer loop
      vertex -2.00739 -2.22943 0
      vertex -1.5 -2.59808 1
      vertex -2.00739 -2.22943 1
    endloop
  endfacet
  facet normal -0.587786 -0.809016 -0
    outer loop
      vertex -1.5 -2.59808 1
      vertex -2.00739 -2.22943 0
      vertex -1.5 -2.59808 0
    endloop
  endfacet
  facet normal 0.55376 0.0582028 0.83064
    outer loop
      vertex 2.93444 0.623734 1
      vertex 1.5 0 2
      vertex 3 0 1
    endloop
  endfacet
  facet normal 0.529558 0.172064 0.83064
    outer loop
      vertex 2.74064 1.22021 1
      vertex 1.46722 0.311867 2
      vertex 2.93444 0.623734 1
    endloop
  endfacet
  facet normal 0 -0.55681 0.83064
    outer loop
      vertex -0.156793 -1.49178 2
      vertex 0.313585 -2.98357 1
      vertex 0.156793 -1.49178 2
    endloop
  endfacet
  facet normal 0 -0.55681 0.83064
    outer loop
      vertex 0.313585 -2.98357 1
      vertex -0.156793 -1.49178 2
      vertex -0.313585 -2.98357 1
    endloop
  endfacet
  facet normal 0 0.55681 0.83064
    outer loop
      vertex 0.313585 2.98357 1
      vertex -0.156793 1.49178 2
      vertex 0.156793 1.49178 2
    endloop
  endfacet
  facet normal 0 0.55681 0.83064
    outer loop
      vertex -0.156793 1.49178 2
      vertex 0.313585 2.98357 1
      vertex -0.313585 2.98357 1
    endloop
  endfacet
  facet normal -0.482212 0.278405 0.83064
    outer loop
      vertex -2.42705 1.76336 1
      vertex -1.37032 0.610105 2
      vertex -1.21352 0.881678 2
    endloop
  endfacet
  facet normal -0.482212 0.278405 0.83064
    outer loop
      vertex -1.37032 0.610105 2
      vertex -2.42705 1.76336 1
      vertex -2.74064 1.22021 1
    endloop
  endfacet
  facet normal -0.327285 0.450469 0.83064
    outer loop
      vertex -1.5 2.59808 1
      vertex -2.00739 2.22943 1
      vertex -0.749999 1.29904 2
    endloop
  endfacet
  facet normal -0.55376 0.0582028 0.83064
    outer loop
      vertex -2.93444 0.623734 1
      vertex -3 0 1
      vertex -1.5 0 2
    endloop
  endfacet
  facet normal -0.482212 -0.278405 0.83064
    outer loop
      vertex -1.37032 -0.610105 2
      vertex -2.42705 -1.76336 1
      vertex -1.21352 -0.881678 2
    endloop
  endfacet
  facet normal -0.482212 -0.278405 0.83064
    outer loop
      vertex -2.42705 -1.76336 1
      vertex -1.37032 -0.610105 2
      vertex -2.74064 -1.22021 1
    endloop
  endfacet
  facet normal 0.226475 0.508671 0.83064
    outer loop
      vertex 0.927051 2.85317 1
      vertex 0.75 1.29904 2
      vertex 1.5 2.59808 1
    endloop
  endfacet
  facet normal 0.41379 0.372579 0.83064
    outer loop
      vertex 2.42705 1.76336 1
      vertex 1.0037 1.11472 2
      vertex 1.21352 0.881678 2
    endloop
  endfacet
  facet normal 0.41379 -0.372579 0.83064
    outer loop
      vertex 2.42705 -1.76336 1
      vertex 1.0037 -1.11472 2
      vertex 2.00739 -2.22943 1
    endloop
  endfacet
  facet normal 0.327286 -0.450468 0.83064
    outer loop
      vertex 1.0037 -1.11472 2
      vertex 0.75 -1.29904 2
      vertex 2.00739 -2.22943 1
    endloop
  endfacet
  facet normal 0.55376 -0.0582028 0.83064
    outer loop
      vertex 3 0 1
      vertex 1.5 0 2
      vertex 2.93444 -0.623734 1
    endloop
  endfacet
  facet normal -0.529558 0.172064 0.83064
    outer loop
      vertex -2.74064 1.22021 1
      vertex -2.93444 0.623734 1
      vertex -1.46722 0.311867 2
    endloop
  endfacet
  facet normal -0.327285 0.450469 0.83064
    outer loop
      vertex -0.749999 1.29904 2
      vertex -2.00739 2.22943 1
      vertex -1.0037 1.11472 2
    endloop
  endfacet
  facet normal -0.226475 0.508671 0.83064
    outer loop
      vertex -0.927051 2.85317 1
      vertex -1.5 2.59808 1
      vertex -0.749999 1.29904 2
    endloop
  endfacet
  facet normal -0.41379 -0.372579 0.83064
    outer loop
      vertex -1.21352 -0.881678 2
      vertex -2.42705 -1.76336 1
      vertex -1.0037 -1.11472 2
    endloop
  endfacet
  facet normal 0.115767 0.544642 0.83064
    outer loop
      vertex 0.313585 2.98357 1
      vertex 0.156793 1.49178 2
      vertex 0.927051 2.85317 1
    endloop
  endfacet
  facet normal 0.41379 0.372579 0.83064
    outer loop
      vertex 2.00739 2.22943 1
      vertex 1.0037 1.11472 2
      vertex 2.42705 1.76336 1
    endloop
  endfacet
  facet normal 0.327286 0.450468 0.83064
    outer loop
      vertex 2.00739 2.22943 1
      vertex 0.75 1.29904 2
      vertex 1.0037 1.11472 2
    endloop
  endfacet
  facet normal 0.327285 0.450469 0.83064
    outer loop
      vertex 1.5 2.59808 1
      vertex 0.75 1.29904 2
      vertex 2.00739 2.22943 1
    endloop
  endfacet
  facet normal 0.529558 0.172065 0.83064
    outer loop
      vertex 2.74064 1.22021 1
      vertex 1.37032 0.610105 2
      vertex 1.46722 0.311867 2
    endloop
  endfacet
  facet normal 0.115767 -0.544642 0.83064
    outer loop
      vertex 0.927051 -2.85317 1
      vertex 0.156793 -1.49178 2
      vertex 0.313585 -2.98357 1
    endloop
  endfacet
  facet normal 0.226474 -0.508672 0.83064
    outer loop
      vertex 0.75 -1.29904 2
      vertex 0.463525 -1.42658 2
      vertex 0.927051 -2.85317 1
    endloop
  endfacet
  facet normal -0.55376 0.0582029 0.83064
    outer loop
      vertex -1.46722 0.311867 2
      vertex -2.93444 0.623734 1
      vertex -1.5 0 2
    endloop
  endfacet
  facet normal 0 0 1
    outer loop
      vertex 1.25 0 2
      vertex 1.5 0 2
      vertex 1.46722 0.311867 2
    endloop
  endfacet
  facet normal 0 0 1
    outer loop
      vertex 1.22268 0.25989 2
      vertex 1.46722 0.311867 2
      vertex 1.37032 0.610105 2
    endloop
  endfacet
  facet normal 0 0 1
    outer loop
      vertex 1.5 0 2
      vertex 1.25 0 2
      vertex 1.46722 -0.311867 2
    endloop
  endfacet
  facet normal -0 0 1
    outer loop
      vertex 1.22268 -0.25989 2
      vertex 1.46722 -0.311867 2
      vertex 1.25 0 2
    endloop
  endfacet
  facet normal 0 0 1
    outer loop
      vertex 1.46722 0.311867 2
      vertex 1.22268 0.25989 2
      vertex 1.25 0 2
    endloop
  endfacet
  facet normal 0 0 1
    outer loop
      vertex 1.14193 0.50842 2
      vertex 1.37032 0.610105 2
      vertex 1.21352 0.881678 2
    endloop
  endfacet
  facet normal 0 0 1
    outer loop
      vertex 1.37032 0.610105 2
      vertex 1.14193 0.50842 2
      vertex 1.22268 0.25989 2
    endloop
  endfacet
  facet normal 0 0 1
    outer loop
      vertex 1.21352 0.881678 2
      vertex 1.01127 0.734731 2
      vertex 1.14193 0.50842 2
    endloop
  endfacet
  facet normal 0 0 1
    outer loop
      vertex 1.0037 1.11472 2
      vertex 1.01127 0.734731 2
      vertex 1.21352 0.881678 2
    endloop
  endfacet
  facet normal 0 0 1
    outer loop
      vertex 1.0037 1.11472 2
      vertex 0.836412 0.92893 2
      vertex 1.01127 0.734731 2
    endloop
  endfacet
  facet normal 0 0 1
    outer loop
      vertex 0.75 1.29904 2
      vertex 0.836412 0.92893 2
      vertex 1.0037 1.11472 2
    endloop
  endfacet
  facet normal 0 0 1
    outer loop
      vertex 0.75 1.29904 2
      vertex 0.625 1.08253 2
      vertex 0.836412 0.92893 2
    endloop
  endfacet
  facet normal 0 0 1
    outer loop
      vertex 0.463525 1.42658 2
      vertex 0.625 1.08253 2
      vertex 0.75 1.29904 2
    endloop
  endfacet
  facet normal 0 0 1
    outer loop
      vertex 0.463525 1.42658 2
      vertex 0.386271 1.18882 2
      vertex 0.625 1.08253 2
    endloop
  endfacet
  facet normal 0 0 1
    outer loop
      vertex 0.156793 1.49178 2
      vertex 0.386271 1.18882 2
      vertex 0.463525 1.42658 2
    endloop
  endfacet
  facet normal 0 0 1
    outer loop
      vertex 0.156793 1.49178 2
      vertex 0.13066 1.24315 2
      vertex 0.386271 1.18882 2
    endloop
  endfacet
  facet normal 0 0 1
    outer loop
      vertex 0.156793 1.49178 2
      vertex -0.13066 1.24315 2
      vertex 0.13066 1.24315 2
    endloop
  endfacet
  facet normal -0 0 1
    outer loop
      vertex -0.156793 1.49178 2
      vertex -0.13066 1.24315 2
      vertex 0.156793 1.49178 2
    endloop
  endfacet
  facet normal 0 0 1
    outer loop
      vertex -0.156793 1.49178 2
      vertex -0.386271 1.18882 2
      vertex -0.13066 1.24315 2
    endloop
  endfacet
  facet normal -0 0 1
    outer loop
      vertex -0.463525 1.42658 2
      vertex -0.386271 1.18882 2
      vertex -0.156793 1.49178 2
    endloop
  endfacet
  facet normal 0 0 1
    outer loop
      vertex -0.463525 1.42658 2
      vertex -0.624999 1.08253 2
      vertex -0.386271 1.18882 2
    endloop
  endfacet
  facet normal -0 0 1
    outer loop
      vertex -0.749999 1.29904 2
      vertex -0.624999 1.08253 2
      vertex -0.463525 1.42658 2
    endloop
  endfacet
  facet normal 0 0 1
    outer loop
      vertex -0.749999 1.29904 2
      vertex -0.836412 0.92893 2
      vertex -0.624999 1.08253 2
    endloop
  endfacet
  facet normal -0 0 1
    outer loop
      vertex -1.0037 1.11472 2
      vertex -0.836412 0.92893 2
      vertex -0.749999 1.29904 2
    endloop
  endfacet
  facet normal 0 0 1
    outer loop
      vertex -1.0037 1.11472 2
      vertex -1.01127 0.734731 2
      vertex -0.836412 0.92893 2
    endloop
  endfacet
  facet normal -0 0 1
    outer loop
      vertex -1.21352 0.881678 2
      vertex -1.01127 0.734731 2
      vertex -1.0037 1.11472 2
    endloop
  endfacet
  facet normal 0 0 1
    outer loop
      vertex -1.01127 0.734731 2
      vertex -1.21352 0.881678 2
      vertex -1.14193 0.50842 2
    endloop
  endfacet
  facet normal -0 0 1
    outer loop
      vertex -1.37032 0.610105 2
      vertex -1.14193 0.50842 2
      vertex -1.21352 0.881678 2
    endloop
  endfacet
  facet normal 0 0 1
    outer loop
      vertex -1.14193 0.50842 2
      vertex -1.37032 0.610105 2
      vertex -1.22268 0.25989 2
    endloop
  endfacet
  facet normal -0 0 1
    outer loop
      vertex -1.46722 0.311867 2
      vertex -1.22268 0.25989 2
      vertex -1.37032 0.610105 2
    endloop
  endfacet
  facet normal 0 0 1
    outer loop
      vertex 1.46722 -0.311867 2
      vertex 1.22268 -0.25989 2
      vertex 1.37032 -0.610105 2
    endloop
  endfacet
  facet normal -0 0 1
    outer loop
      vertex 1.14193 -0.50842 2
      vertex 1.37032 -0.610105 2
      vertex 1.22268 -0.25989 2
    endloop
  endfacet
  facet normal 0 0 1
    outer loop
      vertex 1.37032 -0.610105 2
      vertex 1.14193 -0.50842 2
      vertex 1.21352 -0.881678 2
    endloop
  endfacet
  facet normal -0 0 1
    outer loop
      vertex 1.01127 -0.734731 2
      vertex 1.21352 -0.881678 2
      vertex 1.14193 -0.50842 2
    endloop
  endfacet
  facet normal 0 0 1
    outer loop
      vertex 1.01127 -0.734731 2
      vertex 1.0037 -1.11472 2
      vertex 1.21352 -0.881678 2
    endloop
  endfacet
  facet normal -0 0 1
    outer loop
      vertex 0.836412 -0.92893 2
      vertex 1.0037 -1.11472 2
      vertex 1.01127 -0.734731 2
    endloop
  endfacet
  facet normal 0 0 1
    outer loop
      vertex 0.836412 -0.92893 2
      vertex 0.75 -1.29904 2
      vertex 1.0037 -1.11472 2
    endloop
  endfacet
  facet normal -0 0 1
    outer loop
      vertex 0.625 -1.08253 2
      vertex 0.75 -1.29904 2
      vertex 0.836412 -0.92893 2
    endloop
  endfacet
  facet normal 0 0 1
    outer loop
      vertex 0.625 -1.08253 2
      vertex 0.463525 -1.42658 2
      vertex 0.75 -1.29904 2
    endloop
  endfacet
  facet normal -0 0 1
    outer loop
      vertex 0.386271 -1.18882 2
      vertex 0.463525 -1.42658 2
      vertex 0.625 -1.08253 2
    endloop
  endfacet
  facet normal 0 0 1
    outer loop
      vertex 0.386271 -1.18882 2
      vertex 0.156793 -1.49178 2
      vertex 0.463525 -1.42658 2
    endloop
  endfacet
  facet normal -0 0 1
    outer loop
      vertex 0.13066 -1.24315 2
      vertex 0.156793 -1.49178 2
      vertex 0.386271 -1.18882 2
    endloop
  endfacet
  facet normal -0 0 1
    outer loop
      vertex -0.13066 -1.24315 2
      vertex 0.156793 -1.49178 2
      vertex 0.13066 -1.24315 2
    endloop
  endfacet
  facet normal 0 0 1
    outer loop
      vertex -0.13066 -1.24315 2
      vertex -0.156793 -1.49178 2
      vertex 0.156793 -1.49178 2
    endloop
  endfacet
  facet normal 0 0 1
    outer loop
      vertex -0.386271 -1.18882 2
      vertex -0.156793 -1.49178 2
      vertex -0.13066 -1.24315 2
    endloop
  endfacet
  facet normal 0 0 1
    outer loop
      vertex -0.386271 -1.18882 2
      vertex -0.463525 -1.42658 2
      vertex -0.156793 -1.49178 2
    endloop
  endfacet
  facet normal 0 0 1
    outer loop
      vertex -0.625 -1.08253 2
      vertex -0.463525 -1.42658 2
      vertex -0.386271 -1.18882 2
    endloop
  endfacet
  facet normal 0 0 1
    outer loop
      vertex -0.625 -1.08253 2
      vertex -0.75 -1.29904 2
      vertex -0.463525 -1.42658 2
    endloop
  endfacet
  facet normal 0 0 1
    outer loop
      vertex -0.836412 -0.92893 2
      vertex -0.75 -1.29904 2
      vertex -0.625 -1.08253 2
    endloop
  endfacet
  facet normal 0 0 1
    outer loop
      vertex -0.836412 -0.92893 2
      vertex -1.0037 -1.11472 2
      vertex -0.75 -1.29904 2
    endloop
  endfacet
  facet normal 0 0 1
    outer loop
      vertex -1.01127 -0.734731 2
      vertex -1.0037 -1.11472 2
      vertex -0.836412 -0.92893 2
    endloop
  endfacet
  facet normal 0 0 1
    outer loop
      vertex -1.21352 -0.881678 2
      vertex -1.01127 -0.734731 2
      vertex -1.14193 -0.50842 2
    endloop
  endfacet
  facet normal 0 0 1
    outer loop
      vertex -1.01127 -0.734731 2
      vertex -1.21352 -0.881678 2
      vertex -1.0037 -1.11472 2
    endloop
  endfacet
  facet normal 0 0 1
    outer loop
      vertex -1.37032 -0.610105 2
      vertex -1.14193 -0.50842 2
      vertex -1.22268 -0.25989 2
    endloop
  endfacet
  facet normal 0 0 1
    outer loop
      vertex -1.46722 -0.311867 2
      vertex -1.22268 -0.25989 2
      vertex -1.25 0 2
    endloop
  endfacet
  facet normal 0 0 1
    outer loop
      vertex -1.22268 0.25989 2
      vertex -1.46722 0.311867 2
      vertex -1.25 0 2
    endloop
  endfacet
  facet normal 0 0 1
    outer loop
      vertex -1.14193 -0.50842 2
      vertex -1.37032 -0.610105 2
      vertex -1.21352 -0.881678 2
    endloop
  endfacet
  facet normal 0 0 1
    outer loop
      vertex -1.5 0 2
      vertex -1.25 0 2
      vertex -1.46722 0.311867 2
    endloop
  endfacet
  facet normal 0 0 1
    outer loop
      vertex -1.22268 -0.25989 2
      vertex -1.46722 -0.311867 2
      vertex -1.37032 -0.610105 2
    endloop
  endfacet
  facet normal 0 0 1
    outer loop
      vertex -1.25 0 2
      vertex -1.5 0 2
      vertex -1.46722 -0.311867 2
    endloop
  endfacet
  facet normal -0.115767 0.544642 0.83064
    outer loop
      vertex -0.313585 2.98357 1
      vertex -0.927051 2.85317 1
      vertex -0.156793 1.49178 2
    endloop
  endfacet
  facet normal -0.115767 0.544642 0.83064
    outer loop
      vertex -0.156793 1.49178 2
      vertex -0.927051 2.85317 1
      vertex -0.463525 1.42658 2
    endloop
  endfacet
  facet normal -0.41379 0.372579 0.83064
    outer loop
      vertex -2.00739 2.22943 1
      vertex -2.42705 1.76336 1
      vertex -1.0037 1.11472 2
    endloop
  endfacet
  facet normal -0.41379 0.372579 0.83064
    outer loop
      vertex -1.0037 1.11472 2
      vertex -2.42705 1.76336 1
      vertex -1.21352 0.881678 2
    endloop
  endfacet
  facet normal -0.115767 -0.544642 0.83064
    outer loop
      vertex -0.463525 -1.42658 2
      vertex -0.927051 -2.85317 1
      vertex -0.156793 -1.49178 2
    endloop
  endfacet
  facet normal -0.327285 -0.450469 0.83064
    outer loop
      vertex -0.75 -1.29904 2
      vertex -2.00739 -2.22943 1
      vertex -1.5 -2.59808 1
    endloop
  endfacet
  facet normal -0.529558 -0.172064 0.83064
    outer loop
      vertex -1.46722 -0.311867 2
      vertex -2.93444 -0.623734 1
      vertex -2.74064 -1.22021 1
    endloop
  endfacet
  facet normal 0.226474 0.508672 0.83064
    outer loop
      vertex 0.927051 2.85317 1
      vertex 0.463525 1.42658 2
      vertex 0.75 1.29904 2
    endloop
  endfacet
  facet normal 0.115767 0.544642 0.83064
    outer loop
      vertex 0.927051 2.85317 1
      vertex 0.156793 1.49178 2
      vertex 0.463525 1.42658 2
    endloop
  endfacet
  facet normal 0.55376 0.0582029 0.83064
    outer loop
      vertex 2.93444 0.623734 1
      vertex 1.46722 0.311867 2
      vertex 1.5 0 2
    endloop
  endfacet
  facet normal 0.482212 0.278405 0.83064
    outer loop
      vertex 2.42705 1.76336 1
      vertex 1.37032 0.610105 2
      vertex 2.74064 1.22021 1
    endloop
  endfacet
  facet normal 0.482212 0.278405 0.83064
    outer loop
      vertex 1.37032 0.610105 2
      vertex 2.42705 1.76336 1
      vertex 1.21352 0.881678 2
    endloop
  endfacet
  facet normal 0.226475 -0.508671 0.83064
    outer loop
      vertex 1.5 -2.59808 1
      vertex 0.75 -1.29904 2
      vertex 0.927051 -2.85317 1
    endloop
  endfacet
  facet normal 0.327285 -0.450469 0.83064
    outer loop
      vertex 2.00739 -2.22943 1
      vertex 0.75 -1.29904 2
      vertex 1.5 -2.59808 1
    endloop
  endfacet
  facet normal 0.529558 -0.172064 0.83064
    outer loop
      vertex 2.93444 -0.623734 1
      vertex 1.46722 -0.311867 2
      vertex 2.74064 -1.22021 1
    endloop
  endfacet
  facet normal 0.55376 -0.0582029 0.83064
    outer loop
      vertex 1.5 0 2
      vertex 1.46722 -0.311867 2
      vertex 2.93444 -0.623734 1
    endloop
  endfacet
  facet normal -0.529558 0.172065 0.83064
    outer loop
      vertex -1.37032 0.610105 2
      vertex -2.74064 1.22021 1
      vertex -1.46722 0.311867 2
    endloop
  endfacet
  facet normal -0.226474 -0.508672 0.83064
    outer loop
      vertex -0.75 -1.29904 2
      vertex -0.927051 -2.85317 1
      vertex -0.463525 -1.42658 2
    endloop
  endfacet
  facet normal -0.226475 -0.508671 0.83064
    outer loop
      vertex -0.75 -1.29904 2
      vertex -1.5 -2.59808 1
      vertex -0.927051 -2.85317 1
    endloop
  endfacet
  facet normal -0.115767 -0.544642 0.83064
    outer loop
      vertex -0.156793 -1.49178 2
      vertex -0.927051 -2.85317 1
      vertex -0.313585 -2.98357 1
    endloop
  endfacet
  facet normal -0.55376 -0.0582029 0.83064
    outer loop
      vertex -1.5 0 2
      vertex -2.93444 -0.623734 1
      vertex -1.46722 -0.311867 2
    endloop
  endfacet
  facet normal -0.55376 -0.0582028 0.83064
    outer loop
      vertex -1.5 0 2
      vertex -3 0 1
      vertex -2.93444 -0.623734 1
    endloop
  endfacet
  facet normal -0.529558 -0.172065 0.83064
    outer loop
      vertex -1.46722 -0.311867 2
      vertex -2.74064 -1.22021 1
      vertex -1.37032 -0.610105 2
    endloop
  endfacet
  facet normal 0.41379 -0.372579 0.83064
    outer loop
      vertex 1.21352 -0.881678 2
      vertex 1.0037 -1.11472 2
      vertex 2.42705 -1.76336 1
    endloop
  endfacet
  facet normal 0.482212 -0.278405 0.83064
    outer loop
      vertex 1.37032 -0.610105 2
      vertex 2.42705 -1.76336 1
      vertex 2.74064 -1.22021 1
    endloop
  endfacet
  facet normal 0.482212 -0.278405 0.83064
    outer loop
      vertex 2.42705 -1.76336 1
      vertex 1.37032 -0.610105 2
      vertex 1.21352 -0.881678 2
    endloop
  endfacet
  facet normal 0.529558 -0.172065 0.83064
    outer loop
      vertex 1.46722 -0.311867 2
      vertex 1.37032 -0.610105 2
      vertex 2.74064 -1.22021 1
    endloop
  endfacet
  facet normal -0.226475 0.508671 0.83064
    outer loop
      vertex -0.463525 1.42658 2
      vertex -0.927051 2.85317 1
      vertex -0.749999 1.29904 2
    endloop
  endfacet
  facet normal 0.115767 -0.544642 0.83064
    outer loop
      vertex 0.463525 -1.42658 2
      vertex 0.156793 -1.49178 2
      vertex 0.927051 -2.85317 1
    endloop
  endfacet
  facet normal -0.41379 -0.372579 0.83064
    outer loop
      vertex -1.0037 -1.11472 2
      vertex -2.42705 -1.76336 1
      vertex -2.00739 -2.22943 1
    endloop
  endfacet
  facet normal -0.327286 -0.450468 0.83064
    outer loop
      vertex -1.0037 -1.11472 2
      vertex -2.00739 -2.22943 1
      vertex -0.75 -1.29904 2
    endloop
  endfacet
  facet normal -0.994522 -0.104531 0
    outer loop
      vertex 1.25 0 0
      vertex 1.22268 0.25989 2
      vertex 1.22268 0.25989 0
    endloop
  endfacet
  facet normal -0.994522 -0.104531 0
    outer loop
      vertex 1.22268 0.25989 2
      vertex 1.25 0 0
      vertex 1.25 0 2
    endloop
  endfacet
  facet normal 0.994522 -0.104531 0
    outer loop
      vertex -1.25 0 2
      vertex -1.22268 0.25989 0
      vertex -1.22268 0.25989 2
    endloop
  endfacet
  facet normal 0.994522 -0.104531 0
    outer loop
      vertex -1.22268 0.25989 0
      vertex -1.25 0 2
      vertex -1.25 0 0
    endloop
  endfacet
  facet normal 0 -1 0
    outer loop
      vertex -0.13066 1.24315 0
      vertex 0.13066 1.24315 2
      vertex -0.13066 1.24315 2
    endloop
  endfacet
  facet normal 0 -1 -0
    outer loop
      vertex 0.13066 1.24315 2
      vertex -0.13066 1.24315 0
      vertex 0.13066 1.24315 0
    endloop
  endfacet
  facet normal 0 1 -0
    outer loop
      vertex 0.13066 -1.24315 0
      vertex -0.13066 -1.24315 2
      vertex 0.13066 -1.24315 2
    endloop
  endfacet
  facet normal 0 1 0
    outer loop
      vertex -0.13066 -1.24315 2
      vertex 0.13066 -1.24315 0
      vertex -0.13066 -1.24315 0
    endloop
  endfacet
  facet normal -0.587787 -0.809016 0
    outer loop
      vertex 0.625 1.08253 0
      vertex 0.836412 0.92893 2
      vertex 0.625 1.08253 2
    endloop
  endfacet
  facet normal -0.587787 -0.809016 -0
    outer loop
      vertex 0.836412 0.92893 2
      vertex 0.625 1.08253 0
      vertex 0.836412 0.92893 0
    endloop
  endfacet
  facet normal 0.587785 -0.809017 0
    outer loop
      vertex -0.836412 0.92893 0
      vertex -0.624999 1.08253 2
      vertex -0.836412 0.92893 2
    endloop
  endfacet
  facet normal 0.587785 -0.809017 0
    outer loop
      vertex -0.624999 1.08253 2
      vertex -0.836412 0.92893 0
      vertex -0.624999 1.08253 0
    endloop
  endfacet
  facet normal 0.207912 -0.978148 0
    outer loop
      vertex -0.386271 1.18882 0
      vertex -0.13066 1.24315 2
      vertex -0.386271 1.18882 2
    endloop
  endfacet
  facet normal 0.207912 -0.978148 0
    outer loop
      vertex -0.13066 1.24315 2
      vertex -0.386271 1.18882 0
      vertex -0.13066 1.24315 0
    endloop
  endfacet
  facet normal -0.866025 -0.500001 0
    outer loop
      vertex 1.14193 0.50842 0
      vertex 1.01127 0.734731 2
      vertex 1.01127 0.734731 0
    endloop
  endfacet
  facet normal -0.866025 -0.500001 0
    outer loop
      vertex 1.01127 0.734731 2
      vertex 1.14193 0.50842 0
      vertex 1.14193 0.50842 2
    endloop
  endfacet
  facet normal -0.951057 -0.309017 0
    outer loop
      vertex 1.22268 0.25989 0
      vertex 1.14193 0.50842 2
      vertex 1.14193 0.50842 0
    endloop
  endfacet
  facet normal -0.951057 -0.309017 0
    outer loop
      vertex 1.14193 0.50842 2
      vertex 1.22268 0.25989 0
      vertex 1.22268 0.25989 2
    endloop
  endfacet
  facet normal -0.743145 -0.669131 0
    outer loop
      vertex 1.01127 0.734731 0
      vertex 0.836412 0.92893 2
      vertex 0.836412 0.92893 0
    endloop
  endfacet
  facet normal -0.743145 -0.669131 0
    outer loop
      vertex 0.836412 0.92893 2
      vertex 1.01127 0.734731 0
      vertex 1.01127 0.734731 2
    endloop
  endfacet
  facet normal -0.207912 -0.978148 0
    outer loop
      vertex 0.13066 1.24315 0
      vertex 0.386271 1.18882 2
      vertex 0.13066 1.24315 2
    endloop
  endfacet
  facet normal -0.207912 -0.978148 -0
    outer loop
      vertex 0.386271 1.18882 2
      vertex 0.13066 1.24315 0
      vertex 0.386271 1.18882 0
    endloop
  endfacet
  facet normal -0.406736 -0.913546 0
    outer loop
      vertex 0.386271 1.18882 0
      vertex 0.625 1.08253 2
      vertex 0.386271 1.18882 2
    endloop
  endfacet
  facet normal -0.406736 -0.913546 -0
    outer loop
      vertex 0.625 1.08253 2
      vertex 0.386271 1.18882 0
      vertex 0.625 1.08253 0
    endloop
  endfacet
  facet normal 0.866025 -0.500001 0
    outer loop
      vertex -1.14193 0.50842 2
      vertex -1.01127 0.734731 0
      vertex -1.01127 0.734731 2
    endloop
  endfacet
  facet normal 0.866025 -0.500001 0
    outer loop
      vertex -1.01127 0.734731 0
      vertex -1.14193 0.50842 2
      vertex -1.14193 0.50842 0
    endloop
  endfacet
  facet normal 0.743145 -0.669131 0
    outer loop
      vertex -1.01127 0.734731 2
      vertex -0.836412 0.92893 0
      vertex -0.836412 0.92893 2
    endloop
  endfacet
  facet normal 0.743145 -0.669131 0
    outer loop
      vertex -0.836412 0.92893 0
      vertex -1.01127 0.734731 2
      vertex -1.01127 0.734731 0
    endloop
  endfacet
  facet normal 0.951057 -0.309017 0
    outer loop
      vertex -1.22268 0.25989 2
      vertex -1.14193 0.50842 0
      vertex -1.14193 0.50842 2
    endloop
  endfacet
  facet normal 0.951057 -0.309017 0
    outer loop
      vertex -1.14193 0.50842 0
      vertex -1.22268 0.25989 2
      vertex -1.22268 0.25989 0
    endloop
  endfacet
  facet normal 0.406737 -0.913545 0
    outer loop
      vertex -0.624999 1.08253 0
      vertex -0.386271 1.18882 2
      vertex -0.624999 1.08253 2
    endloop
  endfacet
  facet normal 0.406737 -0.913545 0
    outer loop
      vertex -0.386271 1.18882 2
      vertex -0.624999 1.08253 0
      vertex -0.386271 1.18882 0
    endloop
  endfacet
  facet normal -0.994522 0.104531 0
    outer loop
      vertex 1.22268 -0.25989 0
      vertex 1.25 0 2
      vertex 1.25 0 0
    endloop
  endfacet
  facet normal -0.994522 0.104531 0
    outer loop
      vertex 1.25 0 2
      vertex 1.22268 -0.25989 0
      vertex 1.22268 -0.25989 2
    endloop
  endfacet
  facet normal -0.743145 0.669131 0
    outer loop
      vertex 0.836412 -0.92893 0
      vertex 1.01127 -0.734731 2
      vertex 1.01127 -0.734731 0
    endloop
  endfacet
  facet normal -0.743145 0.669131 0
    outer loop
      vertex 1.01127 -0.734731 2
      vertex 0.836412 -0.92893 0
      vertex 0.836412 -0.92893 2
    endloop
  endfacet
  facet normal -0.951057 0.309017 0
    outer loop
      vertex 1.14193 -0.50842 0
      vertex 1.22268 -0.25989 2
      vertex 1.22268 -0.25989 0
    endloop
  endfacet
  facet normal -0.951057 0.309017 0
    outer loop
      vertex 1.22268 -0.25989 2
      vertex 1.14193 -0.50842 0
      vertex 1.14193 -0.50842 2
    endloop
  endfacet
  facet normal -0.866025 0.500001 0
    outer loop
      vertex 1.01127 -0.734731 0
      vertex 1.14193 -0.50842 2
      vertex 1.14193 -0.50842 0
    endloop
  endfacet
  facet normal -0.866025 0.500001 0
    outer loop
      vertex 1.14193 -0.50842 2
      vertex 1.01127 -0.734731 0
      vertex 1.01127 -0.734731 2
    endloop
  endfacet
  facet normal 0.587787 0.809016 -0
    outer loop
      vertex -0.625 -1.08253 0
      vertex -0.836412 -0.92893 2
      vertex -0.625 -1.08253 2
    endloop
  endfacet
  facet normal 0.587787 0.809016 0
    outer loop
      vertex -0.836412 -0.92893 2
      vertex -0.625 -1.08253 0
      vertex -0.836412 -0.92893 0
    endloop
  endfacet
  facet normal 0.866025 0.500001 0
    outer loop
      vertex -1.01127 -0.734731 2
      vertex -1.14193 -0.50842 0
      vertex -1.14193 -0.50842 2
    endloop
  endfacet
  facet normal 0.866025 0.500001 0
    outer loop
      vertex -1.14193 -0.50842 0
      vertex -1.01127 -0.734731 2
      vertex -1.01127 -0.734731 0
    endloop
  endfacet
  facet normal 0.994522 0.104531 0
    outer loop
      vertex -1.22268 -0.25989 2
      vertex -1.25 0 0
      vertex -1.25 0 2
    endloop
  endfacet
  facet normal 0.994522 0.104531 0
    outer loop
      vertex -1.25 0 0
      vertex -1.22268 -0.25989 2
      vertex -1.22268 -0.25989 0
    endloop
  endfacet
  facet normal -0.587787 0.809016 0
    outer loop
      vertex 0.836412 -0.92893 0
      vertex 0.625 -1.08253 2
      vertex 0.836412 -0.92893 2
    endloop
  endfacet
  facet normal -0.587787 0.809016 0
    outer loop
      vertex 0.625 -1.08253 2
      vertex 0.836412 -0.92893 0
      vertex 0.625 -1.08253 0
    endloop
  endfacet
  facet normal 0.207912 0.978148 -0
    outer loop
      vertex -0.13066 -1.24315 0
      vertex -0.386271 -1.18882 2
      vertex -0.13066 -1.24315 2
    endloop
  endfacet
  facet normal 0.207912 0.978148 0
    outer loop
      vertex -0.386271 -1.18882 2
      vertex -0.13066 -1.24315 0
      vertex -0.386271 -1.18882 0
    endloop
  endfacet
  facet normal 0.406736 0.913546 -0
    outer loop
      vertex -0.386271 -1.18882 0
      vertex -0.625 -1.08253 2
      vertex -0.386271 -1.18882 2
    endloop
  endfacet
  facet normal 0.406736 0.913546 0
    outer loop
      vertex -0.625 -1.08253 2
      vertex -0.386271 -1.18882 0
      vertex -0.625 -1.08253 0
    endloop
  endfacet
  facet normal 0.743145 0.669131 0
    outer loop
      vertex -0.836412 -0.92893 2
      vertex -1.01127 -0.734731 0
      vertex -1.01127 -0.734731 2
    endloop
  endfacet
  facet normal 0.743145 0.669131 0
    outer loop
      vertex -1.01127 -0.734731 0
      vertex -0.836412 -0.92893 2
      vertex -0.836412 -0.92893 0
    endloop
  endfacet
  facet normal 0.951057 0.309017 0
    outer loop
      vertex -1.14193 -0.50842 2
      vertex -1.22268 -0.25989 0
      vertex -1.22268 -0.25989 2
    endloop
  endfacet
  facet normal 0.951057 0.309017 0
    outer loop
      vertex -1.22268 -0.25989 0
      vertex -1.14193 -0.50842 2
      vertex -1.14193 -0.50842 0
    endloop
  endfacet
  facet normal -0.406736 0.913546 0
    outer loop
      vertex 0.625 -1.08253 0
      vertex 0.386271 -1.18882 2
      vertex 0.625 -1.08253 2
    endloop
  endfacet
  facet normal -0.406736 0.913546 0
    outer loop
      vertex 0.386271 -1.18882 2
      vertex 0.625 -1.08253 0
      vertex 0.386271 -1.18882 0
    endloop
  endfacet
  facet normal -0.207912 0.978148 0
    outer loop
      vertex 0.386271 -1.18882 0
      vertex 0.13066 -1.24315 2
      vertex 0.386271 -1.18882 2
    endloop
  endfacet
  facet normal -0.207912 0.978148 0
    outer loop
      vertex 0.13066 -1.24315 2
      vertex 0.386271 -1.18882 0
      vertex 0.13066 -1.24315 0
    endloop
  endfacet
  facet normal 0.994522 0.104529 0
    outer loop
      vertex 18 0 1
      vertex 17.8689 1.24747 0
      vertex 17.8689 1.24747 1
    endloop
  endfacet
  facet normal 0.994522 0.104529 0
    outer loop
      vertex 17.8689 1.24747 0
      vertex 18 0 1
      vertex 18 0 0
    endloop
  endfacet
  facet normal -0.994522 0.104529 0
    outer loop
      vertex 6 0 0
      vertex 6.13111 1.24747 1
      vertex 6.13111 1.24747 0
    endloop
  endfacet
  facet normal -0.994522 0.104529 0
    outer loop
      vertex 6.13111 1.24747 1
      vertex 6 0 0
      vertex 6 0 1
    endloop
  endfacet
  facet normal 0 1 -0
    outer loop
      vertex 12.6272 5.96713 0
      vertex 11.3728 5.96713 1
      vertex 12.6272 5.96713 1
    endloop
  endfacet
  facet normal 0 1 0
    outer loop
      vertex 11.3728 5.96713 1
      vertex 12.6272 5.96713 0
      vertex 11.3728 5.96713 0
    endloop
  endfacet
  facet normal 0 -1 0
    outer loop
      vertex 11.3728 -5.96713 0
      vertex 12.6272 -5.96713 1
      vertex 11.3728 -5.96713 1
    endloop
  endfacet
  facet normal 0 -1 -0
    outer loop
      vertex 12.6272 -5.96713 1
      vertex 11.3728 -5.96713 0
      vertex 12.6272 -5.96713 0
    endloop
  endfacet
  facet normal 0.587786 0.809016 -0
    outer loop
      vertex 16.0148 4.45887 0
      vertex 15 5.19615 1
      vertex 16.0148 4.45887 1
    endloop
  endfacet
  facet normal 0.587786 0.809016 0
    outer loop
      vertex 15 5.19615 1
      vertex 16.0148 4.45887 0
      vertex 15 5.19615 0
    endloop
  endfacet
  facet normal 0.406737 0.913545 -0
    outer loop
      vertex 15 5.19615 0
      vertex 13.8541 5.70634 1
      vertex 15 5.19615 1
    endloop
  endfacet
  facet normal 0.406737 0.913545 0
    outer loop
      vertex 13.8541 5.70634 1
      vertex 15 5.19615 0
      vertex 13.8541 5.70634 0
    endloop
  endfacet
  facet normal -0.743145 0.669131 0
    outer loop
      vertex 7.1459 3.52671 0
      vertex 7.98522 4.45887 1
      vertex 7.98522 4.45887 0
    endloop
  endfacet
  facet normal -0.743145 0.669131 0
    outer loop
      vertex 7.98522 4.45887 1
      vertex 7.1459 3.52671 0
      vertex 7.1459 3.52671 1
    endloop
  endfacet
  facet normal -0.866025 0.5 0
    outer loop
      vertex 6.51873 2.44042 0
      vertex 7.1459 3.52671 1
      vertex 7.1459 3.52671 0
    endloop
  endfacet
  facet normal -0.866025 0.5 0
    outer loop
      vertex 7.1459 3.52671 1
      vertex 6.51873 2.44042 0
      vertex 6.51873 2.44042 1
    endloop
  endfacet
  facet normal -0.406737 0.913545 0
    outer loop
      vertex 10.1459 5.70634 0
      vertex 9 5.19615 1
      vertex 10.1459 5.70634 1
    endloop
  endfacet
  facet normal -0.406737 0.913545 0
    outer loop
      vertex 9 5.19615 1
      vertex 10.1459 5.70634 0
      vertex 9 5.19615 0
    endloop
  endfacet
  facet normal 0.866025 0.500001 0
    outer loop
      vertex 17.4813 2.44042 1
      vertex 16.8541 3.52671 0
      vertex 16.8541 3.52671 1
    endloop
  endfacet
  facet normal 0.866025 0.500001 0
    outer loop
      vertex 16.8541 3.52671 0
      vertex 17.4813 2.44042 1
      vertex 17.4813 2.44042 0
    endloop
  endfacet
  facet normal 0.951057 0.309016 0
    outer loop
      vertex 17.8689 1.24747 1
      vertex 17.4813 2.44042 0
      vertex 17.4813 2.44042 1
    endloop
  endfacet
  facet normal 0.951057 0.309016 0
    outer loop
      vertex 17.4813 2.44042 0
      vertex 17.8689 1.24747 1
      vertex 17.8689 1.24747 0
    endloop
  endfacet
  facet normal 0.743144 0.669131 0
    outer loop
      vertex 16.8541 3.52671 1
      vertex 16.0148 4.45887 0
      vertex 16.0148 4.45887 1
    endloop
  endfacet
  facet normal 0.743144 0.669131 0
    outer loop
      vertex 16.0148 4.45887 0
      vertex 16.8541 3.52671 1
      vertex 16.8541 3.52671 0
    endloop
  endfacet
  facet normal 0.207911 0.978148 -0
    outer loop
      vertex 13.8541 5.70634 0
      vertex 12.6272 5.96713 1
      vertex 13.8541 5.70634 1
    endloop
  endfacet
  facet normal 0.207911 0.978148 0
    outer loop
      vertex 12.6272 5.96713 1
      vertex 13.8541 5.70634 0
      vertex 12.6272 5.96713 0
    endloop
  endfacet
  facet normal -0.951057 0.309017 0
    outer loop
      vertex 6.13111 1.24747 0
      vertex 6.51873 2.44042 1
      vertex 6.51873 2.44042 0
    endloop
  endfacet
  facet normal -0.951057 0.309017 0
    outer loop
      vertex 6.51873 2.44042 1
      vertex 6.13111 1.24747 0
      vertex 6.13111 1.24747 1
    endloop
  endfacet
  facet normal -0.587785 0.809017 0
    outer loop
      vertex 9 5.19615 0
      vertex 7.98522 4.45887 1
      vertex 9 5.19615 1
    endloop
  endfacet
  facet normal -0.587785 0.809017 0
    outer loop
      vertex 7.98522 4.45887 1
      vertex 9 5.19615 0
      vertex 7.98522 4.45887 0
    endloop
  endfacet
  facet normal -0.207911 0.978148 0
    outer loop
      vertex 11.3728 5.96713 0
      vertex 10.1459 5.70634 1
      vertex 11.3728 5.96713 1
    endloop
  endfacet
  facet normal -0.207911 0.978148 0
    outer loop
      vertex 10.1459 5.70634 1
      vertex 11.3728 5.96713 0
      vertex 10.1459 5.70634 0
    endloop
  endfacet
  facet normal 0.994522 -0.104529 0
    outer loop
      vertex 17.8689 -1.24747 1
      vertex 18 0 0
      vertex 18 0 1
    endloop
  endfacet
  facet normal 0.994522 -0.104529 0
    outer loop
      vertex 18 0 0
      vertex 17.8689 -1.24747 1
      vertex 17.8689 -1.24747 0
    endloop
  endfacet
  facet normal 0 0 -1
    outer loop
      vertex 16.25 0 0
      vertex 18 0 0
      vertex 17.8689 -1.24747 0
    endloop
  endfacet
  facet normal 0 0 -1
    outer loop
      vertex 16.1571 -0.883624 0
      vertex 17.8689 -1.24747 0
      vertex 17.4813 -2.44042 0
    endloop
  endfacet
  facet normal 0 0 -1
    outer loop
      vertex 18 0 0
      vertex 16.25 0 0
      vertex 17.8689 1.24747 0
    endloop
  endfacet
  facet normal 0 0 -1
    outer loop
      vertex 15.8826 -1.72863 0
      vertex 17.4813 -2.44042 0
      vertex 16.8541 -3.52671 0
    endloop
  endfacet
  facet normal 0 0 -1
    outer loop
      vertex 16.1571 0.883624 0
      vertex 17.8689 1.24747 0
      vertex 16.25 0 0
    endloop
  endfacet
  facet normal -0 0 -1
    outer loop
      vertex 17.8689 1.24747 0
      vertex 16.1571 0.883624 0
      vertex 17.4813 2.44042 0
    endloop
  endfacet
  facet normal 0 0 -1
    outer loop
      vertex 17.8689 -1.24747 0
      vertex 16.1571 -0.883624 0
      vertex 16.25 0 0
    endloop
  endfacet
  facet normal 0 0 -1
    outer loop
      vertex 15.4383 -2.49809 0
      vertex 16.8541 -3.52671 0
      vertex 16.0148 -4.45887 0
    endloop
  endfacet
  facet normal 0 0 -1
    outer loop
      vertex 17.4813 -2.44042 0
      vertex 15.8826 -1.72863 0
      vertex 16.1571 -0.883624 0
    endloop
  endfacet
  facet normal 0 0 -1
    outer loop
      vertex 16.8541 -3.52671 0
      vertex 15.4383 -2.49809 0
      vertex 15.8826 -1.72863 0
    endloop
  endfacet
  facet normal 0 0 -1
    outer loop
      vertex 14.8438 -3.15837 0
      vertex 16.0148 -4.45887 0
      vertex 15 -5.19615 0
    endloop
  endfacet
  facet normal 0 0 -1
    outer loop
      vertex 16.0148 -4.45887 0
      vertex 14.8438 -3.15837 0
      vertex 15.4383 -2.49809 0
    endloop
  endfacet
  facet normal 0 0 -1
    outer loop
      vertex 15 -5.19615 0
      vertex 14.125 -3.68061 0
      vertex 14.8438 -3.15837 0
    endloop
  endfacet
  facet normal 0 0 -1
    outer loop
      vertex 13.8541 -5.70634 0
      vertex 14.125 -3.68061 0
      vertex 15 -5.19615 0
    endloop
  endfacet
  facet normal 0 0 -1
    outer loop
      vertex 13.8541 -5.70634 0
      vertex 13.3133 -4.04199 0
      vertex 14.125 -3.68061 0
    endloop
  endfacet
  facet normal 0 0 -1
    outer loop
      vertex 12.6272 -5.96713 0
      vertex 13.3133 -4.04199 0
      vertex 13.8541 -5.70634 0
    endloop
  endfacet
  facet normal 0 0 -1
    outer loop
      vertex 12.6272 -5.96713 0
      vertex 12.4442 -4.22672 0
      vertex 13.3133 -4.04199 0
    endloop
  endfacet
  facet normal 0 0 -1
    outer loop
      vertex 12.6272 -5.96713 0
      vertex 11.5558 -4.22672 0
      vertex 12.4442 -4.22672 0
    endloop
  endfacet
  facet normal 0 0 -1
    outer loop
      vertex 11.3728 -5.96713 0
      vertex 11.5558 -4.22672 0
      vertex 12.6272 -5.96713 0
    endloop
  endfacet
  facet normal 0 0 -1
    outer loop
      vertex 11.3728 -5.96713 0
      vertex 10.6867 -4.04199 0
      vertex 11.5558 -4.22672 0
    endloop
  endfacet
  facet normal 0 0 -1
    outer loop
      vertex 10.1459 -5.70634 0
      vertex 10.6867 -4.04199 0
      vertex 11.3728 -5.96713 0
    endloop
  endfacet
  facet normal 0 0 -1
    outer loop
      vertex 10.1459 -5.70634 0
      vertex 9.875 -3.68061 0
      vertex 10.6867 -4.04199 0
    endloop
  endfacet
  facet normal 0 0 -1
    outer loop
      vertex 9 -5.19615 0
      vertex 9.875 -3.68061 0
      vertex 10.1459 -5.70634 0
    endloop
  endfacet
  facet normal -0 0 -1
    outer loop
      vertex 9.875 -3.68061 0
      vertex 9 -5.19615 0
      vertex 9.1562 -3.15837 0
    endloop
  endfacet
  facet normal 0 0 -1
    outer loop
      vertex 7.98522 -4.45887 0
      vertex 9.1562 -3.15837 0
      vertex 9 -5.19615 0
    endloop
  endfacet
  facet normal -0 0 -1
    outer loop
      vertex 9.1562 -3.15837 0
      vertex 7.98522 -4.45887 0
      vertex 8.56168 -2.49809 0
    endloop
  endfacet
  facet normal 0 0 -1
    outer loop
      vertex 7.1459 -3.52671 0
      vertex 8.56168 -2.49809 0
      vertex 7.98522 -4.45887 0
    endloop
  endfacet
  facet normal -0 0 -1
    outer loop
      vertex 8.56168 -2.49809 0
      vertex 7.1459 -3.52671 0
      vertex 8.11743 -1.72863 0
    endloop
  endfacet
  facet normal 0 0 -1
    outer loop
      vertex 6.51873 -2.44042 0
      vertex 8.11743 -1.72863 0
      vertex 7.1459 -3.52671 0
    endloop
  endfacet
  facet normal -0 0 -1
    outer loop
      vertex 8.11743 -1.72863 0
      vertex 6.51873 -2.44042 0
      vertex 7.84287 -0.883624 0
    endloop
  endfacet
  facet normal 0 0 -1
    outer loop
      vertex 15.8826 1.72863 0
      vertex 17.4813 2.44042 0
      vertex 16.1571 0.883624 0
    endloop
  endfacet
  facet normal -0 0 -1
    outer loop
      vertex 17.4813 2.44042 0
      vertex 15.8826 1.72863 0
      vertex 16.8541 3.52671 0
    endloop
  endfacet
  facet normal 0 0 -1
    outer loop
      vertex 15.4383 2.49809 0
      vertex 16.8541 3.52671 0
      vertex 15.8826 1.72863 0
    endloop
  endfacet
  facet normal -0 0 -1
    outer loop
      vertex 16.8541 3.52671 0
      vertex 15.4383 2.49809 0
      vertex 16.0148 4.45887 0
    endloop
  endfacet
  facet normal 0 0 -1
    outer loop
      vertex 14.8438 3.15837 0
      vertex 16.0148 4.45887 0
      vertex 15.4383 2.49809 0
    endloop
  endfacet
  facet normal -0 0 -1
    outer loop
      vertex 16.0148 4.45887 0
      vertex 14.8438 3.15837 0
      vertex 15 5.19615 0
    endloop
  endfacet
  facet normal 0 0 -1
    outer loop
      vertex 14.125 3.68061 0
      vertex 15 5.19615 0
      vertex 14.8438 3.15837 0
    endloop
  endfacet
  facet normal 0 0 -1
    outer loop
      vertex 14.125 3.68061 0
      vertex 13.8541 5.70634 0
      vertex 15 5.19615 0
    endloop
  endfacet
  facet normal 0 0 -1
    outer loop
      vertex 13.3133 4.04199 0
      vertex 13.8541 5.70634 0
      vertex 14.125 3.68061 0
    endloop
  endfacet
  facet normal 0 0 -1
    outer loop
      vertex 13.3133 4.04199 0
      vertex 12.6272 5.96713 0
      vertex 13.8541 5.70634 0
    endloop
  endfacet
  facet normal 0 0 -1
    outer loop
      vertex 12.4442 4.22672 0
      vertex 12.6272 5.96713 0
      vertex 13.3133 4.04199 0
    endloop
  endfacet
  facet normal 0 0 -1
    outer loop
      vertex 11.5558 4.22672 0
      vertex 12.6272 5.96713 0
      vertex 12.4442 4.22672 0
    endloop
  endfacet
  facet normal 0 0 -1
    outer loop
      vertex 11.5558 4.22672 0
      vertex 11.3728 5.96713 0
      vertex 12.6272 5.96713 0
    endloop
  endfacet
  facet normal 0 0 -1
    outer loop
      vertex 10.6867 4.04199 0
      vertex 11.3728 5.96713 0
      vertex 11.5558 4.22672 0
    endloop
  endfacet
  facet normal 0 0 -1
    outer loop
      vertex 10.6867 4.04199 0
      vertex 10.1459 5.70634 0
      vertex 11.3728 5.96713 0
    endloop
  endfacet
  facet normal 0 0 -1
    outer loop
      vertex 9.875 3.68061 0
      vertex 10.1459 5.70634 0
      vertex 10.6867 4.04199 0
    endloop
  endfacet
  facet normal 0 0 -1
    outer loop
      vertex 9 5.19615 0
      vertex 9.875 3.68061 0
      vertex 9.1562 3.15837 0
    endloop
  endfacet
  facet normal 0 0 -1
    outer loop
      vertex 9.875 3.68061 0
      vertex 9 5.19615 0
      vertex 10.1459 5.70634 0
    endloop
  endfacet
  facet normal 0 0 -1
    outer loop
      vertex 7.98522 4.45887 0
      vertex 9.1562 3.15837 0
      vertex 8.56168 2.49809 0
    endloop
  endfacet
  facet normal 0 0 -1
    outer loop
      vertex 7.1459 3.52671 0
      vertex 8.56168 2.49809 0
      vertex 8.11743 1.72863 0
    endloop
  endfacet
  facet normal 0 0 -1
    outer loop
      vertex 9.1562 3.15837 0
      vertex 7.98522 4.45887 0
      vertex 9 5.19615 0
    endloop
  endfacet
  facet normal 0 0 -1
    outer loop
      vertex 6.51873 2.44042 0
      vertex 8.11743 1.72863 0
      vertex 7.84287 0.883624 0
    endloop
  endfacet
  facet normal 0 0 -1
    outer loop
      vertex 6.13111 1.24747 0
      vertex 7.84287 0.883624 0
      vertex 7.75 0 0
    endloop
  endfacet
  facet normal 0 0 -1
    outer loop
      vertex 6.13111 -1.24747 0
      vertex 7.84287 -0.883624 0
      vertex 6.51873 -2.44042 0
    endloop
  endfacet
  facet normal 0 0 -1
    outer loop
      vertex 8.56168 2.49809 0
      vertex 7.1459 3.52671 0
      vertex 7.98522 4.45887 0
    endloop
  endfacet
  facet normal -0 0 -1
    outer loop
      vertex 7.84287 -0.883624 0
      vertex 6.13111 -1.24747 0
      vertex 7.75 0 0
    endloop
  endfacet
  facet normal 0 0 -1
    outer loop
      vertex 8.11743 1.72863 0
      vertex 6.51873 2.44042 0
      vertex 7.1459 3.52671 0
    endloop
  endfacet
  facet normal 0 0 -1
    outer loop
      vertex 6 0 0
      vertex 7.75 0 0
      vertex 6.13111 -1.24747 0
    endloop
  endfacet
  facet normal 0 0 -1
    outer loop
      vertex 7.84287 0.883624 0
      vertex 6.13111 1.24747 0
      vertex 6.51873 2.44042 0
    endloop
  endfacet
  facet normal 0 0 -1
    outer loop
      vertex 7.75 0 0
      vertex 6 0 0
      vertex 6.13111 1.24747 0
    endloop
  endfacet
  facet normal 0.207911 -0.978148 0
    outer loop
      vertex 12.6272 -5.96713 0
      vertex 13.8541 -5.70634 1
      vertex 12.6272 -5.96713 1
    endloop
  endfacet
  facet normal 0.207911 -0.978148 0
    outer loop
      vertex 13.8541 -5.70634 1
      vertex 12.6272 -5.96713 0
      vertex 13.8541 -5.70634 0
    endloop
  endfacet
  facet normal 0.743144 -0.669131 0
    outer loop
      vertex 16.0148 -4.45887 1
      vertex 16.8541 -3.52671 0
      vertex 16.8541 -3.52671 1
    endloop
  endfacet
  facet normal 0.743144 -0.669131 0
    outer loop
      vertex 16.8541 -3.52671 0
      vertex 16.0148 -4.45887 1
      vertex 16.0148 -4.45887 0
    endloop
  endfacet
  facet normal 0.951057 -0.309016 0
    outer loop
      vertex 17.4813 -2.44042 1
      vertex 17.8689 -1.24747 0
      vertex 17.8689 -1.24747 1
    endloop
  endfacet
  facet normal 0.951057 -0.309016 0
    outer loop
      vertex 17.8689 -1.24747 0
      vertex 17.4813 -2.44042 1
      vertex 17.4813 -2.44042 0
    endloop
  endfacet
  facet normal 0.866025 -0.500001 0
    outer loop
      vertex 16.8541 -3.52671 1
      vertex 17.4813 -2.44042 0
      vertex 17.4813 -2.44042 1
    endloop
  endfacet
  facet normal 0.866025 -0.500001 0
    outer loop
      vertex 17.4813 -2.44042 0
      vertex 16.8541 -3.52671 1
      vertex 16.8541 -3.52671 0
    endloop
  endfacet
  facet normal -0.866025 -0.5 0
    outer loop
      vertex 7.1459 -3.52671 0
      vertex 6.51873 -2.44042 1
      vertex 6.51873 -2.44042 0
    endloop
  endfacet
  facet normal -0.866025 -0.5 0
    outer loop
      vertex 6.51873 -2.44042 1
      vertex 7.1459 -3.52671 0
      vertex 7.1459 -3.52671 1
    endloop
  endfacet
  facet normal -0.994522 -0.104529 0
    outer loop
      vertex 6.13111 -1.24747 0
      vertex 6 0 1
      vertex 6 0 0
    endloop
  endfacet
  facet normal -0.994522 -0.104529 0
    outer loop
      vertex 6 0 1
      vertex 6.13111 -1.24747 0
      vertex 6.13111 -1.24747 1
    endloop
  endfacet
  facet normal 0.587786 -0.809016 0
    outer loop
      vertex 15 -5.19615 0
      vertex 16.0148 -4.45887 1
      vertex 15 -5.19615 1
    endloop
  endfacet
  facet normal 0.587786 -0.809016 0
    outer loop
      vertex 16.0148 -4.45887 1
      vertex 15 -5.19615 0
      vertex 16.0148 -4.45887 0
    endloop
  endfacet
  facet normal 0.406737 -0.913545 0
    outer loop
      vertex 13.8541 -5.70634 0
      vertex 15 -5.19615 1
      vertex 13.8541 -5.70634 1
    endloop
  endfacet
  facet normal 0.406737 -0.913545 0
    outer loop
      vertex 15 -5.19615 1
      vertex 13.8541 -5.70634 0
      vertex 15 -5.19615 0
    endloop
  endfacet
  facet normal -0.406737 -0.913545 0
    outer loop
      vertex 9 -5.19615 0
      vertex 10.1459 -5.70634 1
      vertex 9 -5.19615 1
    endloop
  endfacet
  facet normal -0.406737 -0.913545 -0
    outer loop
      vertex 10.1459 -5.70634 1
      vertex 9 -5.19615 0
      vertex 10.1459 -5.70634 0
    endloop
  endfacet
  facet normal -0.743145 -0.669131 0
    outer loop
      vertex 7.98522 -4.45887 0
      vertex 7.1459 -3.52671 1
      vertex 7.1459 -3.52671 0
    endloop
  endfacet
  facet normal -0.743145 -0.669131 0
    outer loop
      vertex 7.1459 -3.52671 1
      vertex 7.98522 -4.45887 0
      vertex 7.98522 -4.45887 1
    endloop
  endfacet
  facet normal -0.951057 -0.309017 0
    outer loop
      vertex 6.51873 -2.44042 0
      vertex 6.13111 -1.24747 1
      vertex 6.13111 -1.24747 0
    endloop
  endfacet
  facet normal -0.951057 -0.309017 0
    outer loop
      vertex 6.13111 -1.24747 1
      vertex 6.51873 -2.44042 0
      vertex 6.51873 -2.44042 1
    endloop
  endfacet
  facet normal -0.587786 -0.809017 0
    outer loop
      vertex 7.98522 -4.45887 0
      vertex 9 -5.19615 1
      vertex 7.98522 -4.45887 1
    endloop
  endfacet
  facet normal -0.587786 -0.809017 -0
    outer loop
      vertex 9 -5.19615 1
      vertex 7.98522 -4.45887 0
      vertex 9 -5.19615 0
    endloop
  endfacet
  facet normal -0.207911 -0.978148 0
    outer loop
      vertex 10.1459 -5.70634 0
      vertex 11.3728 -5.96713 1
      vertex 10.1459 -5.70634 1
    endloop
  endfacet
  facet normal -0.207911 -0.978148 -0
    outer loop
      vertex 11.3728 -5.96713 1
      vertex 10.1459 -5.70634 0
      vertex 11.3728 -5.96713 0
    endloop
  endfacet
  facet normal 0.55376 0.0582028 0.83064
    outer loop
      vertex 17.8689 1.24747 1
      vertex 16.5 0 2
      vertex 18 0 1
    endloop
  endfacet
  facet normal 0.529558 0.172063 0.83064
    outer loop
      vertex 17.4813 2.44042 1
      vertex 16.4017 0.935602 2
      vertex 17.8689 1.24747 1
    endloop
  endfacet
  facet normal 0 0.55681 0.83064
    outer loop
      vertex 12.6272 5.96713 1
      vertex 11.5296 4.47535 2
      vertex 12.4704 4.47535 2
    endloop
  endfacet
  facet normal 0 0.55681 0.83064
    outer loop
      vertex 11.5296 4.47535 2
      vertex 12.6272 5.96713 1
      vertex 11.3728 5.96713 1
    endloop
  endfacet
  facet normal 0.41379 -0.372579 0.83064
    outer loop
      vertex 16.8541 -3.52671 1
      vertex 15.0111 -3.34415 2
      vertex 16.0148 -4.45887 1
    endloop
  endfacet
  facet normal 0.327285 0.450469 0.83064
    outer loop
      vertex 16.0148 4.45887 1
      vertex 15 5.19615 1
      vertex 15.0111 3.34415 2
    endloop
  endfacet
  facet normal 0.482212 -0.278405 0.83064
    outer loop
      vertex 16.111 -1.83031 2
      vertex 15.6406 -2.64503 2
      vertex 17.4813 -2.44042 1
    endloop
  endfacet
  facet normal -0.482212 0.278405 0.83064
    outer loop
      vertex 7.1459 3.52671 1
      vertex 6.51873 2.44042 1
      vertex 8.35942 2.64503 2
    endloop
  endfacet
  facet normal -0.327285 0.450469 0.83064
    outer loop
      vertex 9 5.19615 1
      vertex 7.98522 4.45887 1
      vertex 8.98891 3.34415 2
    endloop
  endfacet
  facet normal -0.413791 0.372579 0.83064
    outer loop
      vertex 8.98891 3.34415 2
      vertex 7.1459 3.52671 1
      vertex 8.35942 2.64503 2
    endloop
  endfacet
  facet normal -0.55376 0.0582028 0.83064
    outer loop
      vertex 6.13111 1.24747 1
      vertex 6 0 1
      vertex 7.5 0 2
    endloop
  endfacet
  facet normal 0.413791 -0.372579 0.83064
    outer loop
      vertex 15.6406 -2.64503 2
      vertex 15.0111 -3.34415 2
      vertex 16.8541 -3.52671 1
    endloop
  endfacet
  facet normal 0.226475 0.508671 0.83064
    outer loop
      vertex 15 5.19615 1
      vertex 13.8541 5.70634 1
      vertex 14.25 3.89711 2
    endloop
  endfacet
  facet normal -0.115767 0.544643 0.83064
    outer loop
      vertex 11.3728 5.96713 1
      vertex 10.1459 5.70634 1
      vertex 11.5296 4.47535 2
    endloop
  endfacet
  facet normal 0.482211 0.278406 0.83064
    outer loop
      vertex 16.8541 3.52671 1
      vertex 15.6406 2.64503 2
      vertex 17.4813 2.44042 1
    endloop
  endfacet
  facet normal 0.482212 0.278405 0.83064
    outer loop
      vertex 17.4813 2.44042 1
      vertex 15.6406 2.64503 2
      vertex 16.111 1.83031 2
    endloop
  endfacet
  facet normal 0.55376 -0.0582028 0.83064
    outer loop
      vertex 18 0 1
      vertex 16.5 0 2
      vertex 17.8689 -1.24747 1
    endloop
  endfacet
  facet normal -0.413791 0.372579 0.83064
    outer loop
      vertex 7.98522 4.45887 1
      vertex 7.1459 3.52671 1
      vertex 8.98891 3.34415 2
    endloop
  endfacet
  facet normal -0.529558 0.172064 0.83064
    outer loop
      vertex 6.51873 2.44042 1
      vertex 6.13111 1.24747 1
      vertex 7.59834 0.935602 2
    endloop
  endfacet
  facet normal -0.55376 0.0582028 0.83064
    outer loop
      vertex 7.59834 0.935602 2
      vertex 6.13111 1.24747 1
      vertex 7.5 0 2
    endloop
  endfacet
  facet normal -0.413791 -0.372579 0.83064
    outer loop
      vertex 8.98891 -3.34415 2
      vertex 7.1459 -3.52671 1
      vertex 7.98522 -4.45887 1
    endloop
  endfacet
  facet normal -0.482212 -0.278405 0.83064
    outer loop
      vertex 7.88905 -1.83031 2
      vertex 6.51873 -2.44042 1
      vertex 8.35942 -2.64503 2
    endloop
  endfacet
  facet normal -0.327285 -0.450469 0.83064
    outer loop
      vertex 9.75 -3.89711 2
      vertex 8.98891 -3.34415 2
      vertex 9 -5.19615 1
    endloop
  endfacet
  facet normal -0.226475 -0.508671 0.83064
    outer loop
      vertex 10.6094 -4.27975 2
      vertex 9.75 -3.89711 2
      vertex 10.1459 -5.70634 1
    endloop
  endfacet
  facet normal 0.115767 -0.544643 0.83064
    outer loop
      vertex 13.8541 -5.70634 1
      vertex 12.4704 -4.47535 2
      vertex 12.6272 -5.96713 1
    endloop
  endfacet
  facet normal 0.115767 0.544643 0.83064
    outer loop
      vertex 12.6272 5.96713 1
      vertex 12.4704 4.47535 2
      vertex 13.8541 5.70634 1
    endloop
  endfacet
  facet normal -0.226475 0.508671 0.83064
    outer loop
      vertex 10.1459 5.70634 1
      vertex 9.75 3.89711 2
      vertex 10.6094 4.27975 2
    endloop
  endfacet
  facet normal -0.115768 0.544642 0.83064
    outer loop
      vertex 11.5296 4.47535 2
      vertex 10.1459 5.70634 1
      vertex 10.6094 4.27975 2
    endloop
  endfacet
  facet normal -0.226475 0.508671 0.83064
    outer loop
      vertex 10.1459 5.70634 1
      vertex 9 5.19615 1
      vertex 9.75 3.89711 2
    endloop
  endfacet
  facet normal -0.327284 0.450469 0.83064
    outer loop
      vertex 9 5.19615 1
      vertex 8.98891 3.34415 2
      vertex 9.75 3.89711 2
    endloop
  endfacet
  facet normal 0.41379 0.372579 0.83064
    outer loop
      vertex 16.0148 4.45887 1
      vertex 15.0111 3.34415 2
      vertex 16.8541 3.52671 1
    endloop
  endfacet
  facet normal 0.327285 0.450469 0.83064
    outer loop
      vertex 15 5.19615 1
      vertex 14.25 3.89711 2
      vertex 15.0111 3.34415 2
    endloop
  endfacet
  facet normal 0.413791 0.372579 0.83064
    outer loop
      vertex 16.8541 3.52671 1
      vertex 15.0111 3.34415 2
      vertex 15.6406 2.64503 2
    endloop
  endfacet
  facet normal -0.482212 0.278405 0.83064
    outer loop
      vertex 8.35942 2.64503 2
      vertex 6.51873 2.44042 1
      vertex 7.88905 1.83031 2
    endloop
  endfacet
  facet normal 0 0 1
    outer loop
      vertex 16.25 0 2
      vertex 16.5 0 2
      vertex 16.4017 0.935602 2
    endloop
  endfacet
  facet normal 0 0 1
    outer loop
      vertex 16.5 0 2
      vertex 16.25 0 2
      vertex 16.4017 -0.935602 2
    endloop
  endfacet
  facet normal 0 0 1
    outer loop
      vertex 16.4017 0.935602 2
      vertex 16.1571 0.883624 2
      vertex 16.25 0 2
    endloop
  endfacet
  facet normal 0 0 1
    outer loop
      vertex 16.111 1.83031 2
      vertex 16.1571 0.883624 2
      vertex 16.4017 0.935602 2
    endloop
  endfacet
  facet normal 0 0 1
    outer loop
      vertex 16.111 1.83031 2
      vertex 15.8826 1.72863 2
      vertex 16.1571 0.883624 2
    endloop
  endfacet
  facet normal 0 0 1
    outer loop
      vertex 15.6406 2.64503 2
      vertex 15.8826 1.72863 2
      vertex 16.111 1.83031 2
    endloop
  endfacet
  facet normal 0 0 1
    outer loop
      vertex 15.6406 2.64503 2
      vertex 15.4383 2.49809 2
      vertex 15.8826 1.72863 2
    endloop
  endfacet
  facet normal 0 0 1
    outer loop
      vertex 15.0111 3.34415 2
      vertex 15.4383 2.49809 2
      vertex 15.6406 2.64503 2
    endloop
  endfacet
  facet normal 0 0 1
    outer loop
      vertex 15.0111 3.34415 2
      vertex 14.8438 3.15837 2
      vertex 15.4383 2.49809 2
    endloop
  endfacet
  facet normal 0 0 1
    outer loop
      vertex 14.25 3.89711 2
      vertex 14.8438 3.15837 2
      vertex 15.0111 3.34415 2
    endloop
  endfacet
  facet normal 0 0 1
    outer loop
      vertex 14.25 3.89711 2
      vertex 14.125 3.68061 2
      vertex 14.8438 3.15837 2
    endloop
  endfacet
  facet normal 0 0 1
    outer loop
      vertex 13.3906 4.27975 2
      vertex 14.125 3.68061 2
      vertex 14.25 3.89711 2
    endloop
  endfacet
  facet normal 0 0 1
    outer loop
      vertex 13.3906 4.27975 2
      vertex 13.3133 4.04199 2
      vertex 14.125 3.68061 2
    endloop
  endfacet
  facet normal 0 0 1
    outer loop
      vertex 12.4704 4.47535 2
      vertex 13.3133 4.04199 2
      vertex 13.3906 4.27975 2
    endloop
  endfacet
  facet normal 0 0 1
    outer loop
      vertex 12.4704 4.47535 2
      vertex 12.4442 4.22672 2
      vertex 13.3133 4.04199 2
    endloop
  endfacet
  facet normal 0 0 1
    outer loop
      vertex 12.4704 4.47535 2
      vertex 11.5558 4.22672 2
      vertex 12.4442 4.22672 2
    endloop
  endfacet
  facet normal -0 0 1
    outer loop
      vertex 11.5296 4.47535 2
      vertex 11.5558 4.22672 2
      vertex 12.4704 4.47535 2
    endloop
  endfacet
  facet normal 0 0 1
    outer loop
      vertex 11.5296 4.47535 2
      vertex 10.6867 4.04199 2
      vertex 11.5558 4.22672 2
    endloop
  endfacet
  facet normal -0 0 1
    outer loop
      vertex 10.6094 4.27975 2
      vertex 10.6867 4.04199 2
      vertex 11.5296 4.47535 2
    endloop
  endfacet
  facet normal 0 0 1
    outer loop
      vertex 10.6094 4.27975 2
      vertex 9.875 3.68061 2
      vertex 10.6867 4.04199 2
    endloop
  endfacet
  facet normal -0 0 1
    outer loop
      vertex 9.75 3.89711 2
      vertex 9.875 3.68061 2
      vertex 10.6094 4.27975 2
    endloop
  endfacet
  facet normal 0 0 1
    outer loop
      vertex 9.75 3.89711 2
      vertex 9.1562 3.15837 2
      vertex 9.875 3.68061 2
    endloop
  endfacet
  facet normal -0 0 1
    outer loop
      vertex 8.98891 3.34415 2
      vertex 9.1562 3.15837 2
      vertex 9.75 3.89711 2
    endloop
  endfacet
  facet normal 0 0 1
    outer loop
      vertex 8.98891 3.34415 2
      vertex 8.56168 2.49809 2
      vertex 9.1562 3.15837 2
    endloop
  endfacet
  facet normal -0 0 1
    outer loop
      vertex 8.35942 2.64503 2
      vertex 8.56168 2.49809 2
      vertex 8.98891 3.34415 2
    endloop
  endfacet
  facet normal 0 0 1
    outer loop
      vertex 8.35942 2.64503 2
      vertex 8.11743 1.72863 2
      vertex 8.56168 2.49809 2
    endloop
  endfacet
  facet normal -0 0 1
    outer loop
      vertex 7.88905 1.83031 2
      vertex 8.11743 1.72863 2
      vertex 8.35942 2.64503 2
    endloop
  endfacet
  facet normal 0 0 1
    outer loop
      vertex 7.88905 1.83031 2
      vertex 7.84287 0.883624 2
      vertex 8.11743 1.72863 2
    endloop
  endfacet
  facet normal -0 0 1
    outer loop
      vertex 7.59834 0.935602 2
      vertex 7.84287 0.883624 2
      vertex 7.88905 1.83031 2
    endloop
  endfacet
  facet normal 0 0 1
    outer loop
      vertex 7.84287 0.883624 2
      vertex 7.59834 0.935602 2
      vertex 7.75 0 2
    endloop
  endfacet
  facet normal -0 0 1
    outer loop
      vertex 16.1571 -0.883624 2
      vertex 16.4017 -0.935602 2
      vertex 16.25 0 2
    endloop
  endfacet
  facet normal 0 0 1
    outer loop
      vertex 16.1571 -0.883624 2
      vertex 16.111 -1.83031 2
      vertex 16.4017 -0.935602 2
    endloop
  endfacet
  facet normal -0 0 1
    outer loop
      vertex 15.8826 -1.72863 2
      vertex 16.111 -1.83031 2
      vertex 16.1571 -0.883624 2
    endloop
  endfacet
  facet normal 0 0 1
    outer loop
      vertex 15.8826 -1.72863 2
      vertex 15.6406 -2.64503 2
      vertex 16.111 -1.83031 2
    endloop
  endfacet
  facet normal -0 0 1
    outer loop
      vertex 15.4383 -2.49809 2
      vertex 15.6406 -2.64503 2
      vertex 15.8826 -1.72863 2
    endloop
  endfacet
  facet normal 0 0 1
    outer loop
      vertex 15.4383 -2.49809 2
      vertex 15.0111 -3.34415 2
      vertex 15.6406 -2.64503 2
    endloop
  endfacet
  facet normal -0 0 1
    outer loop
      vertex 14.8438 -3.15837 2
      vertex 15.0111 -3.34415 2
      vertex 15.4383 -2.49809 2
    endloop
  endfacet
  facet normal 0 0 1
    outer loop
      vertex 14.8438 -3.15837 2
      vertex 14.25 -3.89711 2
      vertex 15.0111 -3.34415 2
    endloop
  endfacet
  facet normal -0 0 1
    outer loop
      vertex 14.125 -3.68061 2
      vertex 14.25 -3.89711 2
      vertex 14.8438 -3.15837 2
    endloop
  endfacet
  facet normal 0 0 1
    outer loop
      vertex 14.125 -3.68061 2
      vertex 13.3906 -4.27975 2
      vertex 14.25 -3.89711 2
    endloop
  endfacet
  facet normal -0 0 1
    outer loop
      vertex 13.3133 -4.04199 2
      vertex 13.3906 -4.27975 2
      vertex 14.125 -3.68061 2
    endloop
  endfacet
  facet normal 0 0 1
    outer loop
      vertex 13.3133 -4.04199 2
      vertex 12.4704 -4.47535 2
      vertex 13.3906 -4.27975 2
    endloop
  endfacet
  facet normal -0 0 1
    outer loop
      vertex 12.4442 -4.22672 2
      vertex 12.4704 -4.47535 2
      vertex 13.3133 -4.04199 2
    endloop
  endfacet
  facet normal -0 0 1
    outer loop
      vertex 11.5558 -4.22672 2
      vertex 12.4704 -4.47535 2
      vertex 12.4442 -4.22672 2
    endloop
  endfacet
  facet normal 0 0 1
    outer loop
      vertex 11.5558 -4.22672 2
      vertex 11.5296 -4.47535 2
      vertex 12.4704 -4.47535 2
    endloop
  endfacet
  facet normal 0 0 1
    outer loop
      vertex 10.6867 -4.04199 2
      vertex 11.5296 -4.47535 2
      vertex 11.5558 -4.22672 2
    endloop
  endfacet
  facet normal 0 0 1
    outer loop
      vertex 10.6867 -4.04199 2
      vertex 10.6094 -4.27975 2
      vertex 11.5296 -4.47535 2
    endloop
  endfacet
  facet normal 0 0 1
    outer loop
      vertex 9.875 -3.68061 2
      vertex 10.6094 -4.27975 2
      vertex 10.6867 -4.04199 2
    endloop
  endfacet
  facet normal 0 0 1
    outer loop
      vertex 9.875 -3.68061 2
      vertex 9.75 -3.89711 2
      vertex 10.6094 -4.27975 2
    endloop
  endfacet
  facet normal 0 0 1
    outer loop
      vertex 9.1562 -3.15837 2
      vertex 9.75 -3.89711 2
      vertex 9.875 -3.68061 2
    endloop
  endfacet
  facet normal 0 0 1
    outer loop
      vertex 9.1562 -3.15837 2
      vertex 8.98891 -3.34415 2
      vertex 9.75 -3.89711 2
    endloop
  endfacet
  facet normal 0 0 1
    outer loop
      vertex 8.56168 -2.49809 2
      vertex 8.98891 -3.34415 2
      vertex 9.1562 -3.15837 2
    endloop
  endfacet
  facet normal 0 0 1
    outer loop
      vertex 8.56168 -2.49809 2
      vertex 8.35942 -2.64503 2
      vertex 8.98891 -3.34415 2
    endloop
  endfacet
  facet normal 0 0 1
    outer loop
      vertex 8.11743 -1.72863 2
      vertex 8.35942 -2.64503 2
      vertex 8.56168 -2.49809 2
    endloop
  endfacet
  facet normal 0 0 1
    outer loop
      vertex 8.11743 -1.72863 2
      vertex 7.88905 -1.83031 2
      vertex 8.35942 -2.64503 2
    endloop
  endfacet
  facet normal 0 0 1
    outer loop
      vertex 7.84287 -0.883624 2
      vertex 7.88905 -1.83031 2
      vertex 8.11743 -1.72863 2
    endloop
  endfacet
  facet normal 0 0 1
    outer loop
      vertex 7.59834 -0.935602 2
      vertex 7.84287 -0.883624 2
      vertex 7.75 0 2
    endloop
  endfacet
  facet normal 0 0 1
    outer loop
      vertex 7.5 0 2
      vertex 7.75 0 2
      vertex 7.59834 0.935602 2
    endloop
  endfacet
  facet normal 0 0 1
    outer loop
      vertex 7.84287 -0.883624 2
      vertex 7.59834 -0.935602 2
      vertex 7.88905 -1.83031 2
    endloop
  endfacet
  facet normal 0 0 1
    outer loop
      vertex 7.75 0 2
      vertex 7.5 0 2
      vertex 7.59834 -0.935602 2
    endloop
  endfacet
  facet normal -0.529558 0.172064 0.83064
    outer loop
      vertex 7.88905 1.83031 2
      vertex 6.51873 2.44042 1
      vertex 7.59834 0.935602 2
    endloop
  endfacet
  facet normal -0.327285 -0.450469 0.83064
    outer loop
      vertex 8.98891 -3.34415 2
      vertex 7.98522 -4.45887 1
      vertex 9 -5.19615 1
    endloop
  endfacet
  facet normal -0.529558 -0.172064 0.83064
    outer loop
      vertex 7.59834 -0.935602 2
      vertex 6.13111 -1.24747 1
      vertex 6.51873 -2.44042 1
    endloop
  endfacet
  facet normal -0.482212 -0.278405 0.83064
    outer loop
      vertex 8.35942 -2.64503 2
      vertex 6.51873 -2.44042 1
      vertex 7.1459 -3.52671 1
    endloop
  endfacet
  facet normal -0.413791 -0.372579 0.83064
    outer loop
      vertex 8.35942 -2.64503 2
      vertex 7.1459 -3.52671 1
      vertex 8.98891 -3.34415 2
    endloop
  endfacet
  facet normal -0.115767 -0.544643 0.83064
    outer loop
      vertex 11.5296 -4.47535 2
      vertex 10.1459 -5.70634 1
      vertex 11.3728 -5.96713 1
    endloop
  endfacet
  facet normal 0.115768 -0.544642 0.83064
    outer loop
      vertex 13.3906 -4.27975 2
      vertex 12.4704 -4.47535 2
      vertex 13.8541 -5.70634 1
    endloop
  endfacet
  facet normal 0 -0.55681 0.83064
    outer loop
      vertex 11.5296 -4.47535 2
      vertex 12.6272 -5.96713 1
      vertex 12.4704 -4.47535 2
    endloop
  endfacet
  facet normal 0 -0.55681 0.83064
    outer loop
      vertex 12.6272 -5.96713 1
      vertex 11.5296 -4.47535 2
      vertex 11.3728 -5.96713 1
    endloop
  endfacet
  facet normal 0.482211 -0.278406 0.83064
    outer loop
      vertex 17.4813 -2.44042 1
      vertex 15.6406 -2.64503 2
      vertex 16.8541 -3.52671 1
    endloop
  endfacet
  facet normal 0.529557 -0.172064 0.83064
    outer loop
      vertex 16.4017 -0.935602 2
      vertex 16.111 -1.83031 2
      vertex 17.4813 -2.44042 1
    endloop
  endfacet
  facet normal 0.226475 0.508671 0.83064
    outer loop
      vertex 13.8541 5.70634 1
      vertex 13.3906 4.27975 2
      vertex 14.25 3.89711 2
    endloop
  endfacet
  facet normal 0.115768 0.544642 0.83064
    outer loop
      vertex 13.8541 5.70634 1
      vertex 12.4704 4.47535 2
      vertex 13.3906 4.27975 2
    endloop
  endfacet
  facet normal 0.529557 0.172064 0.83064
    outer loop
      vertex 17.4813 2.44042 1
      vertex 16.111 1.83031 2
      vertex 16.4017 0.935602 2
    endloop
  endfacet
  facet normal -0.529558 -0.172064 0.83064
    outer loop
      vertex 7.59834 -0.935602 2
      vertex 6.51873 -2.44042 1
      vertex 7.88905 -1.83031 2
    endloop
  endfacet
  facet normal -0.55376 -0.0582028 0.83064
    outer loop
      vertex 7.5 0 2
      vertex 6 0 1
      vertex 6.13111 -1.24747 1
    endloop
  endfacet
  facet normal -0.226475 -0.508671 0.83064
    outer loop
      vertex 9.75 -3.89711 2
      vertex 9 -5.19615 1
      vertex 10.1459 -5.70634 1
    endloop
  endfacet
  facet normal 0.327285 -0.450469 0.83064
    outer loop
      vertex 15.0111 -3.34415 2
      vertex 14.25 -3.89711 2
      vertex 15 -5.19615 1
    endloop
  endfacet
  facet normal 0.327285 -0.450469 0.83064
    outer loop
      vertex 15.0111 -3.34415 2
      vertex 15 -5.19615 1
      vertex 16.0148 -4.45887 1
    endloop
  endfacet
  facet normal 0.529558 -0.172063 0.83064
    outer loop
      vertex 17.8689 -1.24747 1
      vertex 16.4017 -0.935602 2
      vertex 17.4813 -2.44042 1
    endloop
  endfacet
  facet normal 0.55376 -0.0582023 0.83064
    outer loop
      vertex 16.5 0 2
      vertex 16.4017 -0.935602 2
      vertex 17.8689 -1.24747 1
    endloop
  endfacet
  facet normal 0.55376 0.0582023 0.83064
    outer loop
      vertex 17.8689 1.24747 1
      vertex 16.4017 0.935602 2
      vertex 16.5 0 2
    endloop
  endfacet
  facet normal -0.55376 -0.0582028 0.83064
    outer loop
      vertex 7.5 0 2
      vertex 6.13111 -1.24747 1
      vertex 7.59834 -0.935602 2
    endloop
  endfacet
  facet normal -0.115768 -0.544642 0.83064
    outer loop
      vertex 10.6094 -4.27975 2
      vertex 10.1459 -5.70634 1
      vertex 11.5296 -4.47535 2
    endloop
  endfacet
  facet normal 0.226475 -0.508671 0.83064
    outer loop
      vertex 14.25 -3.89711 2
      vertex 13.3906 -4.27975 2
      vertex 13.8541 -5.70634 1
    endloop
  endfacet
  facet normal 0.226475 -0.508671 0.83064
    outer loop
      vertex 14.25 -3.89711 2
      vertex 13.8541 -5.70634 1
      vertex 15 -5.19615 1
    endloop
  endfacet
  facet normal -0.866026 -0.499999 0
    outer loop
      vertex 15.8826 1.72863 0
      vertex 15.4383 2.49809 2
      vertex 15.4383 2.49809 0
    endloop
  endfacet
  facet normal -0.866026 -0.499999 0
    outer loop
      vertex 15.4383 2.49809 2
      vertex 15.8826 1.72863 0
      vertex 15.8826 1.72863 2
    endloop
  endfacet
  facet normal 0 -1 0
    outer loop
      vertex 11.5558 4.22672 0
      vertex 12.4442 4.22672 2
      vertex 11.5558 4.22672 2
    endloop
  endfacet
  facet normal 0 -1 -0
    outer loop
      vertex 12.4442 4.22672 2
      vertex 11.5558 4.22672 0
      vertex 12.4442 4.22672 0
    endloop
  endfacet
  facet normal 0.951057 -0.309017 0
    outer loop
      vertex 7.84287 0.883624 2
      vertex 8.11743 1.72863 0
      vertex 8.11743 1.72863 2
    endloop
  endfacet
  facet normal 0.951057 -0.309017 0
    outer loop
      vertex 8.11743 1.72863 0
      vertex 7.84287 0.883624 2
      vertex 7.84287 0.883624 0
    endloop
  endfacet
  facet normal -0.743145 -0.669131 0
    outer loop
      vertex 15.4383 2.49809 0
      vertex 14.8438 3.15837 2
      vertex 14.8438 3.15837 0
    endloop
  endfacet
  facet normal -0.743145 -0.669131 0
    outer loop
      vertex 14.8438 3.15837 2
      vertex 15.4383 2.49809 0
      vertex 15.4383 2.49809 2
    endloop
  endfacet
  facet normal -0.207912 -0.978147 0
    outer loop
      vertex 12.4442 4.22672 0
      vertex 13.3133 4.04199 2
      vertex 12.4442 4.22672 2
    endloop
  endfacet
  facet normal -0.207912 -0.978147 -0
    outer loop
      vertex 13.3133 4.04199 2
      vertex 12.4442 4.22672 0
      vertex 13.3133 4.04199 0
    endloop
  endfacet
  facet normal 0.406736 -0.913546 0
    outer loop
      vertex 9.875 3.68061 0
      vertex 10.6867 4.04199 2
      vertex 9.875 3.68061 2
    endloop
  endfacet
  facet normal 0.406736 -0.913546 0
    outer loop
      vertex 10.6867 4.04199 2
      vertex 9.875 3.68061 0
      vertex 10.6867 4.04199 0
    endloop
  endfacet
  facet normal 0.866026 -0.499999 0
    outer loop
      vertex 8.11743 1.72863 2
      vertex 8.56168 2.49809 0
      vertex 8.56168 2.49809 2
    endloop
  endfacet
  facet normal 0.866026 -0.499999 0
    outer loop
      vertex 8.56168 2.49809 0
      vertex 8.11743 1.72863 2
      vertex 8.11743 1.72863 0
    endloop
  endfacet
  facet normal -0.994522 0.104528 0
    outer loop
      vertex 16.1571 -0.883624 0
      vertex 16.25 0 2
      vertex 16.25 0 0
    endloop
  endfacet
  facet normal -0.994522 0.104528 0
    outer loop
      vertex 16.25 0 2
      vertex 16.1571 -0.883624 0
      vertex 16.1571 -0.883624 2
    endloop
  endfacet
  facet normal -0.207912 0.978147 0
    outer loop
      vertex 13.3133 -4.04199 0
      vertex 12.4442 -4.22672 2
      vertex 13.3133 -4.04199 2
    endloop
  endfacet
  facet normal -0.207912 0.978147 0
    outer loop
      vertex 12.4442 -4.22672 2
      vertex 13.3133 -4.04199 0
      vertex 12.4442 -4.22672 0
    endloop
  endfacet
  facet normal -0.587786 -0.809017 0
    outer loop
      vertex 14.125 3.68061 0
      vertex 14.8438 3.15837 2
      vertex 14.125 3.68061 2
    endloop
  endfacet
  facet normal -0.587786 -0.809017 -0
    outer loop
      vertex 14.8438 3.15837 2
      vertex 14.125 3.68061 0
      vertex 14.8438 3.15837 0
    endloop
  endfacet
  facet normal -0.406736 -0.913546 0
    outer loop
      vertex 13.3133 4.04199 0
      vertex 14.125 3.68061 2
      vertex 13.3133 4.04199 2
    endloop
  endfacet
  facet normal -0.406736 -0.913546 -0
    outer loop
      vertex 14.125 3.68061 2
      vertex 13.3133 4.04199 0
      vertex 14.125 3.68061 0
    endloop
  endfacet
  facet normal 0.994522 -0.10453 0
    outer loop
      vertex 7.75 0 2
      vertex 7.84287 0.883624 0
      vertex 7.84287 0.883624 2
    endloop
  endfacet
  facet normal 0.994522 -0.10453 0
    outer loop
      vertex 7.84287 0.883624 0
      vertex 7.75 0 2
      vertex 7.75 0 0
    endloop
  endfacet
  facet normal 0.587785 -0.809017 0
    outer loop
      vertex 9.1562 3.15837 0
      vertex 9.875 3.68061 2
      vertex 9.1562 3.15837 2
    endloop
  endfacet
  facet normal 0.587785 -0.809017 0
    outer loop
      vertex 9.875 3.68061 2
      vertex 9.1562 3.15837 0
      vertex 9.875 3.68061 0
    endloop
  endfacet
  facet normal 0.207912 -0.978147 0
    outer loop
      vertex 10.6867 4.04199 0
      vertex 11.5558 4.22672 2
      vertex 10.6867 4.04199 2
    endloop
  endfacet
  facet normal 0.207912 -0.978147 0
    outer loop
      vertex 11.5558 4.22672 2
      vertex 10.6867 4.04199 0
      vertex 11.5558 4.22672 0
    endloop
  endfacet
  facet normal 0.743145 -0.669131 0
    outer loop
      vertex 8.56168 2.49809 2
      vertex 9.1562 3.15837 0
      vertex 9.1562 3.15837 2
    endloop
  endfacet
  facet normal 0.743145 -0.669131 0
    outer loop
      vertex 9.1562 3.15837 0
      vertex 8.56168 2.49809 2
      vertex 8.56168 2.49809 0
    endloop
  endfacet
  facet normal -0.994522 -0.104528 0
    outer loop
      vertex 16.25 0 0
      vertex 16.1571 0.883624 2
      vertex 16.1571 0.883624 0
    endloop
  endfacet
  facet normal -0.994522 -0.104528 0
    outer loop
      vertex 16.1571 0.883624 2
      vertex 16.25 0 0
      vertex 16.25 0 2
    endloop
  endfacet
  facet normal 0.207912 0.978147 -0
    outer loop
      vertex 11.5558 -4.22672 0
      vertex 10.6867 -4.04199 2
      vertex 11.5558 -4.22672 2
    endloop
  endfacet
  facet normal 0.207912 0.978147 0
    outer loop
      vertex 10.6867 -4.04199 2
      vertex 11.5558 -4.22672 0
      vertex 10.6867 -4.04199 0
    endloop
  endfacet
  facet normal -0.587786 0.809017 0
    outer loop
      vertex 14.8438 -3.15837 0
      vertex 14.125 -3.68061 2
      vertex 14.8438 -3.15837 2
    endloop
  endfacet
  facet normal -0.587786 0.809017 0
    outer loop
      vertex 14.125 -3.68061 2
      vertex 14.8438 -3.15837 0
      vertex 14.125 -3.68061 0
    endloop
  endfacet
  facet normal -0.951056 -0.309018 0
    outer loop
      vertex 16.1571 0.883624 0
      vertex 15.8826 1.72863 2
      vertex 15.8826 1.72863 0
    endloop
  endfacet
  facet normal -0.951056 -0.309018 0
    outer loop
      vertex 15.8826 1.72863 2
      vertex 16.1571 0.883624 0
      vertex 16.1571 0.883624 2
    endloop
  endfacet
  facet normal -0.951056 0.309018 0
    outer loop
      vertex 15.8826 -1.72863 0
      vertex 16.1571 -0.883624 2
      vertex 16.1571 -0.883624 0
    endloop
  endfacet
  facet normal -0.951056 0.309018 0
    outer loop
      vertex 16.1571 -0.883624 2
      vertex 15.8826 -1.72863 0
      vertex 15.8826 -1.72863 2
    endloop
  endfacet
  facet normal -0.866026 0.499999 0
    outer loop
      vertex 15.4383 -2.49809 0
      vertex 15.8826 -1.72863 2
      vertex 15.8826 -1.72863 0
    endloop
  endfacet
  facet normal -0.866026 0.499999 0
    outer loop
      vertex 15.8826 -1.72863 2
      vertex 15.4383 -2.49809 0
      vertex 15.4383 -2.49809 2
    endloop
  endfacet
  facet normal 0.994522 0.10453 0
    outer loop
      vertex 7.84287 -0.883624 2
      vertex 7.75 0 0
      vertex 7.75 0 2
    endloop
  endfacet
  facet normal 0.994522 0.10453 0
    outer loop
      vertex 7.75 0 0
      vertex 7.84287 -0.883624 2
      vertex 7.84287 -0.883624 0
    endloop
  endfacet
  facet normal -0.743145 0.669131 0
    outer loop
      vertex 14.8438 -3.15837 0
      vertex 15.4383 -2.49809 2
      vertex 15.4383 -2.49809 0
    endloop
  endfacet
  facet normal -0.743145 0.669131 0
    outer loop
      vertex 15.4383 -2.49809 2
      vertex 14.8438 -3.15837 0
      vertex 14.8438 -3.15837 2
    endloop
  endfacet
  facet normal 0 1 -0
    outer loop
      vertex 12.4442 -4.22672 0
      vertex 11.5558 -4.22672 2
      vertex 12.4442 -4.22672 2
    endloop
  endfacet
  facet normal 0 1 0
    outer loop
      vertex 11.5558 -4.22672 2
      vertex 12.4442 -4.22672 0
      vertex 11.5558 -4.22672 0
    endloop
  endfacet
  facet normal 0.587786 0.809017 -0
    outer loop
      vertex 9.875 -3.68061 0
      vertex 9.1562 -3.15837 2
      vertex 9.875 -3.68061 2
    endloop
  endfacet
  facet normal 0.587786 0.809017 0
    outer loop
      vertex 9.1562 -3.15837 2
      vertex 9.875 -3.68061 0
      vertex 9.1562 -3.15837 0
    endloop
  endfacet
  facet normal 0.406736 0.913546 -0
    outer loop
      vertex 10.6867 -4.04199 0
      vertex 9.875 -3.68061 2
      vertex 10.6867 -4.04199 2
    endloop
  endfacet
  facet normal 0.406736 0.913546 0
    outer loop
      vertex 9.875 -3.68061 2
      vertex 10.6867 -4.04199 0
      vertex 9.875 -3.68061 0
    endloop
  endfacet
  facet normal 0.951057 0.309017 0
    outer loop
      vertex 8.11743 -1.72863 2
      vertex 7.84287 -0.883624 0
      vertex 7.84287 -0.883624 2
    endloop
  endfacet
  facet normal 0.951057 0.309017 0
    outer loop
      vertex 7.84287 -0.883624 0
      vertex 8.11743 -1.72863 2
      vertex 8.11743 -1.72863 0
    endloop
  endfacet
  facet normal 0.743145 0.669131 0
    outer loop
      vertex 9.1562 -3.15837 2
      vertex 8.56168 -2.49809 0
      vertex 8.56168 -2.49809 2
    endloop
  endfacet
  facet normal 0.743145 0.669131 0
    outer loop
      vertex 8.56168 -2.49809 0
      vertex 9.1562 -3.15837 2
      vertex 9.1562 -3.15837 0
    endloop
  endfacet
  facet normal 0.866026 0.499999 0
    outer loop
      vertex 8.56168 -2.49809 2
      vertex 8.11743 -1.72863 0
      vertex 8.11743 -1.72863 2
    endloop
  endfacet
  facet normal 0.866026 0.499999 0
    outer loop
      vertex 8.11743 -1.72863 0
      vertex 8.56168 -2.49809 2
      vertex 8.56168 -2.49809 0
    endloop
  endfacet
  facet normal -0.406736 0.913546 0
    outer loop
      vertex 14.125 -3.68061 0
      vertex 13.3133 -4.04199 2
      vertex 14.125 -3.68061 2
    endloop
  endfacet
  facet normal -0.406736 0.913546 0
    outer loop
      vertex 13.3133 -4.04199 2
      vertex 14.125 -3.68061 0
      vertex 13.3133 -4.04199 0
    endloop
  endfacet
endsolid OpenSCAD_Model
